<mxfile host="app.diagrams.net" modified="2022-12-14T06:59:47.719Z" agent="5.0 (Windows NT 10.0; Win64; x64) AppleWebKit/537.36 (KHTML, like Gecko) Chrome/107.0.0.0 Safari/537.36 OPR/93.0.0.0" version="20.6.2" etag="Bv6MQBnGf3TG17RNqpLk" type="github">
  <diagram id="kNUVWUMZAFCUuHtd4XWd" name="Page-1">
    <mxGraphModel dx="2493" dy="1350" grid="1" gridSize="10" guides="1" tooltips="1" connect="1" arrows="1" fold="1" page="1" pageScale="1" pageWidth="827" pageHeight="1169" math="0" shadow="0">
      <root>
        <mxCell id="0" />
        <mxCell id="1" parent="0" />
        <mxCell id="_2FKwMDi1mKpQeEEdjGX-16" style="edgeStyle=orthogonalEdgeStyle;rounded=0;orthogonalLoop=1;jettySize=auto;html=1;entryX=0;entryY=0.5;entryDx=0;entryDy=0;" edge="1" parent="1" source="_2FKwMDi1mKpQeEEdjGX-2" target="_2FKwMDi1mKpQeEEdjGX-6">
          <mxGeometry relative="1" as="geometry" />
        </mxCell>
        <mxCell id="_2FKwMDi1mKpQeEEdjGX-2" value="APIs" style="shape=image;html=1;verticalAlign=top;verticalLabelPosition=bottom;labelBackgroundColor=#ffffff;imageAspect=0;aspect=fixed;image=https://cdn3.iconfinder.com/data/icons/essential-pack/32/33-Web_Browser-128.png" vertex="1" parent="1">
          <mxGeometry x="40" y="200" width="80" height="80" as="geometry" />
        </mxCell>
        <mxCell id="_2FKwMDi1mKpQeEEdjGX-15" style="edgeStyle=orthogonalEdgeStyle;rounded=0;orthogonalLoop=1;jettySize=auto;html=1;entryX=0;entryY=0.5;entryDx=0;entryDy=0;" edge="1" parent="1" source="_2FKwMDi1mKpQeEEdjGX-3" target="_2FKwMDi1mKpQeEEdjGX-5">
          <mxGeometry relative="1" as="geometry" />
        </mxCell>
        <mxCell id="_2FKwMDi1mKpQeEEdjGX-3" value="SQL Database" style="shape=datastore;whiteSpace=wrap;html=1;strokeWidth=4;" vertex="1" parent="1">
          <mxGeometry x="40" y="80" width="80" height="80" as="geometry" />
        </mxCell>
        <mxCell id="_2FKwMDi1mKpQeEEdjGX-21" style="edgeStyle=orthogonalEdgeStyle;rounded=0;orthogonalLoop=1;jettySize=auto;html=1;entryX=0;entryY=0.5;entryDx=0;entryDy=0;" edge="1" parent="1" source="_2FKwMDi1mKpQeEEdjGX-4" target="_2FKwMDi1mKpQeEEdjGX-6">
          <mxGeometry relative="1" as="geometry" />
        </mxCell>
        <mxCell id="_2FKwMDi1mKpQeEEdjGX-4" value="Custom Code" style="points=[[0.25,0,0],[0.5,0,0],[0.75,0,0],[1,0.25,0],[1,0.5,0],[1,0.75,0],[0.75,1,0],[0.5,1,0],[0.25,1,0],[0,0.75,0],[0,0.5,0],[0,0.25,0]];shape=mxgraph.bpmn.task;whiteSpace=wrap;rectStyle=rounded;size=10;html=1;taskMarker=script;strokeWidth=4;" vertex="1" parent="1">
          <mxGeometry x="40" y="320" width="80" height="80" as="geometry" />
        </mxCell>
        <mxCell id="_2FKwMDi1mKpQeEEdjGX-43" style="edgeStyle=orthogonalEdgeStyle;rounded=0;orthogonalLoop=1;jettySize=auto;html=1;entryX=0;entryY=0.5;entryDx=0;entryDy=0;" edge="1" parent="1" source="_2FKwMDi1mKpQeEEdjGX-23" target="_2FKwMDi1mKpQeEEdjGX-34">
          <mxGeometry relative="1" as="geometry" />
        </mxCell>
        <mxCell id="_2FKwMDi1mKpQeEEdjGX-23" value="AWS S3 &lt;br&gt;&lt;b&gt;etl-bucket/&amp;lt;source&amp;gt;/extracted&lt;/b&gt;" style="sketch=0;outlineConnect=0;fontColor=#232F3E;gradientColor=none;fillColor=#33001A;strokeColor=none;dashed=0;verticalLabelPosition=bottom;verticalAlign=top;align=center;html=1;fontSize=12;fontStyle=0;aspect=fixed;pointerEvents=1;shape=mxgraph.aws4.bucket;strokeWidth=4;" vertex="1" parent="1">
          <mxGeometry x="640" y="160" width="76.92" height="80" as="geometry" />
        </mxCell>
        <mxCell id="_2FKwMDi1mKpQeEEdjGX-32" style="edgeStyle=orthogonalEdgeStyle;rounded=0;orthogonalLoop=1;jettySize=auto;html=1;" edge="1" parent="1" source="_2FKwMDi1mKpQeEEdjGX-27" target="_2FKwMDi1mKpQeEEdjGX-23">
          <mxGeometry relative="1" as="geometry" />
        </mxCell>
        <mxCell id="_2FKwMDi1mKpQeEEdjGX-27" value="" style="shape=image;verticalLabelPosition=bottom;labelBackgroundColor=default;verticalAlign=top;aspect=fixed;imageAspect=0;image=data:image/webp,UklGRrx3AABXRUJQVlA4ILB3AADwKgGdASogA1gCPgQBLwAACJZW71P2T6zmIQ/o39V/uf9S/eLy8Hi8g/pf6bf1H/Cf535pOCeSLqD6ofxr+r/2T/O/Ln+Afh30ydAf3H8Jfc/8I/DP5d/Uv71/Uf65//f+T+CP55/L/wd+Vv3X+4B/B/4L/Kf6z/ef6T/af/398/5n6iv6f6AP4Z/GP7P/Tf3t/f//7fjd/gf55/TfcT/dP8Z/R/1m+QD+bfyv/df0r93f+n////h+H/qJ/3j/2+wB/YP8H/y/91+83yi/2v/l/4P99v9n9h/8l/tH+1/vX78/7f7BP4//M/yg/2v+Y//////AD8APcA/3P/l9x3+Af1T/0fud/////9Y/RP+cf2b+y/1X9w/Uv+Q/0T8Yv69/n/hv8E+O/nP46/3L/wf5zoR+Xfrvmt/Cvqh9b/rH7C/4H/6f374p/m/2pei/4n9rX5Xf2L5Avwf+Gf07+1frt/eP9t/s/ol857EzQf75/vPUC9RPlv+F/tn+S/1f+A9Ij+k9Avsh/zPcA/l/9V/1n+A/c79//lX/UeA39e/1PsA/zX+8/9L8tf77///sy/X/8//gf9X/7P7z///dH+Of2H/Rf3r/P/+v/D////9foD/FP5X/i/7P/j/+V/iP///ufuV+//5m/sz9//0LfqR9/4c9NtaM5W2ba0Zyts21ozlbZtrRnK2zbWjOVtm2tGcrbNtaM5W2ba0Zyts21ozlbZtrRnK2zbWjOVtm2tGcrbNtaM5W2ba0Zyts21ozlbZtrRnK2zbWjOVtm2tGcrbNtaM5W2ba0Zytsn8jmApuhWWoBTdCstQCm6FZagFN0Ky1AGNft3u1SlxWBlZTll8npB6FZagFN0Ky1AKboVlqAU3QrLUAoa92eXb2ecaYr++FXyG5G7eYQQ2vz7Hj7qP9/kw9AKboVlqAU3QrLUApuhWWoBQ17suab4EHwghJF/39xvv0c/DNOTG2w8erZFG+tY1TrvR/nOgpxxxUWlIdtm2tGcrbNtaM5W2ba0Zys1wItypVnjgQFe0ZFymr6ZfeMV/oXccwKpwfVbuG9PkeIGO314w9P1jMF36+tCYTG+IwBo8BatXC/+2hWUaJ/0Ky1AKboVlqAU3Qqw0JpvDv0y2+hZi1nOiu8YWorMhyPWTPaCmfYvH9RS+OR1lK3cbJzEfbo6hJN2hOmRWI02A9zs873ROwfEdGg+Om6wLXCOm1tSTKse/QrLUApuhWWoBTdCrdRdW8uxL+8WfzdCW3/CMfzcHKbFUbv3ObM/PDUf6+1WdR4cAATNF2AJLfsqCzPDnT0cPI507wjmzLD+jl3h08EFzzybknK2zbWjOVtm2tGcopV8Oa3i/zih4583jm+mty6P/pUq/ROLZsdHlFJOrT4Vd+VU9LwWcA9qnXj3hAPUC432uhDv4LhAO8Eo0dDpSwazXUxjjCGBEQKSYbZtrRnK2zbWjOEGR++ASze/c98vkfucbW1bJHg1dVxzHnpWKjrsXtjSu5FdCc89ClX9sq5gk5u6vZksofE087t77Qb+s7cLR0/Pyg655eDBjpswDua0Zyts21ozlbZtqMyRvU2T/3YxnQLbvjRO8B6O1L+ZEsNSUlKv4YDjtlV+humZeaPwL0QbIv5JTUFb7XdEXtgY0APlkd0EJlC3NaM5W2ba0Zyts21om2HwoBgdAemwejfrt4uUlRtVgawS1qg0+yRsugwjRgoICrvWYmHid1BYDJTLrM8H/ikCfl1WuZfKMBaWifHkF4FxHXM1ozlbZtrRnK2zbWjOCw12QCmCWGi8DBsV+clD8/M5J3+x1t39/FPXf5pnyJeZctPNomXauG7Tl17IjQdyCdWqNcWtopEjPLA7ds21ozlbZtrRnK2zbWibYfCgGbf5sbgM2RHg1R+mc+pfHtCsp7315xFdSrEQjXCGwwVY7qOUveBfSxX9AKboVlqAU3QrLUApuhVhA0l16G972z1CcCMKP8kogzxnx+D4KPk9IgllC6acvaohRyCZ2zbWjOVtm2tGcrbNtaM5WeE17JEWQtKwpUCjfLsGDojSQfmJPCpHtmC8C9nN3fwG6NLSG6FZagFN0Ky1AKboVlqAU3PnmcqRUsZvm6gSOLo7XGr3zZBpakUQLvstIboVlqAU3QrLUApuhWWoBTdCrLn3RkirbxHsJ3f0XTOFRwW1ZtTgaD3s+UWoBTdCstQCm6FZagFN0Ky1AKIccv0BW+MzbRCTwunRSBcYKkujc36LRnK2zbWjOVtm2tGcrbNtaM5W0Te7fpBj8pCd8qjpCQQr/9CstQCm6FZagFN0Ky1AKboVkvfNXMOpiuYqx7NSdtaM5W2ba0Zyts21ozlbZtrRnK2zVuTAAWn1qeuCRnf0Ky1AKboVlqAU3QrLUApuhWWoBTdCstQCm6FZagFN0Ky1AKboVkrMiHlvjSQ193foVlqAU3Qq3TU7Q2G2ba0Zyts21ozlZxjHCblAYpbpY+XMTGXfnOI/5APPgGWeFKrA7UACEcr/Ri+MsAVUVQIH61SP8y5XzLN6Ey9xQD2g4JtQXwey1AKboVlqAU3QrJrqSMkq+K9ojphg3HOsiTRSPZr2M+wbSDlmriHIF9JMO4udbnIGq0ZrZmnzx3CscBEvjtbLHUHOsc5hhk7ljJs4a9ZPA/gKp2oskxC1FthgT/9CstQCm6FZagFNLC4rWjtxXKRqeI5bf9rbvTBeeYFV/qyfv0qZv+HVAn91LoLfLFhikliQumJmPKIOuHxdacORiPOEwGioDxay1AKboVlqAU3Qq1tnK5R6Q/jku58FIgfaAGx/Cuecu/nMKl45fDVDDL6z5zQKprnV52FRmqEpU8AQxluLxWuH9hyuj+Smf4w6ksQcEbk7wR6GSSTnAuvoVlqAU3QrLUApufECwpwosItQoUvY3FD2ggaGGZghF2cChfV6v7s9iLC3e46J/3YU+iDilijeyYhUUG7B595ZUMdQN5UZRE105bqajlqoeeeNez0ApuhWWoBTdCstQCm6FZagDLEh9YywFibbNtaM5W2ba0Zyts21ozlbZtrRnK2zbWjOVtm2tGcrbNtaM5W2ba0Zyts21ozlbZtrRnK2zbWjOVtm2tGcrbNtaM5W2ba0Zyts21ozlbZtrRnK2zbWjOVtm2tGcrbNtaM5W2ba0Zyts21ozlbZtrRnK2zbWjOVtm2tGcrbNtZgAA/v/+z5AAAAAAAAAAAAAAAFlNroZ1T8vaMCAIXxkGbpbJLA61b8Gr/L7EbglCyT6gAACXrv0XNs7QOFdG0CCXB0Ct62tbu3sKP4qm8j/vpWh+ooKFeypYF141TDAhlXgNvIANu1cnRGOqSDbmtjSE+xieB+iiTbnt9hPDmymjOZEOWfUPKuxnQ1F/gtFLT2EhJipr9uMNidoR1eaPDZrH+xTqn+PMJAj6T4bhnNSlR2mER0oZ2vTiohnmYGBc40IUn0NHe7Nsf2NQoyYGt9fWjCH3+2BYG5nd8nqvKM6orOJ3ChWmqT4bM6uRwhfmQn/3GXWB0oPuPtfrHL2a6My9m8Zqgdo3QQ4ZwpaMPoQeLnQ224JqNmo6CtDfUvqjO/TQc3H+iiEoAsjkj0TprCzFjb1fo8SuhFxxUyhRRmkkNLifzfmlsYNUlMHLd05ucq9HsBOPoAGFmJKiw+wxONEkyZ7Ip+pfr3HkRFy2keAx4MiZ8tpJYVg/gO2IZIBAvCVu/dwDQiYJDqgozQNMGc5LUdPT/FVpxLvME43Q6i22RAAAqqQ1J7JdSFLFxnAv4iRdC8PznZfqL/BaKER7uYpoXea5cz7dNNNSYJXSDo5OQLNrDOs4iKmByJNqjl0g4m8vSPS+o6j+T5bY+WvIX/zFXix7Nd8v00BaVnDt8YvBK7p3nnKka25An0VWErFzWkGdVJM0NoMTZfkUjs0NtSH8EzepKM4eRObTuzWhUgdp91BQPQ5eP1QOluujes5SSF4nSpr5OcJZCR6KH+x1YN2U7DoilmiXViaRxI7IYmHT8xP+jULjFdspJunRncLYDUeB/BFLNqzRNObGDYjCv5cMSasEh1FVzDYU7BU52nIvOc6RJgJm1uuBftV+lk4EmjU0TOSll2oULcUg2c+UtbW0BEyGQq784UAH1zIx37+LKXQwyIDcJQ4wCzRDLxJsONOJhMdb1rzrmZC3adk8477a1iEHSwAcvypT1AsZ7T2yCReAVvlos485MFcVnZc2cwSGEPBzGsoBfNfm9MQCQv0/30zBFIkEyQbwfGh0ceBQDdfkdLuwLz97PP8GcPxhZ9GU/egMvoTHFpZOOSF42dsHLxg8G36pF9GpMxBMqU8lqfs6dhfFA13W+4Po8uZC83oowpcItk0gGJU6kTooUCHsP1CurMtT2yz+lySRIIQqyANyUVKYe5YxWO2YcO5sfHq/1e698E8esLj3s5lU7NGSsSlaXCtuU6HSml1Q/35xhq2LCVGeipNzTBsxGQT7Fh5ll17pd4+inqfDVwHfFP66eb+lzK/f5iXPTUaRcnLuewhsozWZJmb8zQX/ZMX8x0tvrAroNmxscv+L3y0lBc+lFFRHbez0VLsJsHJJpcIIT0Qt38gBtJQLrCitE/qv3GgRhe6e1zfUi/mukp9ml4XGli2yklJDk49QujKEZsYf18v/TrCGk25VlYsoBGEjQZiw60w/lK/9QBwWJO9ccbuP1aSle/k37gNNx5WA8P5cfP8zX90JSV2EVOWaWM08H0b2gOAjXhvZkf9ff8oraPX7oABolN9PZF3B00pJQLjHWKXFwi8vvvfgLvUstnSYp/obkPOIv93yKFYmHfKWWT+Sl2wvqbJFY7fmh0v8ThAz1m0rvPCjBQz92Gk/TWI0yvd6RoLQd/gglEqvm3A34cPQ6QWlo5vAiA+36bLWvxxhEZRLa00rOkNkfHpT/4k63I8Rd5ND4eDcNchYDxXgXaf4reB80AUmlKdDqNkrqtcitkz0feHsyL3SRYs1WYP0HFqRTghsoltW2AqeUFfRyIyKqqikiNCtOfGDzylTnu12JBErp7cUlVeUdJqDCbSs8ZFJVG4rkUftir0JrWxeW1hOmaK0NyySKjHO535BOH6RjLDb0gH3zH1gjvX0P0cp3hltoWmCdfhVbYJpqUZ3pFcUvgysxr9TNe+dVOuYLlagHJ0kpyM2aBWli+v0wOPJUKxrjIeWJ2D1YKyrUN+08WWcfM+u+8G2iCUDS3ekqbT+UBtEM9twiywLFWj0JoWn3Bm1UEUpPwTLM5wCEpxj3joq4E5TB1GOkwz8NDuoQVX9fHsxaRv/AR+97dI4jJHQVJA3QdZripfI7G/XZVlu3Jo2RDyGR/T5KMZ8rOMJRCKnrdNvoiMYeuFi49zT+SL7tdRtIZXbtQ1M9qxRGP6q9ROUDFbtStq3Q0g4fwTwD/cyISRlq3MKNzn9nN0S4JOwUpah2VANpoVCiMaNnSQf7ipVgl/gsHDX9jbAMxHaBHuK4N9Kcn+G/uQCKrJP9HSo8YGk3ixn0j2ZYFkQ+nATEj6PrvEwCtlNRXXkAEPClWyjdth6TU17S2pZpfEktLD2WbSLWaZ+hXKAhIuPkivpFAfc+WNpX72tQ1AnZ9E8AXYHO2zTcB9Vf59TXnlHnLPIBqgaQC09PDEvAO1tR0UrJTPJYVswfUiU1VNQuOkdJFN8NdlR4VUJt0axSqPsnvEmIUmdeOUMzilSecE/BzR5ZcaGadHU/V75GIk6c8+wLzB8wSpMI/qZl/qdNofLwhKmEMGm7LRFtvmepna7qRxNjMHTZV5sZ0CkB9dHhKXIuop8kKVHHzM+kmJ5L/u8k2/qgLaybrnkMvXagSRL16eYjP0Rfo939YXhgBqDSrJ5NVpstn+J8Wg8nTbz86uJVqP4P+d03IYyprES4iWH+ZO+Xe1TiCfv2rD9gNWYGg4QRLCzICQSvQCdZt+NpSnFinLJx8Nm50QQQpnfZF6FPXHbGw383QW+t1qh9WjKwe5wTo4JHzq96U1IKXUGnJHWEnWuDHtTWBWph4rPy+NPVYt+tKx+LRF3aGH57o8yyMef5LZSX85qH7ia/m/XxQI7qJHDK1Gd/TwR7+hYUw/FEXIEuExTdwe7ZUEPor9YWcgazR14MxJUCQVDWypQeUMXARdySJm7kwAAT2WZRrlvpsLbIFDMFfCm7ztu8xnW/W+Mf8Ln9hEs2hCj2mELZFSFNhEMjDZaAThH7o+Dmjyy417u5QKXpXI5wyLHXdX+jbKil4B9cosiJyhMpfAmEvObXG9NIHWCShG85QCZmsAa54Ji7SlB0PwspubtjRwng0DOhj8lMRalSz7QZIsX9+oIRRGyjy00gaFh2qPbtCJxEOHdTbJcqRmx2K5aKIowPT4aGOso64yjqE8Eqy04ok36SKyze/pIwEe6eC6e57jSxHynMV6DjePBDAmh/FG410dFZzXTzHb50/X3QG6+fdFjAEiLvtS1q8GSJLEKc0GEEdXL3DwFBsVcOPzS+ZI/W5yB8KdhauT8bTHvzsS4+DW31jHkIVaeqotI0g9/OYG8VK4rIc83zJaq/07jjj+xGXxOWE00Z5tg+KrOAn8HJ3u76CYubJ7IQOPP2awpYCsvxihW8pGv6QZo1C9WT12+at8pDdCog5Gl4MSdyxmTedqZSrYqADokCkjpWBiIsfzVmPMr3HMTb0XvIw1DIkaDq+lhfryUVnHP0iFywNWltWXmQ6l6gc2QDvgt/REIVG6P9ZaYQs0h/70d3Lwl4/YOGa4iznCe4mkpnD2rpPX0zYh6pWdKuC3n4O7HMJNy7rzw5DF9Wgj52mBlrLoaL/z03LzvICydSOTRdPdOMNg/EVNJ/x+Z10ZbXmizWBdrUdiLycFY8vA5e9XXOsBR8ltjbBgp1qL2K40agSk4g8GyhAaCidz5vUQaTa1YPxzpIuvYkXYAh+LwIYnk+cSLTwzWOdjlFF0zunsoTi+DLxP2NrxPWXigpbTHZ5hSt06moaWgVklW/YQFEv7t9xsdqpfRVYSsXNZ8jw0RJkVagzAZPg7XaBdYmeIKMz/m72TKbs6KXLTwqWQYhJcT6DhZGwLMrlLV2PXwn1GB48A/p0UAr7KlTOTXFeE0cJMhjLF5NS1e7Ghbcf4nisCQelbvW+1c4JHkr3NLoHLaoW7BnSUnGqQ20QoiLH2rJ+0S8qPgFbI49SgowVbcPFvonuacZA6RoA9bEIcLf99ZpHf9r4QTZ3bvodwyDmQT68o/VJ0xM0rqvWow4lBIY7BJ3K0u4s8vXw9q1R6UdAbh7mPW+nX1l31lePJvA+vqd64wJO/xXLnB1XXHRDMtcGT9531jhD8WBlTDJZhyYVoDriMNJyD2KvfYbyAm95yPVqf+ap3uQyOSNRA8qaS07OudQprDF1q+0BZORQwwGU2tv3tQqUoXFAMbXUR/ootTpe/qh7XNlrOpdrpqETJZFWYAo18004tUZaefLevOGf4ywjVdW9a8JU4WcHg3zBkZWKGKpddBXCjvxkiU1AU+ezmMLvWOEBiKmZo2v7F7sfUS5X4CkbvO5xw+D5jM4HGpo3ePUIYa9ykDOqJMWRoW6p/bewVmZTL2gjdgEZTK/cqef5FSS6N5MzOaS3lSYeCLKoa3DMGbU5sBuMPr90UUn/CdAmcuwqoG6tm1WyN9XF8z9xrQfmN37Ua8V8VgKUqpWqDWb49HiGvsMxfvtF+nK7zfuVNu9Rs054jg2DTwY25Wq7UaP/586QdiXImNchX87XSdxWf/EYK/iOWtROJIgFNjUnjCirWqRH+aDngJaA2y3AUM2MdXJOM1VyCJTOK1th+u5dXF60stLtzAX48LVq0dP5vkLNxPITe2wloQjboMzmM3kzD8gRbifJueB+TwWk9jlO5kwYVWg5LXxo87cZyoEAJ0xpn0mKO9DC+M2WN7yoRgODA5c77IYIFvmJ0YzIbsen5pumgVZ8xwgYrL78YSNW9NRdttXDnxrYmIRdO6UN/CM/nCu7EgkgDcgUHeBquJGVenbUdIId9cXg1IQABRaVVpfCiuAQNvgka+jZmDNIwXHvuAbUJvG5urn6mKu2mqZHCmUI0dAfXxp3mZ4RC50AGj3k5jrHKSDF/QzV1DhGSn8fXQGuDlDmkABilBn1YuGtZHEXVR68/LpxDqvLRShQrxz8+QV3UUCFGC4ot0XCtaw8ScQ7lqEgNN4ohLU8u+vd/t4j+KkJ07lnu4YNg5b5oVmEcCa6WJsFqM6svhxRnStoEnwWg5Csjb7NMwajJCcoPUY3J4sDltKKZzWBqPJopeGlJ2ZFtWlE9NErl4197/xHyEpLqRWGJJIAimIm/q/Kda08a+ZzQctWfQeRV55tiftJBwh1AFbt2rPKag81QGotRVHYwvaOT4KG+eA/V9/X76yDE3xsMoEehTWbRiNy66SLUkJdIIDOOWHUTYqdZPX8rX1hUls5zjHX3eG+f/vrIxOOIZuUOpYfPbDhT90EWTv6smywMGWgS49lxQ1+oDMV+13aibwE8HDM2rb5wI4m6BX1kg9KZlG27M7J2kpG8sHrJ39JmVLRKCHkJFzeFOa1/g3FM+100lV6zUn9Q/dzfpBIAZtrvGZDyfZZFESB72fO6IoLk/I7FXsJ27nxDLILKmI7jP4scTNKOqrRNfhjzEpR6rkcg1WAiZpv89Jb6cGKDg7gWGP4xFwj37+8Br5ZT/wVR6nNpd0yKcahUdOoP/152JnoBiu+TF2YbjvyRxDsIN9o7ksPVCnX2vAYuUnR5S9N1PsxL8wHlMNGqnir36QR+OUqjalUIA/inE8KboO/c833vHZ/Jw+5KDZ+M0IXa/xfR0w2iC4ZJT2rHRm17DaE9BiEqsiERckODP+pmrRWYVE9li+k/gtVcg7T4b3hOAp7V3YnwoJgLmGG2TGceIjuOSuv0A57ResqlT28DySAtzQNYsaL5TcO+eqaK0eGkLS2aw2s65jBsycht6CRVP+4TEdfNS640dmCr30O7qQGeiPMlWUTfL9CNR7qYobPDKPXDPLGLSXQUTcKMi09JXo6x5eXaVD13cZeDSWA5fde+4+5mWh5sxis7Ll1m/bR8MiLnDcpObcFq5lcGV0VwCMNnXTHO04XKpQMnFmlKQS9BxX0pznq81LecDAtNOyGv9+5L5H7sqKUB0z54uFTEY5p54UDUrelz4rDgXp/UD1QGK2r55zD4YRO2+WsAj3CQPaBaUxHl/YdfMA1mHB1raqbhdOd8++CikCfzgaE6Du++Oxa1vM/k+ss+5ij+nxBmEVSknNlisupVO0lC45zqWURFsmHJkQzvsihIB8eKs5UaVN4sEwL+cOsz7T+MxPq4PHOEuVS2Hf+hbijpnqnKrpOFAfkqSWlMzWzreaMCwmIH+lLs3hxaOXyZiurw8B0CNJUGwGPzjyEbcTXRBItzIyn7Sl7WyaVFfqacVv6NXO2mmSAxx6GavflgdTalqs7XhmLatKNGOLb5JCdZhd/N5R1lq6oJFJSX7qCWwP62LivSoE/XXNclqCCZ31HWKWaccREt7Tyyps/MS3H21NTgprAfKTvs3DDK5i/0Gcp01VcSEoTgTF6mbvExL7I9YfDhzHzVdPBCqC7SxmkMAYj63yEPwO6KAjTJhX24m59lGiC2H8BNSVsTLT44oiiA+wa82XDPAKx7sncqiK5k1h73fb6STw5i31+nrmlvkvPOYS1H5+Ov46KwaasQ+AdcAC3/4mlVtKvBae29EQ8/fn7GQothLND/jkpyIfZet1ejuiTHj+cMN5kiAcJ6hMRmDrahb7U5jizZ9O5+Z2HY5sle+FSWIUfy9eqf11oiGq6oclC4xR8MDU/iW+lMbE31XzE+LulQstE5YtQKGJtVruT4mTuflyDrl+UAb9wpWTLW9ZQDVvtYNgVfeZ/pBPCreYVQhbKj75tGGBQ+6H5QWR0orthsrKeDAKBTeSXvxv4awFlLqnxQkUMCprhVD9fRTkT13/UVXqB/3g1NxR5yz5R25ULP1tBWO/0JhN+r2GPtIw5Sx0jYL33hTRCtzsrgLIPgaHQ9gNQtSk4VzD6wDv/6jjQch6qiozhvp432L6bKF1SbY9Q6BvLdsxY77RWsMPxDrGKMLig6PS+F2AWaRWQU5EPtlcV3zniNFxBkBkrguO0Uog/7UWJUucRT2f1q14RdDfMVQbSgVX4bLZkJEpbegoqtAD7LbQgQh5atF0nsroNUAnri6104HmmyGHVfPJwINfcWJkadYTlmBbK1F2XjhJODIJ1CEVFIyxCOivxdgToAbuqW4/S5K0FEw2f199gz/6xxNKxwtWmG0Lwj9n7NWS/vQSNVbntdQZGrrbXKwA/PM9K1PGKRveHkXYRXkmcvgSLNHczS7RFyjeTqr/rNVb+PNCNNu69/jWwU9eyZs3fQz4kX1KkDboIW+lg2mEdu594FkS9cA2yt40i/IcfeIfAlQc/wWDdfdVFmrXJf2/qme6pfb++HNHQE1PlpJcdyKACx32btxfFj7iXaxCXq03uEw8wEEXASk28BE9gZAESO5JkD1wdy+A07Y/Z3p3kxmMYywIKwxJJAEUxFyiarxribQqcgh17pxw9dmFd5eddaV6tYkhlmnH7PsUvL1P6EVJ78VIA0nFoZV4Dbx/UR6CIfr8oeEyYF6Yi+1gGEXLDgcKj6BgS2IEeDDdL/lyax94UF8aGJoiC444+BbeVByx09F/VarcbM9C+MnE/2Ra+rI4oiPwdtqiejvjZe+UPVfRLCTz7opYGV2OeDJqF2sQtiIUJQjk51HugIiWNfinnAAR0Z2YcHcRYmbskYAbp6o3b/SIn2OaI/WqenN3HIK8XmJo1drvtK5ZBwRZe1ONA+X38c4FeqfGRQByAJ+mbU9gh63NiO5w0pknBAocZXjl/6ZKMyz7FlXZsfuDsUC73QgMr6QG6c+z0fs4uJ5cjJhmB8wYMp1mPzGPsv5O06oIEAL3dl9i/P90D3NFaplmH2VEDXW1uKK99oGg4LVE6vm+4FYG9BSh6WHWt99Ac15CVxi31gItcBBI8CIyEHHjD7iKWVKnK06oF92XPdj5x9nw3xBJ13VqU198OfrqsPAWebYF2+BGdZzX3NJnc36Mt8P2jixzx7eXQAaxYMES42drsxhv/4WUiPvr9uMusSNTpp4RSFpnj8M/u45eTnWLyUvYRT/KlQcrbcn2HC+SDfc/lYHl+AaClr0Aff48Ci1F9yz5O5ApPYS3dIhRJqVhyGIcWx+uia8/qW6WBcyczludX+SsYCNeEmwFFke8abR1hA/7TvUmYKJvALcc5qXGEKqq+xSgCTdYR1IqJo5kQ1yTzK1QlxlzkPsBZHsxXtaO0VDHJkhmHUoqzAT3lbf23afjEJ2m4yAHS02EZWzKI/L4Zo2DUxlLTzFUOykq+rmcx5+NGS2Q4Xie7l2+yqbxhNjj2zp4W7gD8cYecz52DqC1TTt+sNoOfM1UKSEGleVK8/ForZBsVCsuFcU3yDFe4OY1NVyRpq+W1pQTcwnL3hbRtVnmdtmWF9fpawqUUAbOF0ApRoZGz1qURaV/gycaIekHKbBLUj/tWXqKFMn8x7j0XdEOkyu3CMRutgIJB+VgxqRd625hmcKhoQeySCpbzz+Bu7K84HdIBYRxZzrHKD3rIftN/p0S6UzZELk9jicyTseTZh62KgUMMj4TqXNcIznw6Ef2gs0/D1P4saiLLZEeclIkczCynJcmtw2AITzpcOKFs0/ziNrjE8OTkrGzNAJsWkr1+yJQhqb9fbZXFozTCC3iNHZUmvMMSFusOxhlFhDX4MZK9vdYmuL7cb7f3SmItDrl8yThRHYlbk+KEnzqTRgTt95Vcm/OIMZGfbWsdVl/SSE0f7AYT2v7bYzxbyIVPAp/bs43iqJfENdETZK98KTHkRRXMkk6Lk0hEwiw8/Y2CpRFC/1fBEqg6BpTbAB911IAfeazZp9yBvIWJYyf0cWnRdqUzaC9IuQAsnhVjme9h7wYKN0Gwpbgvd6LR5b08gdr7cxqGCw8kij0Par4weTPY1w3aXZx/q6GK2rSqgOywrAsXAxwNxQMZmoBH0kp2wf/iwDvh/lt+rHW/tHqzKb+MAaQz8u5DAW//jE4yiR/k2n0kYPC3n8ewU+/ygu7kHZB6p9ENNPcQFh+i1CwtkCIrdiW7J9N+SP9T3XJy2eI56JwDGAG0U/7ZJhzM9ZCpdAKk4QwJGL0niPHAb5uotGlI/tFedwUKlu8zokhg87Huh5SMCxh+bxEWJM5BlEL+mzh0R2FlBqvCfPubkamlOR8oKooWSgZJOqonOMQquRIJiT76AsdsqT3XzdwhnB8hcF5WH4wOyaAhbrn9+YIddk8h8Is4eVkhz9CGr5Y81R6r5W+cGM621VgId5pPxNg9jmyg3UPDThJSD/+8YFKHCi++ZpW9u08tLm2cDiMFZFyg0+LqzkTmv+Mt+uZbrK8w5QUxQCcSDgic7mGZkRRZVnAyffMKNj9A2OWq3yVZ9bu5+zmsashOlPINnL3MTzo+fnP87q4jFgYGOBN9izn9hS+5e+2GspCQV2BooupyMIce00NAgyybIGfivc2CxsqtfddjgD/UUS5FbhHJJAUUJ6v3g/PJaqffKT/HxaCzKPU07voARM/4B+DfPbgzFxtpbnQc6xypxBxSz5TV+Aa8II2z7wJJ3fu8KvuC/Ymx2HdaKw37uz3e4cYj7KGMvS3uHrOOFX2tHiue1KsN/Q82Qez0kz8G2lqiWKgW4xa1eknpYfBUC6Q/dFP8z7IT6A5H3iRkZvTPOuAiEL7w3CuH+vFJK5HL/B3a6mJy7VJTCL7zQG6xoFYr0oHr/mdIXzVtC8Solb2t8XeykzrjcJHx17PJDygK1j/rKB9ghIXtNbtxgB5Ee0hiMmvVAcMD4E7qUqaqd8vHX1fAGiM37RdUz3T85dOGmm0ACtpK3mSgZyy9s9c6UCEp2/MnhzcmNfkguRX/eFJ7ZGJsFDJpZ88FFo3KojelIYtTUFmv4LXq8DZqUSyDzw9pcUWKErHQPBdHX94K4rA0ZNxWbkP6gU/XHZmx9cyM+1gHx+VXFLXKoomh40M5aFKv3xHpzxlvavZB0gPzFdNLSvXi9vk+u1yZk0G0k7zviJ3DTVi+tyW03fxb+L8/K/0DXSizz53EjgmbiKNeV4+6uwvdmMhJe4a+GtIwLE3h5yRyjkdUjRLSWrouwAaqNgpLmxfZA6Xio6egnXFw6ir4MMjUkYsNdRzYQFNNm9X79jLNMpJ8NTpg6h8H06ZxOGKJ1mvxEdeq+QhxhRzxWORi85a6T1+7KImW1n3nrfE9HTPn/yJxwPLCRR3mJRVMkVz8RO27wgbK12Rai6s07Agmwxy+3x1xB6/d0AO70TYariuP0ZSdd6IocBQyYqm/o4Vs6dQr3zSM2/QHvoPM52C2Z1QWR+jfa6PxIZE3b1zsfAd4eUXIcXTpPSIVvrFd9pCiNoVFrD4ndgrhWEwDLYWjn0joeoCZ/olcQDaRp5R2VJe+fi3UZ04DxZrZlycZkOOf2/zxqgwH1kyBTZYUIgC/Or5JMJ4Hw4Gm1cpLDQkO1I/GdTlH2gMaYcsPNO6Z6tMEoMczyxc59O5fkuzXjovdozy1i2rZnyA0+kLIKt+VRaFV4YC+KBTYx9+5IVKCq/OV4QDVzjj3ynAIBJdHvDuOAVfAc4MAbHJC0MvzvimRUQV7oOX4VqKWmrz91tSybUxn+lBBSnQ6jZK6rcYcf8SdfEFcYRdc3M+74WUIu9tCTF0TtRQAaMTXhPIOWrPoPI7UWvROqkKRr2sxa/1+Wkibs/ya87sLhuGA7xGjNwpbVIhtQAU3korOPr1lkZt0n+MBHr9Ca81nC+sxxjyYYhh/BoMMaNJiRFwit2R+IALD7KSsNbHGeS3Z+z5QgCZkRYiZyBXUkH611mXFZRdxDMPv6SOcbzxiIypZ8/DLYayZs41GWr7QZ8IOgp9XcjNRhEC5M5M2TU2amnQqhPZs14kroDa58L8sCcBJWDfQtbVO55Y3HwFIIHMUtVKEBaCZmUhNm53ZJlWB+1d3dx1nq30VajmgjoDLfrUuh+voO/M6PKnk/6sNK/eA1xDnlFhC0OGJHhphMQPEhiUvidjhNE2xqqQOquUz/WEWGB4+qx71sJVnp6V9md2Emq3kAxD7S8LyWUApm1G/tItjCde3G6WEb9zEz9THYPMdvM34JzV+zbtoRsFCxwX7aQBBUespcZJpx6VxH5rykVkIB0uxX1Ws0gbhAAs1Lf9YrdkbvMA7DTmT2Baoc8zwx3hTmLUbt6pPBAxh8tGBDaTMKfSOzktElXVi26jltPptF9V5mseGnQbWINioVlwrim5oYLudgUvFA1AIZAD7CrZHQevTOoniS0F/t+rLyim+p9A++GmER6ZG3VsnEI7VWkauxNS46NiUdSOD9zJU2IVQyj0vmfI1vKczWULMhmrA3oJnHYzMhS5kk+3KzcNTnxJyDmKEt+f+Ngyb8AHOkbMmKF+8Hj3pFHxopG6ReTobYHttV8UeFZkhiG87qM/qXoKtBVplFP2BPKRhKjERPPmi3rrrFB/K+LMqZp6C16U1IFr8dQZDFOuTGMnPqrLOgGNAEqxhSsFvy9spS5GrGK5di+1WeHZf7UzRvt7b8qZKE2Aydds+b0J/KNK0MHgV3231DOF8kumzSqlfgLJm1Xu+Seggk71eu4ghWQeonPu8YBkD8vUNH0QLnPUx9vKIToZ6tTZpn+xpl77NALNzE0gZ/44JMGtOkPPmWwDDuJfUWYdOj0JKPSQp4U3ktz7KRE12mK4/5x27OIHqMhFgTzI6h0csMBYwZBMhcLzE3akNqQPyVRiu+25IIgG0AgrrJH8qNvJvqtjlkfMFJNFHQymwQW05E7Jv8J0jixOylMmrDvCIwsMykEn6/BuEyYJJghIfx1csPXVv9KEAMca+n0giai46PgJbAqPIrAK0WgVoiqnyG1N1GBnaKHR6ySMj4Q0qQKivAx1sOkrC6bvvNAuaZmHubWg4BYqUJ4yk7xqh+QEUCtti82/tHS1x18hROf02846o/QDRVYDnwqjDXGQP6mT6w4QNF/JZ1JOlM5g/tj9CunEmI/HEGy93EzB7EHsyaiLns4KTEf2XoHULjOlYRwS0IL+H9XbCSd3fuPYDBw/u/m3AKF4qnYeM9tuAaVe02bmoCxWXR2HqLPkJUGoHY/LNTWZKfQssBWNQdxcFelKMuZaZRT91XSP85XyiuEhaAAsqP5G/uF5Oo+8K2Y5XFFauFpNiRroYBjOLhEYIpirbxKcF7aFJtdXzKQV5Yfha2qHWjExG4JaQdy/if8rgfJ7odc/uiTqAXN9uRZthdlEepx2zjWYC/r2Fh2UO6fPeATeURo1WI1JH6bVTw+k/o3xtzXHmPYuCfkj8FHHESa3LAg/UGDoEbrBRhbYmoAtpt46NDcLWVJd/S2wQjEBfD7U7vdPJjpZFAGbwshZje1h0S+bZQ25fvVfvj13hHpQvL0ZSiTDuJBARTnAAxdxc9lJ8MCUoUKfopAJagI2jGx3C1ABnClnzkCX1Vqw50JBWpglfkYF96+62Y+DXi611LYTOhm3ODNsMC1sjVq02ioBnXwuQt+s5ECBps0Ltlwl1pl/N9QaOXgbEUAAHxzsEKJFhyGby9z+I7WWura3G48/GITtNxj+gq8Ik3NgqOQUP5MQjpmqlqJukuX2lH4LrwL3KZn/eqXL9agE2be92BKItu+fYnobukci34VtC+k6idPQMKNfgKUuj14EqVnFicJc7zsEPnRUCjcx6m4GleUjhJZ1IGq35KVu2mpoELdoUqmZgxdReXU4hp2e5gy0/qLM0sADUsOat7O2ZWhJVh8AI+bGnuS6pc41qEBZc5nx99mJLEnix9jXf9iPlf8h/sk44iR6jZ/Ii6rgw7+8YVHtRirv1jT+tuQaP/m0rYrup6T8T03wyJK1EYKOKW/YFgOWpZeLrJaNW7DRJP/F/u4GCW/wI6NTFaUi3kB/jq//PKOwbNQ8JH75xldQiwoEXg75kxJxhEG+3YtQQ7SjFlEhn32k4H3uCv9GQJ9FVhKxc1pOQRoodu/VyStjlyQu5mFxbUZN50MeoXHVgA7F2VH8F9QQR9bGaAqZjH3nsX4npLLK6xGSELkDZrxJoq65QQF8OP/ecMmKMmqbo4hatT7UztrQRylKGouaLwV3L2cRclKsP5R72i1W8Egf1+NWyC8Ou4y6KVE9B/R+wbZvU3Thr1zoDHwA65M5/XZaAH7fIQ/A7ooCNMmFWn8fHLzl3TI0IT1RwsEoVaH033FJIfXAeD0rNQTfrXLVssJVj+I0JyV6b3PfmINQ5gkxJdwSuMo9T7vbsliAGE3lLycUgH24OCSCYMQD4bMlMGXtMIiguyQBsuO+aI3kLyawrkwfj140AG5qUUOxr3ZvLcz3q7VeL+f1Wq3G1sgqSQ0qS471OdZO8sFOLmw/26jAmsS9tbwKxtUA4kJum0lpf3DZ4x+t9lwDtpT40IWAeqSurq1TETyebdkx013flR08yG4LVYCwhWhIuFj4ZxYTYutymy9wTzKFfrCU15uANFUr0rFScJq+H88ZnYIuGUOXEUq4y+A2Fe8tIwXW3lw3aYwB1i10A9tcngNXA56C+gmz9Eooa9K5hJTiPkRx1D5qNhTxNBJV3Jv04kiXmPGYkOPOUKdfLb2BQrG07UDEn4iP2YZrniNCX0/d5ulewB/S5S7IRh2CngHHpwFJaHEy5WCfaTLP8SdfEFcYReApjeNwV/2ZaPRV6I6jgw27Lja18X2z1K2E6lglWB6uZpYAGpYc1b24mC4U/F58xuLQ03FY+ghI01t5e1cvANRC/I25jk4T+p14Kd/oA3J9RHLJlV+bjW3R2CxuSS1ScXCU7428jI9kHCGIJa/7QVpLGFLGnkIYVxhTQjWKJdAJb36SBqRP89TEuZroUzveSl/nUXw5KPQ+DhvRnd4aIGT5jO/k3vJXirTGqZW+UrZF/mF95siduGcnk/5M6t5rkuoZDt58SJS+64yDFrtlQP35hP8tFEYOR+vlBEo/3jbwvDEVCWh1P8tDM7A3AwkuPdm0kukAPzHsfdfu73lzrTtqjtDa4hzyivIKqf9suTOnSPvqK2wdeOpWyAK8mSzD0b9jvWsBHuFdlHKc++/LMCiK6U/JsnEgBhMsGO9SrdKC21MSDTR4Hsmd8b7QnZpvvFLJJpqnfyTqMRA1h5+sPvSeNxyYD+bk/xTw1IjlVBeYKpi6Oz3K/AeFkj1XSAMP+lZD723RmyChC6SplY0PEplOhKHdqb5LggpQzZnIIPxEZYTejF2ilDqGvJTKsQaTPA7MTb17twD2eKf/1JsE1ybAbgj+LGKYvQHKLPlC7wMM/s1CkN46Jor5l5GZPRall70fSHOZeITJckTv09sFhcmIwCQxaiLfZSaxWXiTRWOph5LIwr70M8QfJsle+AxSJKtIa51EFlQqNUMFsyoTWy8lMlnz8MthlbsyEAIrvEXaOdwsHJuBls8c7ySB+uk3UNQNn6WHp1xgx85qmo0UCbVzqJwxwr8OfniqeNTk81nU5/uRtWvOip8RhsTY/zJWNRHowBCW9tkGEmkHyYcbVdKZrvNEqD2eP1DsQQieTAzQ1moyz4dKGq3MZnv0e4lkcYJUVuVv3P+Nm85GlM787HRTuaf+PKLekSaupJldqQiCYxd06Ehl4KeSFDzTgDzarfVTLhV5d81BBuHxksWyejjMsrJRnVhyJHPzRJKW3kHzy/jspS+cDukAsFnV++7ZgN2WDqvTV7RixKzRGvcTgB76zr6YKjhpN0SUP0K8f63UrVG8kpOfP8ZlZpKk+WDw0jwBhVJSlHUu+MIaoJ/a4kUfDeDWiKF0Axddjf2aSxiTVZt6bl4MUi8hYBaLSYbjuB75sFz6iL2U1ePl0lqNjqFAtv1P+fT5jmaMQ+BWhQD5rIMrmcHANXEzE2+EXtr1c9PDZMZ0WAUOD07CAS/IsmNgGfJKUlBzrAQZnl06kCudU2SoVk9EqcZCBxTKduZZu0ODsiIXPeX1F36Gu06e/lh44aKUigWpUYxU1MWeYl0sMZJDLuj9NCjt01sN5TvYhKYEQI4rDzMJuDV10m17rs6evjbsYYnRB3HaG1xDnlCqCiKtIl44XbB1Si2zRmOV8zziYvExaNyteR3DQAG5x/HDEkVcJlPcsvtN2r8ZLb0IXHhZy2Nhis8oCcBVOM+gahbE6NSbH7kmz5icFP6cmzLSSjAIbWVEmnW4blXyS5g7FDewuL5ueIpvsYR6NNzht4yYS4k0I8eS6t8K1VAuCab4k8LqAKszJT48ZIPQh5Sk3XYbxiLw3kRoc3ZCLguwQANLY9yskHeoqJ5RU+UrhlL/Iy6fW8/WE8xf9FjugWWKxASUe9F2qbpSORCfLoB+xzHZDBmWkzI8lwhKv+2lZwV+5aFBICn7PbpgBP340bt4KZ0zVWc6YuvCuv6Aho6GqLaami5SrF1BRjAESp9Vf57G3PxClHKmoV44kcG/SGaUsPOxrxK8tabXpXzWxsUhWIWB0mhnIMsYhW0q8cm+W0LiC0ky1rP/Xo5mN3rk8mxbHMwIxNykFDMMdM6S4gJvgLvZwyjIKfusMdDLPbVHjhn1y5AUGQWjtWjK0y35nDJf/AnwhC4KJfWAhINEGRs/8gClpAL76Cr7h20vKobkT0YagNiDDMS8vyfJoFZkYvT8UM2ddcr/spIRqdOWIOdzL0om6hrJfl80rHGQ500fekIoUbJmBfch9l263CaM5w6xAoZptmdNlYnyL6jusey1vh/op0MwX6k+XTLwzipqw21x9bs6CC/PZmoeeMLX4q7zSVsl6SbdEsFDmTQl4xRW4HIQKkp42G6vxMm0BHnyc6wxZ/5avdWUNkY6BHPjt4qrCndlHXGPC7bKOmyOdQ04BGTYIBbb5gqDcvHk4cndf4HPfuTTreUMJzJNLYDNJgt/6GDUq55P0VDHJmDIzbCFYk6XShuz/yxlADKJUt9EQvKCzHFIs9UcL1kwVGETOozRp6c0VIPdYiL7p8gbNjfQg5UpMdK60zm+jpfsgIFhPkX7j4JaGvCQSEeV4xcY29PIe/7f+d6g/gPWaotD0aSYgprN6xYnnI4tmLAEY8dDbuNdnd0gYMTj0vJTr9LlyqVo8wSVxcmeA5HtiFS+0/4Z2iw8jeMXTNcGOTSED09rgAt/RBlhExbcdkmMttBX5uTR9uDaRU/4zONL/ZSYHp8h4rajd1WLtiYxbSo/XcPwYM6QHCGAJosalokysmH5/l8Jn7VQSH3n0rqZhHBBrcR92zsyaCOq3Mlvk1nv5iWimc6rPyXZZoBsigHzhZV+PKZekcULBqVadd+RtNXXbgWHyxHRQ6JAJBdKdajMlIVtBUeM7+glUscKFXrWvLilquqt6VulE3YqudCVBTWEQMFq6TrLJ6B2zyFYaGD/DntqReNOe8iRqOTZp7FmjKxKqHwHEhLQWZR6mvfv42EniIOilXGnF3ZWV8M5KNGGS/rf97eFyMDVCVPmXxW6XaUhYwsqoNp00mkB7Jlj7AZWmiePv4mahXlYMGZwHaF4rRoHWsfH3LL7LcLPv5Qy1Ig0sfuHIkrOqUgWQc3IImZsR5mU8uPPpMnU9V6jE7N0AvyeVoxEaE+bdvfjf7yV9/vEB7NJTMQNosnEQIqKkaZwbkzVVo2+Ou5e6MkOosQ3ZyTce50hnn0oSTPqohSQtw1CisfJkwDejUYl4f8IQeoT5z3MA0XGkr0gboJlQWEMDglO5UmXY+/tmz5s3LdULQOwu8HjMRIGjdaYs64j9ZVAIyL3XKE820xKAA4r7jOx7mPPgiKCTI5RiqNJE41Y0OF0ORc7PCPhFYFdgBsYRd/bOkWQNFRiUSDFTH82EBYUXmNhu5U/eIhSKK648P9TxvT6KkI5o/YVKkV5iUlGtVh586qoMIA1urKjJZKtr3eYYmpxesQ0C/PIodnUvERykW1a7wGSXQb75jbIAn6cerldM0f8fnkScjU+W2ZEP+Zc4emv0dy20EL8sQFVmUo5dyXWxL15w+EVX3Ju62TFy4Ij6Yl9JuyIXa2bOOH6YwdzSdMnwDonxk6aClTwfSzEK7l5w47wpmMZxMfTJXg35ziuwK8L65FbPCXmDM0hjqVNf/cpZu/5wSkhNz3Edxd5cLYh1CLMQlSqQM/Fe5sE5Jk+mEgHmTaTJKeynZS+ey6Ekaa1b9/2z2lRVnM/SrvzrDOvYuyAcn6OhSIOYRaSgD7+k4z4soNRHEMAxx7YMoEIAZG3t6/+UQyLc6nlz9q6zieFNnThZKiX8DtrZo3UodptF4nSPzRAqk2t0aZ/mSsah6TlNmwmpB8QchQgq3wKpm2Jf2QKRkWN63/KnqdTDPTXk7qzoPVIAAAidGAWdOHf83rR6e5BRU5gTH/IUyzTznJHcW7FGWhHg+MAyHiMkEiQ84RiQk87HJuXUZGQMZF3BgB25/3rCSinuDJlCRblmxuZ+x8buAl4rSALW9pqmz3uKhWajkVzrmVfcLDydfxJskws5wYnvQC7SCUtvNjS5XjoCKht1+zJTEJJyc8nbtAcjR67BwELNlIgyhuzLZo3diPlJCOJ6gyK+KHqrSc9U/bs9C0TUBJiCN1GIp/I7y/sT2r8p1rTxr5uj3cGxOk/J7Xva4TZcFbDxSCWeOGeR9kfgqqK9ymvuhOYo5PZYWtAcuZbA8u2zP1hJ/GEGvpzUdGYYTMLGJSky03/KYeAR75gUTq1VqvLLnQmN4BoMeBV4F60Y/cLEOwjembjhVslj8gHRUCU6KjRV0ockGW0/OFfZa99OnPc6U0e3CYeEZFJwT6xGxIZ5s3CtX8XRJ9TKm3iuyZ23L6/hZ1+MNsXm2hDue7EmBfYC1QsKfOPD3gcpyyyzY32DBUVkglZjgTXMzCzlmjZiih5BGY+OKwH2cIE+X2iy37X9YY9X7BZ5JrE8kwFvkXd2BiuH292DMaihJ2fV6YkAjAycrjxOo005HEXrcrN0WYLLNZU/OBf++CbdO75t0ZQy/EgyPERvUcQbVeTjxHSBBWIcjpx5eofI+sHqzcSh1qQjtOPUlUykWnm5D+28mfcQFBLfCO3oApSjpQV+VqLHLmi//DbBUdBO3cISvovrAAsQfu31yPtiVqIdbNGMG82gl6D9w71mijDFsaKVTYtV0zPaNz1dtxT2XqWcOAkkm7YpHJz/Hn5L1hdtuCOe8kXyV6GEQ4rflYKvNbk8a0Yp0qT222E+hFprU4BM1BydMcrYZUu8LX8UAIKkMjfrca1dPNDgXIfes+Pe682KXOq06MdTY+UaJ0eSwl48RX8mCxIKrNbCY46tA/fAeQSSrOL70ApIjin+yBRiWJbfi1zZ/Xb2CTqtZkskj6gUbOhsgILKdDsac0jbQKkMIgJtnplFAa5RrEVY7mrjib/EP9fbeC4BMuBHyz+h8XNF1fObQwQ2YJlsBuw0jExKrQkivE97QU2PEHn3RVIcuwd6d5MZjGSnVxDMLV/uB8VyARxNXR+rhHP+kn3RYkaiilkXklDKAGjZE60DIHtoBhcuaCo4DIkA4ZrHir9Qi5CFzpu+fd9H0b5AYwYmbc3btjAQv4lFYG3fbwmjSxAkZjBepgYd/24YXe9D5WPYYnjpfclJF4RchAUzRXDDcKKSsgnbRdq2iDShwy5P5SSrcXpIrsv3UAPAz0+odQBqy1frgzjbMH0q62n7KuWWBihD7b9Twp6CKyzDg1GqhFAFlGHF0M7eLXWsdZglshLlS/WlqbPRMnqqjRkyrnrAwICnMgOc430sT501XZ7jkRhxeSUsPxug5OMk4/xCT7+j1/yomfLUfZOqe3OgRnp0hUczU6UTGjj/z+EXx/yeswKSAashidUBpAvVrE2MmJECTI21kG3WaF9FV6AbURxW8cWgaNKpW7c8JJEaxu0/VxydSQpa29TQMOjpaJy/CFFi80rBS9mkNJDmGOFXzSwwfZ+udLpWkQHeoIFMYpAWXh8jqvSKJrNtNyOYGERlvnHTRhTlLFdoMdQDqC97cZ/tuVzJq4bEXUuloEb23WU05EJ5xpwaCA6VP2jLebkeCYUO6i6Ns0J9dDlFWoZTuCtxLPEgtZWarP3TUpIpKFT7HU0vBA8sg2M/tpqf6W+6TB23iZxoavqA4dw4fLqLsNHxs9F3WFfU/5l1OkZ6EtrGBkuTOxz2I0ldegs1ep+H8ELLpV/M8QZ2LFYbmByo1qR5sE7kR17AbZhVE1kcEGOTSeyLw7TSH7QxUu6gZIPUwFJE7nBBdZitfsipG+e2GRxRjN2vosRpSfGchQUXOWiZprvkZPUGNdGlVWLIfZvM64KXMZBRB2y3iOCVUr5RWrH4ZJsIvSvmiHX2ShF8Nq/5QHjL2fjQ4bwXkffsSr5OEtJGcS8hzWySCkGR+RtJKNbMluajjHGaIEwCaLfMTLKH17BG87XSdW7sCJwqtwQMB/oVJ1wwrYioQs6FI2nKdBbuYaHghorFS/BvsvTEhB5elvC3DZlf43LKGztkyK2HyPGNyyh9Jf1JE6iEAbSYFpvYimKYqdFLE6TJMj4B9eQcSdW6bViKif6DAvF1pmBjzCl8j0hXYGA4KL8MfMUxwIJcMVeqse+jCydXI2neGqZfeGJW3syL34KgsrDw5AxhNPYBJZY8xX/w9CL22SAwuBf9G0lDhiCPN7SiY+6+iv/Zn0Co6aINDlDlE/m18K53jdWAttw688ef7Boay56x6tZdZer191Kw+UNYgO+r73aAAAGHT3Zoj8I0gsphXtHFhCG4Ti1ml3pbG/WfcqMcB927/e2obo6Dp9tSaVhRYOUvaGJwCBTKIMiTvel2RAjQ3INvZ02xDkQaRmiKdAI/3TtwdJlqvlXO0yXM4jDm5z7ZOfdPSfa9JRATzTUBIkvtTYXipxM7V3vVGccrwQd4n0sdq3DgwrxUAX6KlOPfC4Qr/6KcA7eCpYWB24Basa2jR+8OEwd87og+AA4DOBH79rPKZi+bIn+8Bm3SyxGz1gwlfVhHXj5wrZmn4i2Hnzqi+K/JUhzGvwE7b/rhUfZLrSI/x5a4CEen/XU8qktxpQr3rCGB4OennhoetNMF0GKHH7emMEkRJ1TEezBkV8vI2W0UC4VRnVdWRzD7H7OhLvI+oe06KqiNYB3IBnrnZraZSF2hBGmTbHHft5DLOqfV+qQ6Flr8sSOo0Zff4tNd0reUFet3DXHlIX5ETIIYb4D0eTuKkPla4ZMuwYudZwLMv4wwUzMrFQoFCyUDsrMIN8TNLtu+TP+StqWj6lq2A1EbA2yoqpIugZJYQ7MleU+LOt/wjUPQDXwAL9lCd8Wsha9hGxKDEJ1K+FRk5OwrshmKSVwkwBZHoYqHzDDja/lgbWmgMnkGxxrDRzsCoxUSR8mEYd8C2Sgh3GQ1R+jGdIYjpCT9reHQlSxofkjh5K5sVCxh6SGhqdDVLgZpbQ4CT53qN7N0s/e1BTZkltAT0EEHCtUewTqGR1wzmrsix1ndNb0LZER1aHN6vmZKkcTV1m8j6g5AWIT/bHN10uc09Nyn3v9DwkbXxFCjMRupL/k8rHhunGFty+vBnEJQBlAvF0ev3odV1LwRTTOXSD9Ft6R3cX5eNjGeZRo1Dn8qQfZ7Qw8FY89EsUGKq3QpYBSh5RAs/iH42RxGJAKCNwT/vMa/J1gKWDf3qkt6GAXVf8r8MikJ7XxGVF7EdyFB0ID5NrKqSIAX/VKvbeqFIjj2sKwYf9raF3w5YyPvLIrSH5uATRW5K2pTKyQTY+xQpWue7S/3DnqK7iz4+og9hSpadKrO3VMbxTUZeDPUcc7h6/aDmG4nbk58pl0kc6zrfDhMJs0zH3pRZEB6G3SGbzKnajIls65Do0hFfr0OphNzF9cIeTNW93SCtyYOcDAoGqgxWDOEzmHwQ1ZZxQqUeZna5fFYavBTrKTDPnNlD7jvb88qUJ4MTNB/zTL+iuXTPXQpV3GlHXzkkrAvmRKTZXbQxwqB1zP+5JoJKXzNKd3Hc7emG3UbZ304GJ1AXViyzpfvEiw7zkOl/uDv/Rx7I6d/e4x1AJs3ge2LkCc7CnHYa6FYaC2A6Gs4pDGqRDIv8O0g8CyEnpbfbet63zTCMohLjUEAobrbWSbjnEJPJDjiy9jAM3h6S8CIl2tOXdHTpfdY4wrSQEHib329iaeuw1knK3RJHR5bBbE0H+bTR0cmwpLLTPJLORuCKJZ+iF7WINYYyvIAriKFDz/purD/B34y+htC26K1s0jlFrvLnJVYKcVk3KVq+5jmJPYajT6RgpatERUJGCjTc34rzEW2X/Z9dJR7izF6/BoJnoLxr7+hCH73k1tHzjlthGvkQg6OM0Ej8FonQETIZCrv/6ftxQ9oowxxg5ElMuU5OeY4D5wPqs3IZy2aLgfVxi/9B2YbvVJ/dCiasL55oCNsgXp0oyYYFTgwrJ+arbB1jVwD+NlGJgk7/29V9Wyo9lDHJmDIzRDYdE7lB89SBLbG14TP3scRk6NKvTsPlh8yh0UNwC6arazozLs0SYfOcbIN/kn9YXOwj6mORo/qmkL/9pOZ6lt5rcM2bvKU/1geByJ6FMQJ055ypsoRE0XMCdEyiE9PSdcFyVZMWXI+5ehosfQOOfYFOiiNK3olOWCio0dibJuNJpODmEyTkD4Qg0xLa0uHSPeSJLK/vGH9rFdmuaakW51wUUs0j2e6l7BQWUIigWSGAAAPm6yhKqi/SNICCG876EqF7CaRqNZ/g29LTTfLuh1IswmAHp02McsJ1dsCDF2+OWMGx+cLCWjed0ev3rrNBBNPLLdHFpESjlrFQMLJdSD11al4myWNKe4U+egyysD28XEnBPifOFCdu3Q//xG0llRA7Bb8vaZ1BoDQ5LYCizifR5zWHtilYqKan4g8NgDDkZ+FwimMpQr7UH4aDaSmXTDUeSo2qCreL6QTeyq28J4oTOFyPQdlFFmHhHroM36zXGoAMDRAIuXFgs5NK9jRluahckqADavkR4tfM902qfR2sHIRo5jucm0ZamD0j1oPcZNlk9gS37C4H2bzOuClx4vwj5qZLxnv8yrtYhkb3KFWk6p4YJFh0qscjHuM9h88Uv1CYJS/o8gPEYFQxJOehJs/WkFcKBWpIbX7nBymTJPs4UE2X1PfshU+PY3PlaZRjCufZKkMDqFhg2s6H4bbQdVXM+1nHknAbzo5ILfKYUuNIY3YsbbAjUW/yOkEJomO4lyJFQfNp2Q7gyrzX6j2s1g7Tkzx2JI8P7IGn0h6yt9r0XkGIcxHXyWCTuTnw81wzRd6ypYyo4AeLxcTgIoAHn8gJq6DJhY8tJnPM7osFECM7ZYkxz8ex+LSz9hsn/emkOkxyr3VFZqYcOzjMITnX3eHi9eoZgTAccLYPSjkhOPVzIiH8LNwgPhDyh2YnRRPB8C1lBtb7//C8g4URam8nMTkIAoGqfEVjglf62mpAeQRRX4O6Uk+xZq3nI9bwFCdHKCeVbULtScd5DWe0ytcybDF/mZccu4psKF8TZciW9jFrIyq7T7Enphq1Ur8yUyPaFhRLc1cvWmnjahysQl/ipUg0fV0Ib21SVhb1QohVl11kutybtAQh360mTetC0XlaTaSp3OFuVmzvl/PMKiG/NC59qc9HQexlVTSLwo/LFifJNocmxqChDsO/o+0WL1HkBVZTQbHIz+uz3Cc/+d+vJbwk+beLfqox6t76QAX0JUCO04Xuo0pjfvSJtAgXkGNQiySxoUYUb4CNQl4wB7TviLjVgmNU6XDBGKCkx4bE/Ta2B96DvsGKVzij/DGXG3EOItGL/SJYO79B/9bwJBRt3SvFcmfRMw2HbFy4u4QlvHnE5CQuwgIkfuEhwtLnzLULyUusp23MNuZJJP/6RL9LurO+XJqeTEmT7E4RwNZP7wB/LL4b6KQK57o5SCiAU9wgyfdhyru9MPmZP2PPMLvMyoazaFnVjmRCKUjZkKTWTsMQ0Z3yM1bpCAsRlgNRE5JUgL8WBezciAWIYY88SAA/ij5cSmcgne0KcU/jfUat6lbQ0gwylP83oIL1X7ubZ9KwqSEewPqF1lX3zRiRvWWYKfUywmp2t5yAAojUnnP9fIxwva93yLbAOamPLzHzLQhD2tGgfPinx6nrx7ifOoxy6G9oTVu7tMHhQANZg9wnBQE4c3qIHrJGQWlFtosJtcu14EQXHWSvY3p3iqzZ5ZoY2Sl6zA8opJb4XxRZNY+TuTYtg9pxcR+ZXDpFnkrWgHam1gOs+pIyiFyD6PkNma13EfndlyxqttkB+OAAABr9VqtxuYeM6OUns79YziRPxLKu5WhI3tZCebUSiuOS/mk7oxuNvhoSL46mA5eMdHcHpbZ+75kEcQNL+XI7ttc2SacUXTxg83hHOF5e7OmaWUvo3Zt9Fj5vJY9hY900xL+Nytw5wfgo9KtUeUI5egBdsQk8P13BaqGG6dklG1TjaHKyGcdMiVJ+0eD7o3AywkOmkuzRUPSgKAzeHpdEXzRuZd8z47x0lF1RA0u7r9ODtYwUEp52YgV7fEtTAgEJJf5C4wJ171hrJqJTmq1qrcHgJpd17hGc5BZijWRddDRuQGQ+ZaaJ9W2pVlp5IuL2qx4iXNpgM9DpLr0fPWy69mhsbQqYkqO78bwji0m8fGs1cdsV04hFw9sw3nocLBSk5lrEgYItrsN0sgSfL+mrvA0UGQO8TcwRVrksEzPKULGlgu6M52wb0ae6ktnH8HJx2fMFQtMG6ax8toBt7h4Qmti8doOxDwGkHuan9wpC6OpKseHlSrmEmg55TqnHH6hcYqwVh3zkTN8tHyC3EPV2mqgvM/bKTsjsDl09WNj59xlXqhSusgwn68yGlSdYau9FsL3KoYQXUNFLWqw0cxwjfUArlgKA1J5z/XyMcL7DbtMAsLdB3Uyu2CkHkaVFoXCKyRq+AK8iFwqnzLv18IDOChofhKHlblBkV8UPVWlZ0doTRAFdc0K44zQFBJ8d6d5MZjGSncH2nufqALcMNras5CpnDPDQzJIhl1jnpc00W6nRlcpby0O5yhs2av+5D63JnWqsM6QtQngNSeT8XhLTokYrObP/iFsAkZdXOhHlSLTXsqQejtfuiR5h53ml6OaUhTqGqBKf62zlaoV2QvMCbom1pSGxPK3+8J9kj+VGJPPAq7dT9iczXorA37MVhSr+fzDgrM1VEsl/Y56NSeE3wmjoe9kXo5Nzw1cVhw+FkYKPEN85RVgC92ZyAZTlLg5VXFaAP7Ext85MQBGArbVc2o4LjnDo4ja6XW6sXPJTnpUvYfJU/1Hf1DPe0YG09NVF6DZhrOtDwAjdfxPdwHHZ4xGc2RKSiAefhnFwh5II9jrPP7bYxeWHdk+HqSFtLEzK8L4ot8db3oiHxRMOLJKztd6dnNLqCWkhblQNjUagreV3xrlPmjGErzfTyOwqwegIscAAAB6HYDN42uE43K2mQghqKGS5ucsvljZFjUJbv2ZETQdh16ES8sZcklaVL6kdFXffz4SmWu6IpHOICWF2PUzqTJnXYtw+VIb0rA8WZhKAECJI3Sc2RMtJUodDS3VUke0vHEYBoeH2Uodbn2FGR2FN0wfI6lk11O6FO/CwAhQ1CLCSt+EEPK06GNNGBbFTSTcFTJQqRDTSWCXTVkzFWgwvGGYRN4fQ7jwP1eZPCc1RYeJ9xqRo4O6JyHsxgENsHFlT9BHwIqVRP48QbOatfGHoKuDz9XjL4v3csFWx7yp1jHe3Er5FsmtwWxlBtZWbiPawbKYGSp0T2DidDSh+QlprDtXTzQ4FyH3s22qAhWNhRIc2Qqy+mZWgs6GboEElzrqNVV1vR5mIrEZwK2XK6in7IFSY+GRd3WBpmR4N77jhN27cawhQSpue2RQdo0aMCvN5A3eOTKe+/vNyFaASrLRg7+f6uw/smq2yZ8RO8yaiX2DdHRvntPX/v8e5KuN1VhA4RYEYY3T5J/CsIhUJHRyXVNMNm8fziVYl6fc/QqaTi2OwChqnXPeJmP+7pR95cQ+NITu4SVsRjwk+nAwuuMzJzSKjMIG5NYQP8+okDOqJUHTwuxUjJsAjR05zGJVTaSmCNITfG5zB9g83qL4r2ujBuuOTyFPtv3FJfmg0bc5N4LSowmEXxg5gpjXRvvJjzPQuW+4+cRC18nPk/xFgRmIGD3bzsdoRrpdbFuNPQ2OIFYYFMzggAFf8WJiAxONoBOTnCajrQSoEF/W8tQV1rsX3wB+a0HfvMr7tHRILR1IljzobDN+tmPYo/3HbtV7kthE9eB/8e5P56ZdQHxmdx/it9B9X4jTB0P798Y88kv/RAVyemCKVrrun3l88Qk9xVoLDMrHVK0ZpROIBMHVfj9K76gW9o1CVjkA63n6RXPS58HF9ftvUBewhokVgCj/ItH/jGv+cD1fww/uH1/l4eazkmqke3sxVeVlERCKtxEziofd8qGO+F9Wg0enNAFGDlL2TixnjIuneSwzil0j3oSo6MzcycoNQ4hgBzSw92bldLwHbQHBZFa81FL/XLGaMPkPl1UEckg+Sy5nRdvH9xZYnmID/DyAAAB8oVqE4jcKHUvysHclEdQ8yKeKIDyN82t7fPqlRbWHgjoeD3/6zaWINhQc0BXeMzRE454Zo3ZVZkaf9oMtuKuqbU/OB3SAWEfF3QmDAZ66P5+plyRr3BTCiXh+F9kg8pIzrpS/jvdeEAyD4ANSmi69WX8iqT3hUFSLYa8UCAtCJR8kKXPzOYhpcnQFSkxYAbixJhTevhAfc/eY3fmkzLLqdrkEP24vcPHlzyGOPXiTRUluo7+pCN7mERvgG5vP2MhRbB0YcEwlyrOdZNXwiTruvSaelIs9hAzPLynkSaI89xkfVcgDJHHL5/gcHL3qp9qc7NjbLx9dU4Q7VumcP2CvGJy7L/sZIpjwPokN/N3G9k7ksPVhVhLtqgt2eqsAjza6GGB6n1TndHiMMMj7kgQ+yT2BDHUzC4QCSQaSomkxcqLNm+VuhtBlRXOVa+tlmZtPNDYHlcJf5b6ihCKxVwOevwsO1y1zslCA9eoQ98zWeP5JUnvRcT/iE7h8blh3A3NxD89ziMN+EpQkW0PbFuVv3C0m/sipSaBmmzlz8dkdfrb/iplBIB0ukIHAmB5rUpeUh+QqVKuyp9EPb4A9NedfrcGF1F+a/v5Towkv0yAERoAn4I0272xLQtBXBYYzTH72cqHUX2LBDtI+LnH9V4ArIqzI7VuRjq4wVdAaHaWamGrItoNaDTzyfw2gUTZyqfZimWMnnV0GA+h+/3Pv1RAlJRinOxIUq/NtFeyk3pjm1URdjvbj3I01IIt7LgLyDam7J3VAQAABy0DEf5bZCY7+5FfD9/IZNdV8es2D+GqNhhFg8Y/FBfgTI3OMZFHIzNTNCRJZl79WPpOAmTHIbcLJpa+g9BFPYEmOd0rJtAoy/qxksQlk418/6xDfiesX+j0Ro04wvQ2SJGg0XZlCWyy4Q24VTEd2cB/jj12WIHvJKHJ+e/wQoUv7hxRdW1TIK55eSozlo4YirB8RYyLpgUJzr7tgEZLtMj+1V5zBSXe3Hg2czO40SFMy7asUVLdtRCS6tS0uFPidNKGbtAkHd+OtHoRwLv1GD+ulxj/vXpny22vBXvQ9JnJFC1ARXLx3qPAgSohu98yPw+dDhYKUnMtYrpbJG9VC9JMnwvNDaAzzkaJrJPEE2iTybQJnIz0Tim7T0uFnjMdV/3pMYS5FXaYEWa/qCmOFj6ZGnXFPfikoRK1lmjMcr5nlnBkY9xWrHaf4CYXxMfD+ABZxUvkrF3na6Tp0V/7Or+LL+wRKdQXzQ4z1xGIC1cG1flUCnOyNAUFvLUChPyrXJcKhxuWHwEtpQNilduAPSb1/VL7vBoS3jhzMKjHwkOobMAmrvB8QMrF6NXzLOM9XH63CEI6ijA+wY8aQwC4/W4QhHUUYH2DHjSFh+6e838qlRmlX3oKYaqIpnzIkBh98Dqh+ls5nZUUhnxEYfyAhz/aLGYuQcK1cqrMePL/TjrdTTnKpRe8RMMpTYybiLzQYrBPH/ennImt8veLAAAAAz9lulEKWS49SS1oLJPpbWC1GM+7eYp4E0IXrJaY4JJgUGmqj1RcCyGQRKNgm8LPWv9ymLRz6diuBXYOvoZYdUmNcFVU72KZEmKMJouHsoXojpVMLGxNf5jh8mvm+1yCFsmvLsSxxmRoHlChzVvaWb2hW9GB45zH4tms465vic3usuDl1AXlJLzh4tJ+qnXcWlkEeP/MWkL23fxrr+G7xVmSSGCtdArsE9jwzbMwh/HUd4pwQ0K/YBFNdF4JUU+GVhVIiZmxJR3NCC2UIVHUQzLDLMmMDI4z5T7S6Jid839Xp99h7hHgq9FY+E3710oU/W4XetBU2us7zCc6L33JgjUBUB7k/CF4WkGDsTaVa8k6+Lu4wi5//biIOilXGl6iFayoT2aAEyVnT91JWg+MmYovVnsuzFP4iS2KkhVZexy1w8qeMYxEpytah88Jn3SEBzmQKaKpWtD6uGVhi4K2qnzHfjUz4E9Rz6Cf0JupGkHFXLiACAszeBXrD0mrsK3jXc7bjFyoMJz77exRO5xbQIbgzo0s0Xs+s7CYI72wWg27eVa2Rlg9KsMn/7UWHGA93R2MMsOx4Jb/GErayP2MeQfchIIJv6/hAEGQe6XVVlpTLartObfaUTjHUOjn8fyQjY+BvOq7u77F76FCVYJSFPO+D5g84ZrcELqogcp4AAAA/ZFlRe/UWh+xplzWg+9qFj5p+R1tUB7MJceldgJM/9UvF0UCcKm63rFCBceEyzfEgXReK7OjJiC4CZRm2RgVn6qsI70Eih+qBrZjp3NI+dmO02n0qHzNkZYU0VZvgIipuHZVPzrPgRVcOVv6blQvi05LlXeJKg/zWU6igpKG6CSRbu/6aqfozFGOZQrzXYbzz6JgDV64q8pwyJThYsOTpRxrwqmG9sgtBnEzeRQMTPIOl2DTBL9+avPf09aNxUwITtDye7o9qRl2xZYBVACNW3iY8ampfuliUqhE/H2kmArPY1ggdpgiR97Wx9gTfzQHlqcJRJQKpDr6vB6VekVP+Bc0BCnOXbfTAiBkRlYd2c6kbNchQfRysZfnIUrjlMaQAAACLZ9jHkut3/FPP31f6lr6ykYC7Yjum1Dc77r9TmPB44K09jXTbu4aA6NWs8V+t+RkNZAg0ED1W0v8jO0VZn7jefNcZmNAtkTTj8kscz/Iy7u1w5vt702OPC3dHyHE3ZoU1OAzZ5AUdx3RbTPKMCek7P75wbSybLX+NDU6vybONI3w+6B2mVBl7xrZFWTOczPIzgZyWwVUpzbJyLzUDg2alU5dGdYw2JcYrQGP3tUvHVsG+4cS92O/cWplh1tZtuullGZYp8CGxwydoMp5UkvYz/+3BxNOtywOtJLS+IdSemcen27JNpoIqP3LeqXuvDiLGERs2vjdkYVKJijzkuMZmqhDEzBAbT1snx1wbv6Q1oa4jFZZJJwgAAAAKxC6Z2FF9Yl9crEOUleWyqfjb7gRy0REkRqCFism8iWPOYmbZiQaHm7K9fbSBTP/7avL27vFSQ2G3DoQedPPm7kyGKlw7Yu6zlxMufQtI46helIRvhyYwzALZG5vB8NxYy36DxyizbVk/F813HjJ9qtHDj4tYwkQZHU4Yva+94JCS3IEbFL7yDpPmlFNchwgKVbMwOQPhAhyeaBuJWgw8Y7AMvpog5cyUir4ff/FpmP0J98HFKzAWB92HOKmRIN8YcwWiGcyPsbV3MlYP6yuGoDZ6BPVnyqL2AAAAAAAB5dwxjVajvK1oz56g8SGx8by6VAikll/Ar6wB6aYG4+yBwI+fBtfBR3n56Qj/Y3AAAh7AZConsAJ74AQCrBn5jmmfrd7FdQJ3MYvFQ6pTxriDvFjXFxJwCtowhDEQ4a6Jjv2qiin5Ohy3keLufBtTpmO/pTRDrgcCT3PNRjbvMxoQeIE4wj+MR0r8UhP1hz+1llHCidQzLTT4pj44hApmIewdAXgdWld3sMsp1pX3LvqGUPYzgbDlSZ642FQzDShky52kkVPgAgdMefMslGH/KN896dyiT71graQJSAcnmMYejG+wFbOI5Rc3ZtgAQLiYBFvQE9yWwgkjlcHCN+0xVOLOPPHOF9sZ+ABXTKovQACxSSkWPp6PfgjEyW6PrV/YKBDBcKqCk9ZdZg2AF3h/7o9miZBPFV1Yq2FmIgs8K10hwZzLZPFsfyxUXU2Qo9ukdc3Kj8clFvJTbkw5QyTaTtZlaBX7T0lrO7NI9VyCKcCwV06WB5MoZd1mMhItMPpQBUr2t3b1iUdjxBOy2XlarN1NSdCz1RcoYSRGUb2Llg/blMGfjU+4XXjLWneK4L9dxd51dYR9IlYPuYsSmbw6nlCi2L4rbdhcvxaIikTu9+xCL4O5++zyzsC2JpB+BE7ZqGHH2OVXvRrw3DTrHDGXb/codRUqKDKZOfIteafnRd6ig4k24/S5spClevyfrSc0rOUfN+rsBp8sIOnS5zs1yXX3tp4I7PvB0XBhKFaCgocRa+5glN+rT4tQA3JCmyHIjJurHt65YHofxukDjRRv9evj5uqltQRheazPGcE1DtY0eOt+hMtxI16AATEoh1AEob0E7zPBQmDBAqVtd2rSO86gJNfuZfT6FYnM43boyuK9l0C8K+fuOf70KoHCOViEBU+p2PmLOyP+Z1GeMEH5RZHzAumj2R/FLX/xdpJb7zCzFcdxkVSWXOICH09Et5Ak1NBfyXz96iezoq6mke2UMo9gqFiTuVEW3KxEP5tesu1i5v/o8aqZ3j/YgQvJvYq9/E8wpuK5GG+fk4gNLb8XsX+Y9n9t8HuQrlIQHmEYmSP5UbWAagbe3aNeNfyJvKkr1EwPIuCpKhaGKtBR2ELqODFCPZvdFOpGphSTericNhIWDfsPuHTKsYjsGl88zagoNjosbp6L9bXelI+fMNeAH3j9+ggTnUGRbcuh/TeS/VcxJbu1UL/E4aoWBGsxWD2y3tShA8k5Qd1EoClmRfMrewSMz3Iy20ojjoERT7HS9gB2RZHYTwHKvHi09y4yZ4WlZXAELp+yH4ICjoSZcJRURIjRh5e3DVYg8OWMMFa04sG4BaKDBqAzXvht8Btwi39zL6fQrE5nG7dGVxW1sDMveaTiBnoBYO9sB9Dfew+X2qH8l5b9BB8EI+1GdrF6+Os5Z/5zzepbKSGl8LO9vxnDbdEuoOHgy/nsXWfpQYanoTWpyOFnE9aYIwM4eB3hPxvgUvLcveQSSMfGltS9DuexHuNuG3dRQgR7URqeTL5zZXQMOUMTJ4rRXHUMLEfgY5+or0sh0pH/cDfaite25qO0sHESdyvzgX/XDhku1wf8qwzQTMrE8NCVGu08gzECByR/KjQ0kBT89fm8qAACVwtx+FU5cdScDYa3uBE+uwCJYKCMziCmdhjBHw8H+O7vu0XXx+eCWjMEBU72n7hh6weI3BpmShuV/gjN9W8QrP1/6j9qtLIUoh8nDPc2vQ0imabuaf8XLYrqBqK7DrRnwdzdCsT37mX0+hWJzON26MrjiIb5CqT7hTYMmiJCj4+kFPrr8h9qkpyuCIg0C+kp019RIN2GvOIjUyEMAMqd52MOvGReB6cX1XuSTAoz+8eSMD4VPFiVxLvbPBckKhJhgQR8isVZPjLWRdoYqd1qYG2yI+KgJI+1Gdrwbij6y2f74zCnAAbnQG90HI5MlijujklS4J9gcTVsBUAN3RlkxjSEemfX8QMWryjwDUr3Nq3iK0drxuAxrt4XaGqjI21bExLccKbYgFDXjvTvJjMYyU5SMug7fBwqg+ljOuh691q4+02WifbMZzWc1FHNYnxafjsmg7mVXKKCkUZXNWAxxMn0U1oLQHVFB4bg9+aXwxOVz321tpRW9yehkLF9jT79F8lljfN3HSED9SBLzYYsk+1bLFpJTNfeVg7TXFXalcQYYKoykELzuaZL/D+5Yr7vi3lYLwpu6qYtnznMp+3P2aixhXihOFIz5miirnXQiSeOOtZZZtlhePmy4zCpjsoKOdCwYGKFDK7WhkKsaatyPXiyZpUX1fXw8zFdrqQw9JjZfwHyA8yZ/K69YSymB5CUM3CWGiV6bnKjqbsaCFARMfdROFI9fTU+KPsfKEM5D12RC05IJVf16tqXw+qev1FL8lUImgTZaB7ONbZIFFFen0LApoT52gEsqghv8lurEVoiCvyVRR9Gl6ZhLxWUrW3XBH+qF+mEhVUZP3eOsJYFmeX6DmtCDv65lXLGxX1wL6Mr0SaCPLGVBZdgRZH8sGKLzzFlTWRbV7SDtkplx1aaeTY2xbDQJK5cTMyLwrRyFC2oj3wPnnttIlzHIF/miY1/EIbOA5Q6PKER7d7dSNBAQy6hSRhhvlOu46Rs6UiDUGm/h/KsbVxX9ALZPHlVGEveIHI7CYAzZ4rtjoY5NDH+zCzRagnWmJDOCqHU6cYPHDrEqcgdpI2xB0lnPcKxYUZmC653RqqILoASrbYkwOPF4+C5pBqgDh9k6Prn0XoDLEUfScEHiqAVg8+NAuaKtfKrZNx0VRSTP2itX/kWeiCE3QvjrBjVXwr66Ogaih0+bmyws7VJxrkEl2SSWymFikLPg0mVLFK8G8Y3TG3Fyh4tylHT1TG5RxUeJ6If6htrpdYXBlfnt604ojE6t6nB8Ag3xZVl+opZwn/CWrLoqZ7bpJ9sEw9QM1hrAWwlZmCP3lFTA21vcX/V0KyIKFpSgquIr5icz9fyCtf8fAh5tFRyKIQk5AQmQG89wU8pj1TTv9nS4vi3Wg7C3B9LfIAvxyNmdL198+6w169wyDTRSC9sYfKrjW0rToWqGmIPh+DAh6VPJs+YK3bT+jUKwTTF0IIFtXUNBDaThG0q2lF+PylgOBQcrGbN//oh9tbvG66tL1WNgeQ3WXdiwVh0ujGqYkfKgKQs1BZKVSdYeQzAVBCGAQmhlAUGURwUwF4h8xD5h2gwnSe8mgLFXO0cIAROhWGh2O5aR3K6CRag0LyD6YGe2ONWvczaFvpQKAAh6gl3qH089FziAh9PQZ0SqyM5B15A6/5u6zVujD8bvswbs+pxgem9NBjU0eGYUEmFjBhQSecnvkK9PI8zIPYd3JugnSIqpyGzM9wEkpui6Ws4cLUtWt30ZbdBfi+vjZgYs/6mYtBo7bKulzObFzOshTgmOpCA80RhNoQF4vc0VvQiYIpSwY8aNpXeyGhjXLR0fH5k3nVN9Obaoq5AnWcY8eXNJJ2sAvcPdtBwHTJY0wPIMaZT45KdZp/fk66OyXkocsk4x3j9GNs9QzJ3g8Bs6gBTD/qzdRtNr/63qO+h2iumiSwsmlT5GmyR+R2yPJBLlQUz0uIrpRC7XN+X5Lu6jCdYDX2zSC1VRaCN3zOzGSsZVXMtzJw8m740kH8IYfY3a68+u1KKI9QQcAk2dCcRDshn/JeDL4yRArxJz1YgIhoVLt4dG6s0mmb5MAG0fql+/JY+Zh7ZAw/v1JoRZBIse4WrZBBUQtPOmfuryhxfJ+DQBbc9QH+ffhQm0Zvc4iEbYGZbdEGzOnqzkSjLUKpwGvGD6FpGQ5kSHAyCByFrMdyzegHdiSwUvm0IY2rwnQ/LHy629qBF/MRUYufXEhE8tdLXDyLqtafg5sADaEZBEzLnMbJpUpdUh5/hDXXoaxUlkUmBve4BvVzCE0u96FtbThz69jpuwGQ3s0b4qYI/govGJYbittD/BEJRwaseMba2lb2XVOUAm69vMrhQjS1vDcM30Uku/Bc9clo8cAiBbYZ5js5cUpsRM/qLYlUIiPnsWeijjuRYiCsse7jjqy7JKndv+VCX26eI6BqGSoLZUo1IZ0ujydA8YLiXoNrViF5Po0p7lWNhTrL7V8QrUej6YauIAr/B5xvImyQSiux627tIqBZKkwlEcO7gnQ7vakW3LlFrt4Q5iB7bweOPJLOyDuOhmzSrUEn8ZHn7GPw4kbjfwhmT4FtQPKVG/PtHg1o+0rWhXP14KvIxZdQTSwS7s+vGIRJLuNHf6rvExh6bv60Nqu8B/L3TGHhGfICk7N324ZEORAJdWTMo09S+mL61FVnvB7FNRh+Mn+Onh9vZlRcPKxku5WzkBqpkrPzGw8W6NR0fIzbAZ0Ao1eI7tx9XNtCFUVgigaTwFtlpPuJwY4uEkpoNZ1zX3VkN1tqpC1Hi3Oz4ZPuU59nJRfq1xRkRK5o3ZQBETdG4SeK9gWiM0m3jVyn63k9fo3meaYEnRZxcLdGyVGzD3eIs3ZmOOdG8B6Ptyh4E7W/y5mJ3SdQkNWnyec2B1H1YiySFmVMz+/OFLEMSZM1SCGbAIbnEh/XFpytiEzzeZPxL3X3BG/wgIdsKE6nV6dgw23WX223zICcL62xAITBJTAQEHSmAppcLkgR8V6nhINraHKVSJEpWmjjwUh01g8fuCOxonsBCP387yW4SJz1tdum5PaWKp5ERs+V3Ol9XTy2h4wIHPM4OQMmkwxx+yGUnH8kqtXFso3gmQ1FnI6mx3wArf/3EAdecDP/mdD31uMFaaBWBMlWZMSeJ2qQuIwzSXwHNu2SZcrFTgRv+8saVu2OVMUgBSR/dUdnP6k8nU0TAs81Lr7V03eyHuvntDl6Jy7xgtoiYHbpGdEgwieKbMtOIMCMEMqR4B/IpIpIXpA0Y2pgPE3Xjejq6Q8/mwf5DmtpS7aByyD08a2l5eqonbUG59zK1IUdG/XGLyd7ccBiicDDwEHsfWuV2cOBfqD+DwR0Gt7mQJ6EWB8Un1iZb2iZHl46PYiJJ+vDaSxn/NZKmie7OoWoJoAq7srXtT8ulH1Jao90s55MUolrCcdpZ5cbnZ+yICH6pW4wWrRQZ+n/GQrFxnws2lsMAa3MhJvT0QP+NynM3BlGWOzOKBP76Yjmvq7TCPLxB7SkEDC7TTK3rreS94q8dSxcnrD5g/KgB6MKlA2ey6YyZeAOqrPKX/g1PWDzQyO1AD4fktQAVjQ/zACdlb/8kKsgi6NMW2IK6W2h0Jd1SxtDoS7C5UAXIwl1l6eNYNx2Dar3aVGjc5S2OCR0oqGjFIu7fBsC3R4IjtyRr8v9TuR6kGfpWu917mnn2RIvOeZl1Ur41gkJncE9pQZpeMaKQ5WNrOd+IYzthFmP0TZXFGEP50UFoO6akxypRQI9Dcnqkj+lnAfbZUpk7wooEMQiUnzhBkvBZO5+lyMFgASv48599y6w0YvSNhwGC4A+aAIaglVsqUBDFfDcCLEuMaBxJSPSoz2VsnzXY4BuWDOjFkh94Orh8UNyKLkM+jllB5+D5AeptT9ARGmY74mIOFREKSRXWw7BpgLviW5voTdGHjp6HIV9bYhHml2csFVAjKGaultyuqWNXP0L3jR5FHpy1HgUb564KhVorLIAknAknRTc69BDfxSvV124/G8RuZ6KW1q55mt9x5LUe5yCdXz5wjo1a0twZXPvkG5CJwaWoZk4cZk7SztvubkPAj39mCJWF4hOeHM9hxAFRESrQR2GX+GOaG1P1kcxpjr7f58j7z6nhOjP4uEcqc7M2GX11JY/TzenDjVkbPJcxmAca8GB6drtwbMF0+0ZBZxpE+XKImFvwP1kmJDuVBhmkkHV7ymw0l++YckKyT8IOku9HFJeMbSdDMDLdIy/8lfe5tzSH4EE5d3sZpYdYQQ9s9LvYrPzaChfAJPTqI6+YsFQ6ZvXnapvEiXu9VYp9sHBHEAXSxjilhLRin2hon29t7dmjN3K2K1VK1lbhL/mfsC8Hw9r6aFSs8ru9JSnt8Fi3/HPm9NLxJwC0V6OG3PEJ7WgYzJmNlIIbK6aJd78KWV885ugcRbAqHQTrcGhd5lP/rgq1RCGW+s+vLqljk2GesAIx8GtA+mkfjujqkpCIsOs5QEMbRKlqgInU9bt6xG08ISyMqjlD1Q1fzhaEs1ABCA7YVTkFRPbg35Hb3v9P+kcBTZ27j9at5q1znQA3E4hogrBDD0Ks5IYSLhbCpdqzdKPsDFbyupytyPZLtXss9o+7pGZQqZmn8RKzC1H4kbt8FXKKtb2KDXgQaDjbgtxb+8nH6iTtIKwOXDm+6ux2428tl1cC6uA049JSgLneFDuEF5BzFusTyleW08KNCrJARyVmre/aFMdxdyMXVt/4np0u6WnfuR/8eRyhwDtJlSx/JdTX0xV807c8oFJ6FolQL13tBMR/7C6dHIfVMz7APVFuB40oBQVxJmyXfHfto5AYgFTsBI34GH4kSCsvF5BIewfXwGTjt9q3dHX7qxUjyXnCm/A/V8U3cQUSRKHbI96N2kJuxJxLr5++cKkwXmqis+d2LVXN0Qe3DwE2AFyK1fhik/Bp/WDx+VbF0/hCQipHsJYngBq+yf09tGe4B1A3Os+XFVsb8M96JW9jTc3Fx5d7Sy4TfSvouARwpOrBB/+15QEyyLkzvuq5v9QV1Y9YxO8FS55iIvbb79t1K9HfYlgxl4+VNi4qIjb1d4oFLy9JLG/OCsXtv9DQ68x/4XWn4ABKhJjwsg7ANvLruMP/629P3ex5PbsiLqEsJEeH5i9rMzQzLWRtrXZTJ2iBw/e5doq/wnTTvG58xcYXkQ6/YaD7apNQ/DSJEpe7BhiF2R45qfqlXMEvAifrrMArs76UF1rwiPbcY9H7iTG68nX9jTu8Xh3pSvv9GenbtIfIfhUnXfzQiy8taMHWOi0eoU2OdhxYJko9TWTec5SWuaPAkPzxW13Yta8mZ5oMCqX56TRa5IKaXQuDIip/ehj36VCeNLvg6tDmw1VFurL4L+Z4zQ6KdNuYPRxjDyUIV2GR1cDItwmIU0BCfV4sLOHsCKc1OuUACB74f8vcdBebIE1zxaAjDH8jEwtUOcif2Dh07O5LogH8OBzcVbBAso7WikO18gFsBvQ390IBCHBcfu0J5kq71O8kq22nCUxAEY8XjLicCtNeHieB8A6EnlXYsP7TUBGRALaKKLgt4dxxiEIuOK3IEayKcpFxthOcpiPd9E7uyRcGna4AkNSuIWAcQOz1RIC27sfePU/k0JCtqvwQN4qsaZCCCKZwabV+0O2SiNAXTKqPixDIQ2ABss1b4ymH21H9lqpFQwZW4TmLzkTQO9KLJdVlXvadG0XAbYTffcO06z1H7C62y8l5oqg/Lvr0BGDFqx0NTf9CtojFxF5UJIFKO63MK2E2LU2RfufQTaImYYRZEqjcauUzY0KN43cseD6NS6T/42J8X4qLpli2nzh4Fj1PRsk6kOSQdA7pFkDRUYk5X0+JpIyi0qJjYvECkQwDEtjhgLi1yI0JMmgG0w441svCBD2hYjBd3odg9+Wb99wwyMMh/9/qzWAr8I/hL/bbPfqT4Q3tX9N9VLzB3nageeUpuQ4vdlZ7XI0Fr8xoBlhhDEn72Sh80spxW4B46z+rSHyaS1I/w18c3Go4PUwec6WGN+41QHDe2pmKt00FGCT8iADCP9ACVba35k4IPFUADG57A+faeSQOG+cWvXxGmeUXUp/f9YoXm3cxym0ZJkkCIwu5Xs03mkHbOHi+ypIzDNqZybDsvwkEqljhQAm0F6l+9njnmiIdJxc4Jkwr7k8nG7SzmiVBHTHjAxeNcHVczaiLBcyXaTgzeVr26/xV9kDfejvZU6VBUKylt+rw0TjcCZRmZe8m89Hg+yk9lGwlVWttr9/oyH4AzQS3E3LkPi4AzVCGsrygzma9wx9QW9zbS4ETSye4hEyzfIA/DXwzCvq8XHl3cGiUlUZlrglYFTQn0O6Ls7eRwdw5ecC973kb7/H4qiB6vyXczaRkpB8tPLcui+Z71Qvd7Vgh4dEoNiw0tcyB/QNP0I8mW9473qYJ+vDaSxoFKT+HOXtKT6jGQBkVyrZ+Idf0u3iFRGBatJJGVZLQEfHtz947/43fKPzAiUOP+pGkBciNCTJvJrhhbDjhs8gcUwIJCvK4VMqS85bW/xTx1Y3W2IvAl33odXonzHIpBz68iOpKJn7ZmvChZEFv+LCCkHciJNqGy5i77YzB3g0mtmETlLrRrHRf+iCMhljDNvfSdL55X9gCbBoPav66tlkN0aEbo8iQ1IfGbp9Fuyx+oeS44RAFkNmXdgynRIfkxpkwjHtO0XOmsk+8Bn7Vc+GBtZ+935qnHbwJOy3Q3y7YLBm0VrZUOQCYRI1WJ9vKy3AQvGihwws/pV+snoIBceDQKXxqqkhiJs4Yqk/bZvek0n8UpXiQAwAuvJnWo5zrAezHQy9H8e6uULhvqwzYPKOtZtVTLiIOPirSVWgGRSzVIZMBFn7VAMikO8iZs6fLfHjS3AJorBzNGALJrPJoIY5mQBc2o4CiIv2lTJ8nJ7P6p3p8jG+a1H/NZyyz6fzNpXok4QfxDnQwsbj0dDQLilcGEjcGsDLMQDaA1xZNC9g0DA2Vf9pfPj6b5PIb1E0j3Dk35QaeeLUVASjyiHD/yJeWhAlkShDVvWTwvslE6MP8ZuKxIxhp/FMCg0KyPrOSfrgR36cqrAdCPrP/43qU+1bShnrDOzuaPOrh1UrbbwLDDyF6iglk3DxjbdOBOQSDeFhPNyoCNOprzgjzQEgBdEPn5+THo2uBWKXb664RGBh9C73bTuMotmocT6vIgIvRyGJHaH0bHL81OatAkix3nR5X/C6so0RN5JJbVSiwE9SWIlQmuzSki2642kwtKD8TQFK5o7p5gyUAAAAD8z7CPMcH48DFHj/IC9K3nZDkE/s0XkoFJxRVlUKv82zUImrE9Cc2tmgOP9XpURNBbsk3YlmjmxGOMWgAAAAAAAAAAAAAAAAAAAAAAAAAAA;" vertex="1" parent="1">
          <mxGeometry x="530" y="180" width="53.34" height="40" as="geometry" />
        </mxCell>
        <mxCell id="_2FKwMDi1mKpQeEEdjGX-28" style="edgeStyle=orthogonalEdgeStyle;rounded=0;orthogonalLoop=1;jettySize=auto;html=1;entryX=0;entryY=0.5;entryDx=0;entryDy=0;" edge="1" parent="1" source="_2FKwMDi1mKpQeEEdjGX-5" target="_2FKwMDi1mKpQeEEdjGX-27">
          <mxGeometry relative="1" as="geometry" />
        </mxCell>
        <mxCell id="_2FKwMDi1mKpQeEEdjGX-31" style="edgeStyle=orthogonalEdgeStyle;rounded=0;orthogonalLoop=1;jettySize=auto;html=1;entryX=0;entryY=0.5;entryDx=0;entryDy=0;" edge="1" parent="1" source="_2FKwMDi1mKpQeEEdjGX-6" target="_2FKwMDi1mKpQeEEdjGX-27">
          <mxGeometry relative="1" as="geometry" />
        </mxCell>
        <mxCell id="_2FKwMDi1mKpQeEEdjGX-47" style="edgeStyle=orthogonalEdgeStyle;rounded=0;orthogonalLoop=1;jettySize=auto;html=1;" edge="1" parent="1" source="_2FKwMDi1mKpQeEEdjGX-34" target="_2FKwMDi1mKpQeEEdjGX-46">
          <mxGeometry relative="1" as="geometry" />
        </mxCell>
        <mxCell id="_2FKwMDi1mKpQeEEdjGX-34" value="JDBC &lt;b&gt;Transform&lt;/b&gt;" style="rounded=0;whiteSpace=wrap;html=1;strokeWidth=4;" vertex="1" parent="1">
          <mxGeometry x="880" y="170" width="120" height="60" as="geometry" />
        </mxCell>
        <mxCell id="_2FKwMDi1mKpQeEEdjGX-35" value="" style="shape=image;html=1;verticalAlign=top;verticalLabelPosition=bottom;labelBackgroundColor=#ffffff;imageAspect=0;aspect=fixed;image=https://cdn3.iconfinder.com/data/icons/dompicon-glyph-file-format-2/256/file-jar-format-type-128.png;strokeWidth=4;" vertex="1" parent="1">
          <mxGeometry x="880" y="130" width="40" height="40" as="geometry" />
        </mxCell>
        <mxCell id="_2FKwMDi1mKpQeEEdjGX-36" value="" style="shape=image;html=1;verticalAlign=top;verticalLabelPosition=bottom;labelBackgroundColor=#ffffff;imageAspect=0;aspect=fixed;image=https://cdn4.iconfinder.com/data/icons/scripting-and-programming-languages/512/660277-Python_logo-128.png;strokeWidth=4;" vertex="1" parent="1">
          <mxGeometry x="920" y="130" width="40" height="40" as="geometry" />
        </mxCell>
        <mxCell id="_2FKwMDi1mKpQeEEdjGX-37" value="" style="shape=image;verticalLabelPosition=bottom;labelBackgroundColor=default;verticalAlign=top;aspect=fixed;imageAspect=0;image=https://res.cloudinary.com/hevo/image/upload/f_auto,q_auto/v1617607659/hevo-learn/pyspark-1.png;" vertex="1" parent="1">
          <mxGeometry x="294" y="160" width="73.24" height="40" as="geometry" />
        </mxCell>
        <mxCell id="_2FKwMDi1mKpQeEEdjGX-39" value="" style="shape=image;verticalLabelPosition=bottom;labelBackgroundColor=default;verticalAlign=top;aspect=fixed;imageAspect=0;image=data:image/jpeg,/9j/4AAQSkZJRgABAQEAAAAAAAD/4QAuRXhpZgAATU0AKgAAAAgAAkAAAAMAAAABAKgAAEABAAEAAAABAAAAAAAAAAD/2wBDAAoHBwkHBgoJCAkLCwoMDxkQDw4ODx4WFxIZJCAmJSMgIyIoLTkwKCo2KyIjMkQyNjs9QEBAJjBGS0U+Sjk/QD3/2wBDAQsLCw8NDx0QEB09KSMpPT09PT09PT09PT09PT09PT09PT09PT09PT09PT09PT09PT09PT09PT09PT09PT09PT3/wAARCACaAdoDASIAAhEBAxEB/8QAHwAAAQUBAQEBAQEAAAAAAAAAAAECAwQFBgcICQoL/8QAtRAAAgEDAwIEAwUFBAQAAAF9AQIDAAQRBRIhMUEGE1FhByJxFDKBkaEII0KxwRVS0fAkM2JyggkKFhcYGRolJicoKSo0NTY3ODk6Q0RFRkdISUpTVFVWV1hZWmNkZWZnaGlqc3R1dnd4eXqDhIWGh4iJipKTlJWWl5iZmqKjpKWmp6ipqrKztLW2t7i5usLDxMXGx8jJytLT1NXW19jZ2uHi4+Tl5ufo6erx8vP09fb3+Pn6/8QAHwEAAwEBAQEBAQEBAQAAAAAAAAECAwQFBgcICQoL/8QAtREAAgECBAQDBAcFBAQAAQJ3AAECAxEEBSExBhJBUQdhcRMiMoEIFEKRobHBCSMzUvAVYnLRChYkNOEl8RcYGRomJygpKjU2Nzg5OkNERUZHSElKU1RVVldYWVpjZGVmZ2hpanN0dXZ3eHl6goOEhYaHiImKkpOUlZaXmJmaoqOkpaanqKmqsrO0tba3uLm6wsPExcbHyMnK0tPU1dbX2Nna4uPk5ebn6Onq8vP09fb3+Pn6/9oADAMBAAIRAxEAPwD2WiignFABSfhVC513TrQlZrqMMOqg5P5Cqy+K9JY4+0Ee5Rv8KxdelF2ckbLD1ZK6i7ehsEUduorntU8WWtrEPsjLcSsONp+UfU/0rkp9Yv7m4857qQN22MVA+gFc1fMKVJ2Wr8jqw+W1qyu9F5npxqlqNlNfQ7IrtoPXaitn8x/KuJtfFOqW2MziZR2kGf1HNbth4ztpsJeRtAx/iHzL/iKUMfQrLlk7X7jnl2IoPmir27a/gZV74P1BCXheO5+nyt+XSsSe3ltZDHPE8bejDFepQzx3EYkhdXRhkFTkGm3NnBeRGO5iWVD2YVjVyunNc1N2f4G9HNqsHaorr8TynpV2z1W8045tZdvsVBB/Ot3VvBzxZl01i6jnyWPI+h7/AEP51zDK8blHVldTggjkV5NSjVw0tdPNHs0q9HFQ018mdPZeNZUwt7bhx03RnB/I10lhrFnqYzbTKzDqh4YfhXmVKjsjh0YqynIYHBFdNHM6sHaeqOSvlVKavDR/getDmlritI8YSxFYtR+ePp5wHI+o7/UVvyeJtKjOGu1Y/wCwC38q9mnjKVSPNe3qeHVwVenLlcW/Q1eaWsiLxPpMpAF0FJ/vKV/nWnFNHOgeJ1dT0KnIraNWE/haZhOlOHxJokooorQgKKKKACiuSu/ib4asb2e0uLyVZoJGjkUW7nDA4PIHrUX/AAtnwp/z+zf+A0n+FAHZUVxv/C2fCn/P7N/4DSf4VNYfEvw3qV/b2VrdytPO4jjUwOAWPTkjigDrKKKKACiiigAooooAKKKKACiiigAooooAKKKKACiiigAooooAKKKKACiiigAooqrqF/BpWnT312xSCBC8jAEkAew60AWqK43/AIWz4U/5/Zv/AAGk/wAKP+Fs+FP+f2b/AMBpP8KAOyorjf8AhbPhT/n9m/8AAaT/AArV8P8AjLR/E1xNDpVw8rwqHcNEyYB4HUe1AG7RRWN4g8VaX4XW3bVZniFwSI9sbPnHXp06igDZorjf+Fs+FP8An9m/8BpP8KP+Fs+FP+f2b/wGk/woA7KiuN/4Wz4U/wCf2b/wGk/wo/4Wz4U/5/Zv/AaT/CgDq7m6jtLeSeZgsaDJJrg9Y8SXOps0cTGG27KDy31P9P51Z8Xaqbq9W0ibMMWC2D1Yj/A/rXO+1eBj8a5SdODslv5n0OXYGMYKpUV29vIWiiivKPaCiiigAoopURpWCRqXYngKMmjfRCbsWLDUrrTJd9tKVyfmU/dP1FdtoviS31RRE+IbkdUJ4b6ev061z9h4PvbkB7phbIex5b8u1dBZeE9OtGVyryyKQQzt0P0FezgaeKg1/L2Z4WYVcJUT6y7o3Kxdc8Pw6shdMR3KjhwOvsfUfyraor16lONSLjJaHi06kqclKDszyi4t5bO4eGdCkidR/nsajr0DxFo0epWbSDas8Skq54GPQ+38q89HFfM4zDfV523T2Pq8Fi1iYX6rcdRRRXKdoVPY6hcafKHtZGjOeQOjfUd6r0VUZSi7xdmRKEZpqSumeh6Fr0WrwlWAS5T76Z/Ue1bNeU2d1LY3kdzCcOhz9fb6dq9PtLpLy1iuIzlJFDCvosBinXjaW6PmMxwaw8lKOzJ6KKK9A84+Y/FP/I26x/1+zf8AoZrLrU8U/wDI26x/1+zf+hmsukMK2/Bn/I7aJ/1+R/zrErb8Gf8AI7aJ/wBfkf8AOmB9K0UUUCCiiigAooooAKKKKACiiigAooooAKKKKACiiigAooooAKKKKACiiigArA8d/wDIi61/16P/ACrfrA8d/wDIi61/16P/ACoA+bqKKKQwr0z4If8AIZ1b/r3j/wDQjXmdemfBD/kM6t/17x/+hGmDPZK8r+OX/Htov/XSX+S16pXlfxy/49tF/wCukv8AJaBHkdFFFIYUUUUAeqkkkljknqTRRz3GDRXxZ90FFFFMAooooAu6RpbatfiBZBGAu5jjsPT35rvtN0i00uPbbxjcRy7cs341yvgqItqs0oHypFgn6n/6xrua9/LKMPZ+0a1Z81mtebq+zT0QtFFFeqeSFFFFAGT4mmMPh+6ZTglQv5nH8jXnPWvRfFEZl8P3QAyVAb8iCf0zXnXSvn81v7VdrH0eT29i+9xaKKK8s9gKKKKAErvPBsxl0QKTny5GUfTr/WuDru/BkRj0Uuf+WkjMP5f0r0crv7f5HlZvb2HzOhooor6M+ZPmPxT/AMjbrH/X7N/6Gay61PFP/I26x/1+zf8AoZrLoGFbfgz/AJHbRP8Ar8j/AJ1iVt+DP+R20T/r8j/nQB9K0UUUCCiiigAooooAKKKKACiiigAooooAKKKKACiiigAooooAKKKKACiiigArA8d/8iLrX/Xo/wDKt+sDx3/yIutf9ej/AMqAPm6iiigYV6Z8EP8AkM6t/wBe8f8A6Ea8zr0z4If8hnVv+veP/wBCNAM9kryv45f8e2i/9dJf5LXqleV/HL/j20X/AK6S/wAloEeR0UUUDCiiigD3LxZpZsr8XESYgmwOB0YDp+Q/nWD0Fep31nDf2kkE67kYf5Iry1wEldVJKhiATXzmY4dUp862Z9NlmJdanyPeP5BRRRXnHqCdaWkALEKgJYnAAHWus8PeFWEiXWorgD5kiPXPq3+H51vQw860uWK+ZzYjEww8eaT9EafhTTGsNN3yLiWc7mHoOw/Kt2jFFfU0qapQUV0PkatR1Zuct2FFFFaGYUUUUARyxLNE8bjKuCpHtXmOo2MmnX0lvJnCH5Se69jXqRrJ1zRItYtwOEnT7kmOnsfauDHYX28Lx3R6GX4v6vU97Z7nnNHSp7ywuLCYx3MbI3Y9m+h71DXzkoyi7SVmfURnGaUou6YUUUVJZJb28l3cxwQrud2wo/z2HWvTrG0Sys4reP7saha57wXYw/ZXvNuZixTcewHpXU+vNfQ5bh1Th7R7s+YzTEupU9mtl+YtFFFemeWfMfin/kbdY/6/Zv8A0M1l1qeKf+Rt1j/r9m/9DNZdAwq9oeorpGvWOoPG0i2syylFOC2O1UaKAPQ9R+M2t3LEafaWlnHngsDK35nA/Ssd/ih4sc5/tQL7LBGP/Za5SikB2dt8WvFNu4Ml1b3CjqstuBn/AL5xXV6J8areV1i1ywa3ycGe3JdB7lTyB9M15DRQB9T2N9balZx3VlPHPBIMpJG2Qas185+CPGVx4R1VX3M+nzMBcw+399f9odfcce9fREU0dxCksLq8cihlZTwQeQaYiSvGJfjTrEc8iDTLEhHKgln7HHrXs9fKlz/x+XH/AF1f/wBCNA0ehf8AC7dZ/wCgZYf99P8A40f8Lt1n/oGWH/fT/wCNecUUBY9f8I/FPUvEXiez0y4sbSKKcvuaNmyMKW7/AEr1Gvnn4Zf8lC0v6yf+i2r6GoBnJ/EHxbdeENKtbqzt4Z3mn8orKSABtJ7d+K4L/hdmsf8AQMsP++n/AMa6H42/8i7p3/X5/wCyNXi9AI9H/wCF26z/ANAyw/76f/Gj/hdus/8AQMsP++n/AMa84ooCx9G+BfEdx4q8OjUbqGKGQyvHsjJxhT15ro64b4Pf8iIn/XzL/Ou5oEFFRyyJDG0kjBEQEszHAAHc14f48+JVzrs0lho8rwaWp2s6nD3Hrn0X279/SgD0XX/idoGhO8Ina9uV6xW2Gwfdug/U+1cVffG3UZHIsNLtYU7GZ2kP6YrzLgcDpS0h2O4f4v8AidjkPYqPQQf/AGVJf/FbWNU0a702+tbN47qJozJGGRlz36kHH4VxFFABRRRTAK9M+CH/ACGdW/694/8A0I15nXpnwQ/5DOrf9e8f/oRoBnsleV/HL/j20X/rpL/Ja9Uryv45f8e2i/8AXSX+S0CPI6KKKBhRRRQB9XSf6tvpXkx6n6160fun6V5PMpSeRD1Vyv5GvFzdfA/U9vJXrNegzrWt4c0hNV1BlmBMMa7mwccnoP5/lWTXc+C7TytKacjmZz+Q4/xrhwNFVayTV0tWejmFZ0aDaer0NWy0iysOba3RG/vYyT+J5q6aKK+mjFRVoqx8nKTk7yd2LRRRVCCiiigAooooAKKKKAMPxcgbw/Kccqyn9R/jXn9eg+Lm2+H5vdlH/j1efV87mv8AGXofTZPf2D9RaKStXQ9Cl1aYM2UtlPzv/e9h/j2rhpUpVJKMVds9CrVjSi5zeh0XgoMNKlyCFMxIJ78CulqK3gjtoUiiQIiDAAqWvq6FN06ag+h8dXqqrUc11YUUUVqZHzH4p/5G3WP+v2b/ANDNZdanin/kbdY/6/Zv/QzWXQMKKK1PDFpDf+KdLtLqMSQT3KJIhOAyk9OKAMrI9RS19MxeE9AhhESaLp4T0Nsh/pXnPxO8Bafpelf2zpEAthHIFuIU+4QxwGA7EEjgcc+1AXPLKKKKACvefhLqjaj4Kihlbc9lK0HJ528Mv6MB+FeDV658DnP2PWU7CWJvxKt/gKAZ6pXypc/8flx/11f/ANCNfVdfKlz/AMflx/11f/0I0AiKiiigDqvhl/yULS/rJ/6Lavoavnn4Zf8AJQtL+sn/AKLavoagGebfG3/kXdO/6/P/AGRq8Yr2f42/8i7p3/X5/wCyNXjFAIKKKKAPd/g9/wAiIn/XzL/Ou5rhvg9/yIif9fMv867mgR5d8YvE7W1tDoFq+HuF825IPIjzwv4kE/Qe9eQVreKtVOteKNRvyxKyTER57Ivyr+gH51k0DCiin29vLeXMVvboZJpnCRoP4mJwB+dAEZIHJIA96AyngMCfY19AeFPh1pXh6zja6t4r3UCMyTyruAPogPQD16n9Km8eaVYN4L1aU2Nt5kVs7I/lLuUgcEHtQFz56ooooAK9M+CH/IZ1b/r3j/8AQjXmdemfBD/kM6t/17x/+hGgGeyV5X8cv+PbRf8ArpL/ACWvVK8r+OX/AB7aL/10l/ktAjyOiiigYUUUUAfV9eaa/AbbXLtMYBfePx5/qa9L71x3jey2ywXijhv3bkfmP6152Z0+ejzLoejlVXkr8r66HK16XoUXk6JZp/0yBP48/wBa80PQ/SvU7AAafbgdBGv8q48oXvSZ3Zy3yRXmWPTiisXxPqM2naYstu+2QyqoOPx/LjFS6LrkOr2+VISdR88ZPI9x6ivX9vD2ns29TxfYT9n7VLQ1qKKK2MQooooAKKKKACiiigDl/G823T4Ic8vJn8h/9euMAJIABJJwABXd63oE2sX8TGZY4I0wAOWyTz7elXdO0Gx0zBgizLj/AFj8sf8AD8K8fEYKpiK7k9Ee1hsdTw1BRWr3Oa0bwlLcFZtQDRRdRED8zfX0H6/SuyjjitYAiKscSDgDgAU9mVFLMQFA5J6CuS1DWG17UotMsT/orviRxx5gHJ/DAP1+ldMY0sHFKK1enmzklOtjZNyei18kdeGDAEHIPIIpaRQFUADAAxilrvOAKKKKAPmPxT/yNusf9fs3/oZrLrU8U/8AI26x/wBfs3/oZrLoGFbfgz/kdtE/6/I/51iVt+DP+R20T/r8j/nQB9K1ynxO/wCSeap/ux/+jFrq65T4n/8AJPNV/wB2P/0YtAj56ooooGFetfA3/j31v/fh/k1eS1618Df+PfW/9+H+TUAz1avlS5/4/Lj/AK6v/wChGvquvlS5/wCPy4/66v8A+hGgERUUUUAdV8Mv+ShaX9ZP/RbV9DV88/DL/koWl/WT/wBFtX0NQDPNvjb/AMi7p3/X5/7I1eMV7P8AG3/kXdO/6/P/AGRq8YoBBRRRQB7t8Hv+RET/AK+Zf511mt3P2LQtQuQcGG2kcH6KTXJ/B7/kRE/6+Zf51v8AjPI8F6zjr9jl/wDQTQI+aUzsGeuOaWkpaBhXafCXTlvvHEcrgFbOB5gD/e4Uf+hH8q4uvR/glj/hItS9fsgx/wB9/wD6qAPaawPHf/Ii61/16P8AyrfrA8d/8iLrX/Xo/wDKgR83UUUUDCvTPgh/yGdW/wCveP8A9CNeZ16Z8EP+Qzq3/XvH/wChGgGeyV5X8cv+PbRf+ukv8lr1SvK/jl/x7aL/ANdJf5LQI8jooooGFFFFAH1fVLVrBdR06W3bALD5T6Hsfzq7RntUyipJxfUIycWpLdHkssbRSPHIpV1JVgexFen6TJ5uk2r+sSn9K5rxhopVjqNuvB4mAHT0b+n5Vr+FLgT6DCO8RKH8Dx+hFeTgqboV5U38j2cfVWIw0Ksejsyh45J+xWo7GU/yNcfDNJbzCSFyki9GWuy8cLmwtm7LLz+INcV3NceYtrEXXkd2VpSw1n5naaR4uinCw6hiKT/noPun6+n8q6ZXDqGUgg9CK8lq3bape2cbJbXEiIwwVB6fT0P0rbD5nKCtUV/MwxGURk+ak7eR6He6xZWHFzcIrf3Ry35Cst/GmnA4VJ2HqEx/M1wpYsSxJLMckk5Joqama1W/dSSKp5PSS99ts9CtvFemXJCmYxMe0i4/XpWwjrIgZGDKRwQa8lIz3q/pes3WkuDC5MR+9ET8p/wPuK1o5q72qL5mVfJ1a9J/JnptJWbb6/YT2iTtcRxhhyHYAg+mKqXXi/TYMiNnmbsEX+pr1HiKUVdyR46w1WT5VF3N2qOoavaaWm66kCnso5ZvoK5K/wDGF7cgraqtsh7j5m/PtWDJI8shkldncnksck159fNIx0pq779D08PlE5a1XZdupqaz4huNWYpzFbf88wev1Pf6dK2fBmmFUk1CUffGyLPp3P5/yrntJ0t9UvlgTIjHMjD+Ff8AE9K9KghS3hSKJQqIAqgdhWeBpzr1Pb1He2xpmFWnQp/V6Stfckooor2zwgooooA+Y/FP/I26x/1+zf8AoZrLrU8U/wDI26x/1+zf+hmsugYVt+DP+R20T/r8j/nWJW34M/5HbRP+vyP+dAH0rXKfE/8A5J5qv+7H/wCjFrq65T4n/wDJPNV/3Y//AEYtAj56ooooGFetfA3/AI99b/34f5NXktetfA3/AI99b/34f5NQDPVq+VLn/j8uP+ur/wDoRr6rr5Z1OE22rXsLDDR3EikfRiKARVooooA6r4Zf8lC0v6yf+i2r6Gr5j8M6wPD/AIlsdSZS6QSfOB1KEFTj3wSfwr6HsPE2janbLPZ6nayIR08wAj6g8j8aAZxfxt/5F3Tv+vz/ANkavGK9d+Mmp2V3oljBbXlvNKt1vZI5FYgbGGSB25FeRUAgooooA92+D3/IiJ/18y/zrqfEFubvw7qVuBky2sqAe5U1y3we/wCRET/r5l/nXckBgQRkHtQI+T0OUB9RmlrQ8Qaa2j+Ib+wYEeRO6rkYyucr+akGs+gYV3XwfvVtfGxgY4+1WzxjPcghh+imuFqzpt/PpepW19akCe3kEiZ6EjsfY8j8aAPqesDx3/yIutf9ej/yp/hnxVp3inT0uLGYCXH723ZvniPoR6e/Q0zx3/yIutf9ej/yoEfN1FFFAwr0z4If8hnVv+veP/0I15nXpnwQ/wCQzq3/AF7x/wDoRoBnsleV/HL/AI9tF/66S/yWvVK8r+OX/Htov/XSX+S0CPI6KKKBhRRRQB9YUUUUCGOgkjZWAZSMEHvWTo+kvpV3cpGR9lkw6DPKnuPp0rZpKhwjJqT3RcZyjFxWzMXxbAZtAmI6xlX/ACPP6E15/Xqt1Atzaywv92RSp/GvLJY2hleNxhkYqw9xxXi5rTtNT7nvZNUvCVPtqNoooryD2gooooAKKKKAEpaKKAEqezs5r66SC3TdI35Aep9qsaXo9zq0mIF2xj70jD5R/ifYV3ulaRb6Tb7IFyx++56sa78JgZ1neWkfzPNxmYQoJxjrL8hukaTHpNoIo/mc8u+OWP8AntWlRRX0UIKCUYrQ+YnNzk5SerCiiirJCiiigD5j8U/8jbrH/X7N/wChmsutTxT/AMjbrH/X7N/6Gay6BhW34M/5HbRP+vyP+dYlbfgz/kdtE/6/I/50AfStcp8T/wDknmq/7sf/AKMWurrlPif/AMk81X/dj/8ARi0CPnqiiigYV618Df8Aj31v/fh/k1eS1618Df8Aj31v/fh/k1AM9Wr56+Jmktpfji9O0iK7xcxn13fe/wDHgfzr6FrkPiH4O/4SrRgbUAahakvAT0fPVCfQ4H0IHagSPn6inTQS280kM8bxSxsVdHGCpHYj1ptIYUhRT1AP1GaWigBAAOgA+gpaKKACiiimB7v8Hv8AkRE/6+Zf513NcN8Hv+RET/r5l/nXc0CPIvjL4bZbiDxBbISjAQXWB0P8DH27fgteWV9U3tlBqNnNaXcSywTKUkRhwwNfP3jXwNeeEbwuoafTJGxFcYzt/wBl/Qj16H68UDRy9FFFACo7RuHjdkdejIcEfiKnmv7y4TZPeXMqf3ZJmYfkTVeikAUUUUwCvTPgh/yGdW/694//AEI15nXpnwQ/5DOrf9e8f/oRoBnsleV/HL/j20X/AK6S/wAlr1SvK/jl/wAe2i/9dJf5LQI8jooooGFFFFAH1hRRRQIKKKKACsfVPDlnqZLsvlzH/lonB/H1rYoxUVKcai5ZK6LhUnTfNB2Z5rrGizaPIgkZZI5CdrKMfmO1ZvtXo/iHTP7T0t40A81Dvj+o7fiMivOSCGIIIIPIIxivm8dh/Y1PdWjPp8vxTxFP3nqtwoooriPRCiiigBYUeaVEUZd2CqPc8V2Gm+C4Ytsl9J5rdfLXhR/U1m+EtLa7vvtbr+5gPBP8Tf8A1v8ACu7r2svwcZR9pUXoeBmWNnGfs6bt3GRRJDGEjRVUDACjAFSUUV7K00R4jd9WFFFFMQUUUUAFFFFAHiWufC/xJqGv6jd28FqYbi5kkjJnAJUsSO3oao/8Kk8U/wDPvaf+BA/wr3uigdzwT/hUnin/AJ97T/wIH+FaPhv4Y+I9M8S6be3UFsILe4WSQrOCQAfTHNe1UUBcKwfG+k3WueEb7T7BVa4mCBA7bRw6nr9Aa3qKBHgn/CpPFP8Az72n/gQP8KP+FSeKf+fe0/8AAgf4V73RQO54J/wqTxT/AM+9p/4ED/Cu/wDhh4T1TwtHqa6rHEhuGjMflyb87Q2fp1Fd5RQK4UUUUAcx4o8CaT4qUyXMbQXoGFuoeG+h7MPr+BFeZat8H9fsnJsXt9QiHTa3lv8A98njP0Jr3SigD5mufCPiGzz5+i6goHcQFx+YzVJ9K1BDhtPvAfQ27j+lfU1FA7ny3Ho+pynEem3zH2tnP9Ku2/gzxHc48vQ7/B6F4in88V9L0UBc8DsvhN4oumHmW9vaqf4ppwcfgua6jS/gnCpD6vqjy+sdsmwf99HJ/QV6pRQFyhoui2OgacljpsHk26ksF3FuT1JJ71foooEFRzwRXMLw3EaSxOMMjjIYe4NSUUAeaa/8G7C8dptDuTYyH/li43xH6d1/X6Vwuo/DLxRpxP8AxLvtSA8NbSBwfwOD+lfQtFA7ny/N4f1e2JE+k6hGR13Wzj+lQDTL88CwuyfaB/8ACvqeigLnzFD4a1u5x5Gj6g+fS2cf0rUtPhv4qvMbdJeIes8ipj8M5r6JooC545pnwUvpSG1TU4YE7pbqXb8zgD9a9D8M+C9J8KJJ/Z0chmlAWSaV9zsB+g79AK6CigQVwfxP8Kap4ph01dKjicwPIZPMk2YyBj+RrvKKAPBP+FSeKf8An3tP/Agf4Uf8Kk8U/wDPvaf+BA/wr3uigdzwT/hUnin/AJ97T/wIH+FH/CpPFP8Az72n/gQP8K97ooC4UUtFAhKKWigBKKWigBtc14g8MC+c3NlhJzy6Ho/+B/nXS+lFZVqMK0eWRrRrToz54PU8ongltpfLnRo39GGKjruPF3/IOH1rhk6V8xiqKo1OVH1mDruvS5mrC962NI8NXOoyK8itDb9SzDk/Qf1/nUPh3/kLR/WvSR0rqwGEhWfNLoceZY2dB8kOq3ILO0isrZIIECRoMACrFFJ2r6FJLRHzTberFopaKYCUUtFACUUtFACUUtFACUUtFACUUtFACUUtFACUUtFACUUtFACUUtFACUUtFACUUtFACUUtFACUUtFACUUtFACUUtFACUUtFACUUtFACUUtFACUUtFACUUtFACUUtFACUUtFAH/2Q==;" vertex="1" parent="1">
          <mxGeometry x="880" y="240" width="92.34" height="30" as="geometry" />
        </mxCell>
        <mxCell id="_2FKwMDi1mKpQeEEdjGX-40" value="" style="sketch=0;aspect=fixed;html=1;points=[];align=center;image;fontSize=12;image=img/lib/mscae/Docker.svg;strokeWidth=4;fillColor=#33001A;" vertex="1" parent="1">
          <mxGeometry x="367.24" y="339.5" width="50" height="41" as="geometry" />
        </mxCell>
        <mxCell id="_2FKwMDi1mKpQeEEdjGX-6" value="Python &lt;b&gt;Extract&lt;/b&gt;" style="rounded=0;whiteSpace=wrap;html=1;strokeWidth=4;" vertex="1" parent="1">
          <mxGeometry x="294" y="270" width="120" height="60" as="geometry" />
        </mxCell>
        <mxCell id="_2FKwMDi1mKpQeEEdjGX-41" value="" style="shape=image;verticalLabelPosition=bottom;labelBackgroundColor=default;verticalAlign=top;aspect=fixed;imageAspect=0;image=https://res.cloudinary.com/hevo/image/upload/f_auto,q_auto/v1617607659/hevo-learn/pyspark-1.png;" vertex="1" parent="1">
          <mxGeometry x="294" y="340" width="73.24" height="40" as="geometry" />
        </mxCell>
        <mxCell id="_2FKwMDi1mKpQeEEdjGX-5" value="JDBC &lt;b&gt;Extract&lt;/b&gt;" style="rounded=0;whiteSpace=wrap;html=1;strokeWidth=4;" vertex="1" parent="1">
          <mxGeometry x="294" y="90" width="120" height="60" as="geometry" />
        </mxCell>
        <mxCell id="_2FKwMDi1mKpQeEEdjGX-7" value="" style="shape=image;html=1;verticalAlign=top;verticalLabelPosition=bottom;labelBackgroundColor=#ffffff;imageAspect=0;aspect=fixed;image=https://cdn3.iconfinder.com/data/icons/dompicon-glyph-file-format-2/256/file-jar-format-type-128.png;strokeWidth=4;" vertex="1" parent="1">
          <mxGeometry x="374" y="160" width="40" height="40" as="geometry" />
        </mxCell>
        <mxCell id="_2FKwMDi1mKpQeEEdjGX-42" value="" style="shape=image;verticalLabelPosition=bottom;labelBackgroundColor=default;verticalAlign=top;aspect=fixed;imageAspect=0;image=https://res.cloudinary.com/hevo/image/upload/f_auto,q_auto/v1617607659/hevo-learn/pyspark-1.png;" vertex="1" parent="1">
          <mxGeometry x="880" y="280" width="73.24" height="40" as="geometry" />
        </mxCell>
        <mxCell id="_2FKwMDi1mKpQeEEdjGX-53" style="edgeStyle=orthogonalEdgeStyle;rounded=0;orthogonalLoop=1;jettySize=auto;html=1;entryX=0;entryY=0.5;entryDx=0;entryDy=0;entryPerimeter=0;" edge="1" parent="1" source="_2FKwMDi1mKpQeEEdjGX-44" target="_2FKwMDi1mKpQeEEdjGX-52">
          <mxGeometry relative="1" as="geometry" />
        </mxCell>
        <mxCell id="_2FKwMDi1mKpQeEEdjGX-44" value="AWS S3 &lt;br&gt;&lt;b&gt;etl-bucket/&amp;lt;source&amp;gt;/transformed&lt;/b&gt;" style="sketch=0;outlineConnect=0;fontColor=#232F3E;gradientColor=none;fillColor=#33001A;strokeColor=none;dashed=0;verticalLabelPosition=bottom;verticalAlign=top;align=center;html=1;fontSize=12;fontStyle=0;aspect=fixed;pointerEvents=1;shape=mxgraph.aws4.bucket;strokeWidth=4;" vertex="1" parent="1">
          <mxGeometry x="1180" y="160" width="76.92" height="80" as="geometry" />
        </mxCell>
        <mxCell id="_2FKwMDi1mKpQeEEdjGX-48" style="edgeStyle=orthogonalEdgeStyle;rounded=0;orthogonalLoop=1;jettySize=auto;html=1;" edge="1" parent="1" source="_2FKwMDi1mKpQeEEdjGX-46" target="_2FKwMDi1mKpQeEEdjGX-44">
          <mxGeometry relative="1" as="geometry" />
        </mxCell>
        <mxCell id="_2FKwMDi1mKpQeEEdjGX-46" value="" style="shape=image;verticalLabelPosition=bottom;labelBackgroundColor=default;verticalAlign=top;aspect=fixed;imageAspect=0;image=data:image/webp,UklGRrx3AABXRUJQVlA4ILB3AADwKgGdASogA1gCPgQBLwAACJZW71P2T6zmIQ/o39V/uf9S/eLy8Hi8g/pf6bf1H/Cf535pOCeSLqD6ofxr+r/2T/O/Ln+Afh30ydAf3H8Jfc/8I/DP5d/Uv71/Uf65//f+T+CP55/L/wd+Vv3X+4B/B/4L/Kf6z/ef6T/af/398/5n6iv6f6AP4Z/GP7P/Tf3t/f//7fjd/gf55/TfcT/dP8Z/R/1m+QD+bfyv/df0r93f+n////h+H/qJ/3j/2+wB/YP8H/y/91+83yi/2v/l/4P99v9n9h/8l/tH+1/vX78/7f7BP4//M/yg/2v+Y//////AD8APcA/3P/l9x3+Af1T/0fud/////9Y/RP+cf2b+y/1X9w/Uv+Q/0T8Yv69/n/hv8E+O/nP46/3L/wf5zoR+Xfrvmt/Cvqh9b/rH7C/4H/6f374p/m/2pei/4n9rX5Xf2L5Avwf+Gf07+1frt/eP9t/s/ol857EzQf75/vPUC9RPlv+F/tn+S/1f+A9Ij+k9Avsh/zPcA/l/9V/1n+A/c79//lX/UeA39e/1PsA/zX+8/9L8tf77///sy/X/8//gf9X/7P7z///dH+Of2H/Rf3r/P/+v/D////9foD/FP5X/i/7P/j/+V/iP///ufuV+//5m/sz9//0LfqR9/4c9NtaM5W2ba0Zyts21ozlbZtrRnK2zbWjOVtm2tGcrbNtaM5W2ba0Zyts21ozlbZtrRnK2zbWjOVtm2tGcrbNtaM5W2ba0Zyts21ozlbZtrRnK2zbWjOVtm2tGcrbNtaM5W2ba0Zytsn8jmApuhWWoBTdCstQCm6FZagFN0Ky1AGNft3u1SlxWBlZTll8npB6FZagFN0Ky1AKboVlqAU3QrLUAoa92eXb2ecaYr++FXyG5G7eYQQ2vz7Hj7qP9/kw9AKboVlqAU3QrLUApuhWWoBQ17suab4EHwghJF/39xvv0c/DNOTG2w8erZFG+tY1TrvR/nOgpxxxUWlIdtm2tGcrbNtaM5W2ba0Zys1wItypVnjgQFe0ZFymr6ZfeMV/oXccwKpwfVbuG9PkeIGO314w9P1jMF36+tCYTG+IwBo8BatXC/+2hWUaJ/0Ky1AKboVlqAU3Qqw0JpvDv0y2+hZi1nOiu8YWorMhyPWTPaCmfYvH9RS+OR1lK3cbJzEfbo6hJN2hOmRWI02A9zs873ROwfEdGg+Om6wLXCOm1tSTKse/QrLUApuhWWoBTdCrdRdW8uxL+8WfzdCW3/CMfzcHKbFUbv3ObM/PDUf6+1WdR4cAATNF2AJLfsqCzPDnT0cPI507wjmzLD+jl3h08EFzzybknK2zbWjOVtm2tGcopV8Oa3i/zih4583jm+mty6P/pUq/ROLZsdHlFJOrT4Vd+VU9LwWcA9qnXj3hAPUC432uhDv4LhAO8Eo0dDpSwazXUxjjCGBEQKSYbZtrRnK2zbWjOEGR++ASze/c98vkfucbW1bJHg1dVxzHnpWKjrsXtjSu5FdCc89ClX9sq5gk5u6vZksofE087t77Qb+s7cLR0/Pyg655eDBjpswDua0Zyts21ozlbZtqMyRvU2T/3YxnQLbvjRO8B6O1L+ZEsNSUlKv4YDjtlV+humZeaPwL0QbIv5JTUFb7XdEXtgY0APlkd0EJlC3NaM5W2ba0Zyts21om2HwoBgdAemwejfrt4uUlRtVgawS1qg0+yRsugwjRgoICrvWYmHid1BYDJTLrM8H/ikCfl1WuZfKMBaWifHkF4FxHXM1ozlbZtrRnK2zbWjOCw12QCmCWGi8DBsV+clD8/M5J3+x1t39/FPXf5pnyJeZctPNomXauG7Tl17IjQdyCdWqNcWtopEjPLA7ds21ozlbZtrRnK2zbWibYfCgGbf5sbgM2RHg1R+mc+pfHtCsp7315xFdSrEQjXCGwwVY7qOUveBfSxX9AKboVlqAU3QrLUApuhVhA0l16G972z1CcCMKP8kogzxnx+D4KPk9IgllC6acvaohRyCZ2zbWjOVtm2tGcrbNtaM5WeE17JEWQtKwpUCjfLsGDojSQfmJPCpHtmC8C9nN3fwG6NLSG6FZagFN0Ky1AKboVlqAU3PnmcqRUsZvm6gSOLo7XGr3zZBpakUQLvstIboVlqAU3QrLUApuhWWoBTdCrLn3RkirbxHsJ3f0XTOFRwW1ZtTgaD3s+UWoBTdCstQCm6FZagFN0Ky1AKIccv0BW+MzbRCTwunRSBcYKkujc36LRnK2zbWjOVtm2tGcrbNtaM5W0Te7fpBj8pCd8qjpCQQr/9CstQCm6FZagFN0Ky1AKboVkvfNXMOpiuYqx7NSdtaM5W2ba0Zyts21ozlbZtrRnK2zVuTAAWn1qeuCRnf0Ky1AKboVlqAU3QrLUApuhWWoBTdCstQCm6FZagFN0Ky1AKboVkrMiHlvjSQ193foVlqAU3Qq3TU7Q2G2ba0Zyts21ozlZxjHCblAYpbpY+XMTGXfnOI/5APPgGWeFKrA7UACEcr/Ri+MsAVUVQIH61SP8y5XzLN6Ey9xQD2g4JtQXwey1AKboVlqAU3QrJrqSMkq+K9ojphg3HOsiTRSPZr2M+wbSDlmriHIF9JMO4udbnIGq0ZrZmnzx3CscBEvjtbLHUHOsc5hhk7ljJs4a9ZPA/gKp2oskxC1FthgT/9CstQCm6FZagFNLC4rWjtxXKRqeI5bf9rbvTBeeYFV/qyfv0qZv+HVAn91LoLfLFhikliQumJmPKIOuHxdacORiPOEwGioDxay1AKboVlqAU3Qq1tnK5R6Q/jku58FIgfaAGx/Cuecu/nMKl45fDVDDL6z5zQKprnV52FRmqEpU8AQxluLxWuH9hyuj+Smf4w6ksQcEbk7wR6GSSTnAuvoVlqAU3QrLUApufECwpwosItQoUvY3FD2ggaGGZghF2cChfV6v7s9iLC3e46J/3YU+iDilijeyYhUUG7B595ZUMdQN5UZRE105bqajlqoeeeNez0ApuhWWoBTdCstQCm6FZagDLEh9YywFibbNtaM5W2ba0Zyts21ozlbZtrRnK2zbWjOVtm2tGcrbNtaM5W2ba0Zyts21ozlbZtrRnK2zbWjOVtm2tGcrbNtaM5W2ba0Zyts21ozlbZtrRnK2zbWjOVtm2tGcrbNtaM5W2ba0Zyts21ozlbZtrRnK2zbWjOVtm2tGcrbNtZgAA/v/+z5AAAAAAAAAAAAAAAFlNroZ1T8vaMCAIXxkGbpbJLA61b8Gr/L7EbglCyT6gAACXrv0XNs7QOFdG0CCXB0Ct62tbu3sKP4qm8j/vpWh+ooKFeypYF141TDAhlXgNvIANu1cnRGOqSDbmtjSE+xieB+iiTbnt9hPDmymjOZEOWfUPKuxnQ1F/gtFLT2EhJipr9uMNidoR1eaPDZrH+xTqn+PMJAj6T4bhnNSlR2mER0oZ2vTiohnmYGBc40IUn0NHe7Nsf2NQoyYGt9fWjCH3+2BYG5nd8nqvKM6orOJ3ChWmqT4bM6uRwhfmQn/3GXWB0oPuPtfrHL2a6My9m8Zqgdo3QQ4ZwpaMPoQeLnQ224JqNmo6CtDfUvqjO/TQc3H+iiEoAsjkj0TprCzFjb1fo8SuhFxxUyhRRmkkNLifzfmlsYNUlMHLd05ucq9HsBOPoAGFmJKiw+wxONEkyZ7Ip+pfr3HkRFy2keAx4MiZ8tpJYVg/gO2IZIBAvCVu/dwDQiYJDqgozQNMGc5LUdPT/FVpxLvME43Q6i22RAAAqqQ1J7JdSFLFxnAv4iRdC8PznZfqL/BaKER7uYpoXea5cz7dNNNSYJXSDo5OQLNrDOs4iKmByJNqjl0g4m8vSPS+o6j+T5bY+WvIX/zFXix7Nd8v00BaVnDt8YvBK7p3nnKka25An0VWErFzWkGdVJM0NoMTZfkUjs0NtSH8EzepKM4eRObTuzWhUgdp91BQPQ5eP1QOluujes5SSF4nSpr5OcJZCR6KH+x1YN2U7DoilmiXViaRxI7IYmHT8xP+jULjFdspJunRncLYDUeB/BFLNqzRNObGDYjCv5cMSasEh1FVzDYU7BU52nIvOc6RJgJm1uuBftV+lk4EmjU0TOSll2oULcUg2c+UtbW0BEyGQq784UAH1zIx37+LKXQwyIDcJQ4wCzRDLxJsONOJhMdb1rzrmZC3adk8477a1iEHSwAcvypT1AsZ7T2yCReAVvlos485MFcVnZc2cwSGEPBzGsoBfNfm9MQCQv0/30zBFIkEyQbwfGh0ceBQDdfkdLuwLz97PP8GcPxhZ9GU/egMvoTHFpZOOSF42dsHLxg8G36pF9GpMxBMqU8lqfs6dhfFA13W+4Po8uZC83oowpcItk0gGJU6kTooUCHsP1CurMtT2yz+lySRIIQqyANyUVKYe5YxWO2YcO5sfHq/1e698E8esLj3s5lU7NGSsSlaXCtuU6HSml1Q/35xhq2LCVGeipNzTBsxGQT7Fh5ll17pd4+inqfDVwHfFP66eb+lzK/f5iXPTUaRcnLuewhsozWZJmb8zQX/ZMX8x0tvrAroNmxscv+L3y0lBc+lFFRHbez0VLsJsHJJpcIIT0Qt38gBtJQLrCitE/qv3GgRhe6e1zfUi/mukp9ml4XGli2yklJDk49QujKEZsYf18v/TrCGk25VlYsoBGEjQZiw60w/lK/9QBwWJO9ccbuP1aSle/k37gNNx5WA8P5cfP8zX90JSV2EVOWaWM08H0b2gOAjXhvZkf9ff8oraPX7oABolN9PZF3B00pJQLjHWKXFwi8vvvfgLvUstnSYp/obkPOIv93yKFYmHfKWWT+Sl2wvqbJFY7fmh0v8ThAz1m0rvPCjBQz92Gk/TWI0yvd6RoLQd/gglEqvm3A34cPQ6QWlo5vAiA+36bLWvxxhEZRLa00rOkNkfHpT/4k63I8Rd5ND4eDcNchYDxXgXaf4reB80AUmlKdDqNkrqtcitkz0feHsyL3SRYs1WYP0HFqRTghsoltW2AqeUFfRyIyKqqikiNCtOfGDzylTnu12JBErp7cUlVeUdJqDCbSs8ZFJVG4rkUftir0JrWxeW1hOmaK0NyySKjHO535BOH6RjLDb0gH3zH1gjvX0P0cp3hltoWmCdfhVbYJpqUZ3pFcUvgysxr9TNe+dVOuYLlagHJ0kpyM2aBWli+v0wOPJUKxrjIeWJ2D1YKyrUN+08WWcfM+u+8G2iCUDS3ekqbT+UBtEM9twiywLFWj0JoWn3Bm1UEUpPwTLM5wCEpxj3joq4E5TB1GOkwz8NDuoQVX9fHsxaRv/AR+97dI4jJHQVJA3QdZripfI7G/XZVlu3Jo2RDyGR/T5KMZ8rOMJRCKnrdNvoiMYeuFi49zT+SL7tdRtIZXbtQ1M9qxRGP6q9ROUDFbtStq3Q0g4fwTwD/cyISRlq3MKNzn9nN0S4JOwUpah2VANpoVCiMaNnSQf7ipVgl/gsHDX9jbAMxHaBHuK4N9Kcn+G/uQCKrJP9HSo8YGk3ixn0j2ZYFkQ+nATEj6PrvEwCtlNRXXkAEPClWyjdth6TU17S2pZpfEktLD2WbSLWaZ+hXKAhIuPkivpFAfc+WNpX72tQ1AnZ9E8AXYHO2zTcB9Vf59TXnlHnLPIBqgaQC09PDEvAO1tR0UrJTPJYVswfUiU1VNQuOkdJFN8NdlR4VUJt0axSqPsnvEmIUmdeOUMzilSecE/BzR5ZcaGadHU/V75GIk6c8+wLzB8wSpMI/qZl/qdNofLwhKmEMGm7LRFtvmepna7qRxNjMHTZV5sZ0CkB9dHhKXIuop8kKVHHzM+kmJ5L/u8k2/qgLaybrnkMvXagSRL16eYjP0Rfo939YXhgBqDSrJ5NVpstn+J8Wg8nTbz86uJVqP4P+d03IYyprES4iWH+ZO+Xe1TiCfv2rD9gNWYGg4QRLCzICQSvQCdZt+NpSnFinLJx8Nm50QQQpnfZF6FPXHbGw383QW+t1qh9WjKwe5wTo4JHzq96U1IKXUGnJHWEnWuDHtTWBWph4rPy+NPVYt+tKx+LRF3aGH57o8yyMef5LZSX85qH7ia/m/XxQI7qJHDK1Gd/TwR7+hYUw/FEXIEuExTdwe7ZUEPor9YWcgazR14MxJUCQVDWypQeUMXARdySJm7kwAAT2WZRrlvpsLbIFDMFfCm7ztu8xnW/W+Mf8Ln9hEs2hCj2mELZFSFNhEMjDZaAThH7o+Dmjyy417u5QKXpXI5wyLHXdX+jbKil4B9cosiJyhMpfAmEvObXG9NIHWCShG85QCZmsAa54Ji7SlB0PwspubtjRwng0DOhj8lMRalSz7QZIsX9+oIRRGyjy00gaFh2qPbtCJxEOHdTbJcqRmx2K5aKIowPT4aGOso64yjqE8Eqy04ok36SKyze/pIwEe6eC6e57jSxHynMV6DjePBDAmh/FG410dFZzXTzHb50/X3QG6+fdFjAEiLvtS1q8GSJLEKc0GEEdXL3DwFBsVcOPzS+ZI/W5yB8KdhauT8bTHvzsS4+DW31jHkIVaeqotI0g9/OYG8VK4rIc83zJaq/07jjj+xGXxOWE00Z5tg+KrOAn8HJ3u76CYubJ7IQOPP2awpYCsvxihW8pGv6QZo1C9WT12+at8pDdCog5Gl4MSdyxmTedqZSrYqADokCkjpWBiIsfzVmPMr3HMTb0XvIw1DIkaDq+lhfryUVnHP0iFywNWltWXmQ6l6gc2QDvgt/REIVG6P9ZaYQs0h/70d3Lwl4/YOGa4iznCe4mkpnD2rpPX0zYh6pWdKuC3n4O7HMJNy7rzw5DF9Wgj52mBlrLoaL/z03LzvICydSOTRdPdOMNg/EVNJ/x+Z10ZbXmizWBdrUdiLycFY8vA5e9XXOsBR8ltjbBgp1qL2K40agSk4g8GyhAaCidz5vUQaTa1YPxzpIuvYkXYAh+LwIYnk+cSLTwzWOdjlFF0zunsoTi+DLxP2NrxPWXigpbTHZ5hSt06moaWgVklW/YQFEv7t9xsdqpfRVYSsXNZ8jw0RJkVagzAZPg7XaBdYmeIKMz/m72TKbs6KXLTwqWQYhJcT6DhZGwLMrlLV2PXwn1GB48A/p0UAr7KlTOTXFeE0cJMhjLF5NS1e7Ghbcf4nisCQelbvW+1c4JHkr3NLoHLaoW7BnSUnGqQ20QoiLH2rJ+0S8qPgFbI49SgowVbcPFvonuacZA6RoA9bEIcLf99ZpHf9r4QTZ3bvodwyDmQT68o/VJ0xM0rqvWow4lBIY7BJ3K0u4s8vXw9q1R6UdAbh7mPW+nX1l31lePJvA+vqd64wJO/xXLnB1XXHRDMtcGT9531jhD8WBlTDJZhyYVoDriMNJyD2KvfYbyAm95yPVqf+ap3uQyOSNRA8qaS07OudQprDF1q+0BZORQwwGU2tv3tQqUoXFAMbXUR/ootTpe/qh7XNlrOpdrpqETJZFWYAo18004tUZaefLevOGf4ywjVdW9a8JU4WcHg3zBkZWKGKpddBXCjvxkiU1AU+ezmMLvWOEBiKmZo2v7F7sfUS5X4CkbvO5xw+D5jM4HGpo3ePUIYa9ykDOqJMWRoW6p/bewVmZTL2gjdgEZTK/cqef5FSS6N5MzOaS3lSYeCLKoa3DMGbU5sBuMPr90UUn/CdAmcuwqoG6tm1WyN9XF8z9xrQfmN37Ua8V8VgKUqpWqDWb49HiGvsMxfvtF+nK7zfuVNu9Rs054jg2DTwY25Wq7UaP/586QdiXImNchX87XSdxWf/EYK/iOWtROJIgFNjUnjCirWqRH+aDngJaA2y3AUM2MdXJOM1VyCJTOK1th+u5dXF60stLtzAX48LVq0dP5vkLNxPITe2wloQjboMzmM3kzD8gRbifJueB+TwWk9jlO5kwYVWg5LXxo87cZyoEAJ0xpn0mKO9DC+M2WN7yoRgODA5c77IYIFvmJ0YzIbsen5pumgVZ8xwgYrL78YSNW9NRdttXDnxrYmIRdO6UN/CM/nCu7EgkgDcgUHeBquJGVenbUdIId9cXg1IQABRaVVpfCiuAQNvgka+jZmDNIwXHvuAbUJvG5urn6mKu2mqZHCmUI0dAfXxp3mZ4RC50AGj3k5jrHKSDF/QzV1DhGSn8fXQGuDlDmkABilBn1YuGtZHEXVR68/LpxDqvLRShQrxz8+QV3UUCFGC4ot0XCtaw8ScQ7lqEgNN4ohLU8u+vd/t4j+KkJ07lnu4YNg5b5oVmEcCa6WJsFqM6svhxRnStoEnwWg5Csjb7NMwajJCcoPUY3J4sDltKKZzWBqPJopeGlJ2ZFtWlE9NErl4197/xHyEpLqRWGJJIAimIm/q/Kda08a+ZzQctWfQeRV55tiftJBwh1AFbt2rPKag81QGotRVHYwvaOT4KG+eA/V9/X76yDE3xsMoEehTWbRiNy66SLUkJdIIDOOWHUTYqdZPX8rX1hUls5zjHX3eG+f/vrIxOOIZuUOpYfPbDhT90EWTv6smywMGWgS49lxQ1+oDMV+13aibwE8HDM2rb5wI4m6BX1kg9KZlG27M7J2kpG8sHrJ39JmVLRKCHkJFzeFOa1/g3FM+100lV6zUn9Q/dzfpBIAZtrvGZDyfZZFESB72fO6IoLk/I7FXsJ27nxDLILKmI7jP4scTNKOqrRNfhjzEpR6rkcg1WAiZpv89Jb6cGKDg7gWGP4xFwj37+8Br5ZT/wVR6nNpd0yKcahUdOoP/152JnoBiu+TF2YbjvyRxDsIN9o7ksPVCnX2vAYuUnR5S9N1PsxL8wHlMNGqnir36QR+OUqjalUIA/inE8KboO/c833vHZ/Jw+5KDZ+M0IXa/xfR0w2iC4ZJT2rHRm17DaE9BiEqsiERckODP+pmrRWYVE9li+k/gtVcg7T4b3hOAp7V3YnwoJgLmGG2TGceIjuOSuv0A57ResqlT28DySAtzQNYsaL5TcO+eqaK0eGkLS2aw2s65jBsycht6CRVP+4TEdfNS640dmCr30O7qQGeiPMlWUTfL9CNR7qYobPDKPXDPLGLSXQUTcKMi09JXo6x5eXaVD13cZeDSWA5fde+4+5mWh5sxis7Ll1m/bR8MiLnDcpObcFq5lcGV0VwCMNnXTHO04XKpQMnFmlKQS9BxX0pznq81LecDAtNOyGv9+5L5H7sqKUB0z54uFTEY5p54UDUrelz4rDgXp/UD1QGK2r55zD4YRO2+WsAj3CQPaBaUxHl/YdfMA1mHB1raqbhdOd8++CikCfzgaE6Du++Oxa1vM/k+ss+5ij+nxBmEVSknNlisupVO0lC45zqWURFsmHJkQzvsihIB8eKs5UaVN4sEwL+cOsz7T+MxPq4PHOEuVS2Hf+hbijpnqnKrpOFAfkqSWlMzWzreaMCwmIH+lLs3hxaOXyZiurw8B0CNJUGwGPzjyEbcTXRBItzIyn7Sl7WyaVFfqacVv6NXO2mmSAxx6GavflgdTalqs7XhmLatKNGOLb5JCdZhd/N5R1lq6oJFJSX7qCWwP62LivSoE/XXNclqCCZ31HWKWaccREt7Tyyps/MS3H21NTgprAfKTvs3DDK5i/0Gcp01VcSEoTgTF6mbvExL7I9YfDhzHzVdPBCqC7SxmkMAYj63yEPwO6KAjTJhX24m59lGiC2H8BNSVsTLT44oiiA+wa82XDPAKx7sncqiK5k1h73fb6STw5i31+nrmlvkvPOYS1H5+Ov46KwaasQ+AdcAC3/4mlVtKvBae29EQ8/fn7GQothLND/jkpyIfZet1ejuiTHj+cMN5kiAcJ6hMRmDrahb7U5jizZ9O5+Z2HY5sle+FSWIUfy9eqf11oiGq6oclC4xR8MDU/iW+lMbE31XzE+LulQstE5YtQKGJtVruT4mTuflyDrl+UAb9wpWTLW9ZQDVvtYNgVfeZ/pBPCreYVQhbKj75tGGBQ+6H5QWR0orthsrKeDAKBTeSXvxv4awFlLqnxQkUMCprhVD9fRTkT13/UVXqB/3g1NxR5yz5R25ULP1tBWO/0JhN+r2GPtIw5Sx0jYL33hTRCtzsrgLIPgaHQ9gNQtSk4VzD6wDv/6jjQch6qiozhvp432L6bKF1SbY9Q6BvLdsxY77RWsMPxDrGKMLig6PS+F2AWaRWQU5EPtlcV3zniNFxBkBkrguO0Uog/7UWJUucRT2f1q14RdDfMVQbSgVX4bLZkJEpbegoqtAD7LbQgQh5atF0nsroNUAnri6104HmmyGHVfPJwINfcWJkadYTlmBbK1F2XjhJODIJ1CEVFIyxCOivxdgToAbuqW4/S5K0FEw2f199gz/6xxNKxwtWmG0Lwj9n7NWS/vQSNVbntdQZGrrbXKwA/PM9K1PGKRveHkXYRXkmcvgSLNHczS7RFyjeTqr/rNVb+PNCNNu69/jWwU9eyZs3fQz4kX1KkDboIW+lg2mEdu594FkS9cA2yt40i/IcfeIfAlQc/wWDdfdVFmrXJf2/qme6pfb++HNHQE1PlpJcdyKACx32btxfFj7iXaxCXq03uEw8wEEXASk28BE9gZAESO5JkD1wdy+A07Y/Z3p3kxmMYywIKwxJJAEUxFyiarxribQqcgh17pxw9dmFd5eddaV6tYkhlmnH7PsUvL1P6EVJ78VIA0nFoZV4Dbx/UR6CIfr8oeEyYF6Yi+1gGEXLDgcKj6BgS2IEeDDdL/lyax94UF8aGJoiC444+BbeVByx09F/VarcbM9C+MnE/2Ra+rI4oiPwdtqiejvjZe+UPVfRLCTz7opYGV2OeDJqF2sQtiIUJQjk51HugIiWNfinnAAR0Z2YcHcRYmbskYAbp6o3b/SIn2OaI/WqenN3HIK8XmJo1drvtK5ZBwRZe1ONA+X38c4FeqfGRQByAJ+mbU9gh63NiO5w0pknBAocZXjl/6ZKMyz7FlXZsfuDsUC73QgMr6QG6c+z0fs4uJ5cjJhmB8wYMp1mPzGPsv5O06oIEAL3dl9i/P90D3NFaplmH2VEDXW1uKK99oGg4LVE6vm+4FYG9BSh6WHWt99Ac15CVxi31gItcBBI8CIyEHHjD7iKWVKnK06oF92XPdj5x9nw3xBJ13VqU198OfrqsPAWebYF2+BGdZzX3NJnc36Mt8P2jixzx7eXQAaxYMES42drsxhv/4WUiPvr9uMusSNTpp4RSFpnj8M/u45eTnWLyUvYRT/KlQcrbcn2HC+SDfc/lYHl+AaClr0Aff48Ci1F9yz5O5ApPYS3dIhRJqVhyGIcWx+uia8/qW6WBcyczludX+SsYCNeEmwFFke8abR1hA/7TvUmYKJvALcc5qXGEKqq+xSgCTdYR1IqJo5kQ1yTzK1QlxlzkPsBZHsxXtaO0VDHJkhmHUoqzAT3lbf23afjEJ2m4yAHS02EZWzKI/L4Zo2DUxlLTzFUOykq+rmcx5+NGS2Q4Xie7l2+yqbxhNjj2zp4W7gD8cYecz52DqC1TTt+sNoOfM1UKSEGleVK8/ForZBsVCsuFcU3yDFe4OY1NVyRpq+W1pQTcwnL3hbRtVnmdtmWF9fpawqUUAbOF0ApRoZGz1qURaV/gycaIekHKbBLUj/tWXqKFMn8x7j0XdEOkyu3CMRutgIJB+VgxqRd625hmcKhoQeySCpbzz+Bu7K84HdIBYRxZzrHKD3rIftN/p0S6UzZELk9jicyTseTZh62KgUMMj4TqXNcIznw6Ef2gs0/D1P4saiLLZEeclIkczCynJcmtw2AITzpcOKFs0/ziNrjE8OTkrGzNAJsWkr1+yJQhqb9fbZXFozTCC3iNHZUmvMMSFusOxhlFhDX4MZK9vdYmuL7cb7f3SmItDrl8yThRHYlbk+KEnzqTRgTt95Vcm/OIMZGfbWsdVl/SSE0f7AYT2v7bYzxbyIVPAp/bs43iqJfENdETZK98KTHkRRXMkk6Lk0hEwiw8/Y2CpRFC/1fBEqg6BpTbAB911IAfeazZp9yBvIWJYyf0cWnRdqUzaC9IuQAsnhVjme9h7wYKN0Gwpbgvd6LR5b08gdr7cxqGCw8kij0Par4weTPY1w3aXZx/q6GK2rSqgOywrAsXAxwNxQMZmoBH0kp2wf/iwDvh/lt+rHW/tHqzKb+MAaQz8u5DAW//jE4yiR/k2n0kYPC3n8ewU+/ygu7kHZB6p9ENNPcQFh+i1CwtkCIrdiW7J9N+SP9T3XJy2eI56JwDGAG0U/7ZJhzM9ZCpdAKk4QwJGL0niPHAb5uotGlI/tFedwUKlu8zokhg87Huh5SMCxh+bxEWJM5BlEL+mzh0R2FlBqvCfPubkamlOR8oKooWSgZJOqonOMQquRIJiT76AsdsqT3XzdwhnB8hcF5WH4wOyaAhbrn9+YIddk8h8Is4eVkhz9CGr5Y81R6r5W+cGM621VgId5pPxNg9jmyg3UPDThJSD/+8YFKHCi++ZpW9u08tLm2cDiMFZFyg0+LqzkTmv+Mt+uZbrK8w5QUxQCcSDgic7mGZkRRZVnAyffMKNj9A2OWq3yVZ9bu5+zmsashOlPINnL3MTzo+fnP87q4jFgYGOBN9izn9hS+5e+2GspCQV2BooupyMIce00NAgyybIGfivc2CxsqtfddjgD/UUS5FbhHJJAUUJ6v3g/PJaqffKT/HxaCzKPU07voARM/4B+DfPbgzFxtpbnQc6xypxBxSz5TV+Aa8II2z7wJJ3fu8KvuC/Ymx2HdaKw37uz3e4cYj7KGMvS3uHrOOFX2tHiue1KsN/Q82Qez0kz8G2lqiWKgW4xa1eknpYfBUC6Q/dFP8z7IT6A5H3iRkZvTPOuAiEL7w3CuH+vFJK5HL/B3a6mJy7VJTCL7zQG6xoFYr0oHr/mdIXzVtC8Solb2t8XeykzrjcJHx17PJDygK1j/rKB9ghIXtNbtxgB5Ee0hiMmvVAcMD4E7qUqaqd8vHX1fAGiM37RdUz3T85dOGmm0ACtpK3mSgZyy9s9c6UCEp2/MnhzcmNfkguRX/eFJ7ZGJsFDJpZ88FFo3KojelIYtTUFmv4LXq8DZqUSyDzw9pcUWKErHQPBdHX94K4rA0ZNxWbkP6gU/XHZmx9cyM+1gHx+VXFLXKoomh40M5aFKv3xHpzxlvavZB0gPzFdNLSvXi9vk+u1yZk0G0k7zviJ3DTVi+tyW03fxb+L8/K/0DXSizz53EjgmbiKNeV4+6uwvdmMhJe4a+GtIwLE3h5yRyjkdUjRLSWrouwAaqNgpLmxfZA6Xio6egnXFw6ir4MMjUkYsNdRzYQFNNm9X79jLNMpJ8NTpg6h8H06ZxOGKJ1mvxEdeq+QhxhRzxWORi85a6T1+7KImW1n3nrfE9HTPn/yJxwPLCRR3mJRVMkVz8RO27wgbK12Rai6s07Agmwxy+3x1xB6/d0AO70TYariuP0ZSdd6IocBQyYqm/o4Vs6dQr3zSM2/QHvoPM52C2Z1QWR+jfa6PxIZE3b1zsfAd4eUXIcXTpPSIVvrFd9pCiNoVFrD4ndgrhWEwDLYWjn0joeoCZ/olcQDaRp5R2VJe+fi3UZ04DxZrZlycZkOOf2/zxqgwH1kyBTZYUIgC/Or5JMJ4Hw4Gm1cpLDQkO1I/GdTlH2gMaYcsPNO6Z6tMEoMczyxc59O5fkuzXjovdozy1i2rZnyA0+kLIKt+VRaFV4YC+KBTYx9+5IVKCq/OV4QDVzjj3ynAIBJdHvDuOAVfAc4MAbHJC0MvzvimRUQV7oOX4VqKWmrz91tSybUxn+lBBSnQ6jZK6rcYcf8SdfEFcYRdc3M+74WUIu9tCTF0TtRQAaMTXhPIOWrPoPI7UWvROqkKRr2sxa/1+Wkibs/ya87sLhuGA7xGjNwpbVIhtQAU3korOPr1lkZt0n+MBHr9Ca81nC+sxxjyYYhh/BoMMaNJiRFwit2R+IALD7KSsNbHGeS3Z+z5QgCZkRYiZyBXUkH611mXFZRdxDMPv6SOcbzxiIypZ8/DLYayZs41GWr7QZ8IOgp9XcjNRhEC5M5M2TU2amnQqhPZs14kroDa58L8sCcBJWDfQtbVO55Y3HwFIIHMUtVKEBaCZmUhNm53ZJlWB+1d3dx1nq30VajmgjoDLfrUuh+voO/M6PKnk/6sNK/eA1xDnlFhC0OGJHhphMQPEhiUvidjhNE2xqqQOquUz/WEWGB4+qx71sJVnp6V9md2Emq3kAxD7S8LyWUApm1G/tItjCde3G6WEb9zEz9THYPMdvM34JzV+zbtoRsFCxwX7aQBBUespcZJpx6VxH5rykVkIB0uxX1Ws0gbhAAs1Lf9YrdkbvMA7DTmT2Baoc8zwx3hTmLUbt6pPBAxh8tGBDaTMKfSOzktElXVi26jltPptF9V5mseGnQbWINioVlwrim5oYLudgUvFA1AIZAD7CrZHQevTOoniS0F/t+rLyim+p9A++GmER6ZG3VsnEI7VWkauxNS46NiUdSOD9zJU2IVQyj0vmfI1vKczWULMhmrA3oJnHYzMhS5kk+3KzcNTnxJyDmKEt+f+Ngyb8AHOkbMmKF+8Hj3pFHxopG6ReTobYHttV8UeFZkhiG87qM/qXoKtBVplFP2BPKRhKjERPPmi3rrrFB/K+LMqZp6C16U1IFr8dQZDFOuTGMnPqrLOgGNAEqxhSsFvy9spS5GrGK5di+1WeHZf7UzRvt7b8qZKE2Aydds+b0J/KNK0MHgV3231DOF8kumzSqlfgLJm1Xu+Seggk71eu4ghWQeonPu8YBkD8vUNH0QLnPUx9vKIToZ6tTZpn+xpl77NALNzE0gZ/44JMGtOkPPmWwDDuJfUWYdOj0JKPSQp4U3ktz7KRE12mK4/5x27OIHqMhFgTzI6h0csMBYwZBMhcLzE3akNqQPyVRiu+25IIgG0AgrrJH8qNvJvqtjlkfMFJNFHQymwQW05E7Jv8J0jixOylMmrDvCIwsMykEn6/BuEyYJJghIfx1csPXVv9KEAMca+n0giai46PgJbAqPIrAK0WgVoiqnyG1N1GBnaKHR6ySMj4Q0qQKivAx1sOkrC6bvvNAuaZmHubWg4BYqUJ4yk7xqh+QEUCtti82/tHS1x18hROf02846o/QDRVYDnwqjDXGQP6mT6w4QNF/JZ1JOlM5g/tj9CunEmI/HEGy93EzB7EHsyaiLns4KTEf2XoHULjOlYRwS0IL+H9XbCSd3fuPYDBw/u/m3AKF4qnYeM9tuAaVe02bmoCxWXR2HqLPkJUGoHY/LNTWZKfQssBWNQdxcFelKMuZaZRT91XSP85XyiuEhaAAsqP5G/uF5Oo+8K2Y5XFFauFpNiRroYBjOLhEYIpirbxKcF7aFJtdXzKQV5Yfha2qHWjExG4JaQdy/if8rgfJ7odc/uiTqAXN9uRZthdlEepx2zjWYC/r2Fh2UO6fPeATeURo1WI1JH6bVTw+k/o3xtzXHmPYuCfkj8FHHESa3LAg/UGDoEbrBRhbYmoAtpt46NDcLWVJd/S2wQjEBfD7U7vdPJjpZFAGbwshZje1h0S+bZQ25fvVfvj13hHpQvL0ZSiTDuJBARTnAAxdxc9lJ8MCUoUKfopAJagI2jGx3C1ABnClnzkCX1Vqw50JBWpglfkYF96+62Y+DXi611LYTOhm3ODNsMC1sjVq02ioBnXwuQt+s5ECBps0Ltlwl1pl/N9QaOXgbEUAAHxzsEKJFhyGby9z+I7WWura3G48/GITtNxj+gq8Ik3NgqOQUP5MQjpmqlqJukuX2lH4LrwL3KZn/eqXL9agE2be92BKItu+fYnobukci34VtC+k6idPQMKNfgKUuj14EqVnFicJc7zsEPnRUCjcx6m4GleUjhJZ1IGq35KVu2mpoELdoUqmZgxdReXU4hp2e5gy0/qLM0sADUsOat7O2ZWhJVh8AI+bGnuS6pc41qEBZc5nx99mJLEnix9jXf9iPlf8h/sk44iR6jZ/Ii6rgw7+8YVHtRirv1jT+tuQaP/m0rYrup6T8T03wyJK1EYKOKW/YFgOWpZeLrJaNW7DRJP/F/u4GCW/wI6NTFaUi3kB/jq//PKOwbNQ8JH75xldQiwoEXg75kxJxhEG+3YtQQ7SjFlEhn32k4H3uCv9GQJ9FVhKxc1pOQRoodu/VyStjlyQu5mFxbUZN50MeoXHVgA7F2VH8F9QQR9bGaAqZjH3nsX4npLLK6xGSELkDZrxJoq65QQF8OP/ecMmKMmqbo4hatT7UztrQRylKGouaLwV3L2cRclKsP5R72i1W8Egf1+NWyC8Ou4y6KVE9B/R+wbZvU3Thr1zoDHwA65M5/XZaAH7fIQ/A7ooCNMmFWn8fHLzl3TI0IT1RwsEoVaH033FJIfXAeD0rNQTfrXLVssJVj+I0JyV6b3PfmINQ5gkxJdwSuMo9T7vbsliAGE3lLycUgH24OCSCYMQD4bMlMGXtMIiguyQBsuO+aI3kLyawrkwfj140AG5qUUOxr3ZvLcz3q7VeL+f1Wq3G1sgqSQ0qS471OdZO8sFOLmw/26jAmsS9tbwKxtUA4kJum0lpf3DZ4x+t9lwDtpT40IWAeqSurq1TETyebdkx013flR08yG4LVYCwhWhIuFj4ZxYTYutymy9wTzKFfrCU15uANFUr0rFScJq+H88ZnYIuGUOXEUq4y+A2Fe8tIwXW3lw3aYwB1i10A9tcngNXA56C+gmz9Eooa9K5hJTiPkRx1D5qNhTxNBJV3Jv04kiXmPGYkOPOUKdfLb2BQrG07UDEn4iP2YZrniNCX0/d5ulewB/S5S7IRh2CngHHpwFJaHEy5WCfaTLP8SdfEFcYReApjeNwV/2ZaPRV6I6jgw27Lja18X2z1K2E6lglWB6uZpYAGpYc1b24mC4U/F58xuLQ03FY+ghI01t5e1cvANRC/I25jk4T+p14Kd/oA3J9RHLJlV+bjW3R2CxuSS1ScXCU7428jI9kHCGIJa/7QVpLGFLGnkIYVxhTQjWKJdAJb36SBqRP89TEuZroUzveSl/nUXw5KPQ+DhvRnd4aIGT5jO/k3vJXirTGqZW+UrZF/mF95siduGcnk/5M6t5rkuoZDt58SJS+64yDFrtlQP35hP8tFEYOR+vlBEo/3jbwvDEVCWh1P8tDM7A3AwkuPdm0kukAPzHsfdfu73lzrTtqjtDa4hzyivIKqf9suTOnSPvqK2wdeOpWyAK8mSzD0b9jvWsBHuFdlHKc++/LMCiK6U/JsnEgBhMsGO9SrdKC21MSDTR4Hsmd8b7QnZpvvFLJJpqnfyTqMRA1h5+sPvSeNxyYD+bk/xTw1IjlVBeYKpi6Oz3K/AeFkj1XSAMP+lZD723RmyChC6SplY0PEplOhKHdqb5LggpQzZnIIPxEZYTejF2ilDqGvJTKsQaTPA7MTb17twD2eKf/1JsE1ybAbgj+LGKYvQHKLPlC7wMM/s1CkN46Jor5l5GZPRall70fSHOZeITJckTv09sFhcmIwCQxaiLfZSaxWXiTRWOph5LIwr70M8QfJsle+AxSJKtIa51EFlQqNUMFsyoTWy8lMlnz8MthlbsyEAIrvEXaOdwsHJuBls8c7ySB+uk3UNQNn6WHp1xgx85qmo0UCbVzqJwxwr8OfniqeNTk81nU5/uRtWvOip8RhsTY/zJWNRHowBCW9tkGEmkHyYcbVdKZrvNEqD2eP1DsQQieTAzQ1moyz4dKGq3MZnv0e4lkcYJUVuVv3P+Nm85GlM787HRTuaf+PKLekSaupJldqQiCYxd06Ehl4KeSFDzTgDzarfVTLhV5d81BBuHxksWyejjMsrJRnVhyJHPzRJKW3kHzy/jspS+cDukAsFnV++7ZgN2WDqvTV7RixKzRGvcTgB76zr6YKjhpN0SUP0K8f63UrVG8kpOfP8ZlZpKk+WDw0jwBhVJSlHUu+MIaoJ/a4kUfDeDWiKF0Axddjf2aSxiTVZt6bl4MUi8hYBaLSYbjuB75sFz6iL2U1ePl0lqNjqFAtv1P+fT5jmaMQ+BWhQD5rIMrmcHANXEzE2+EXtr1c9PDZMZ0WAUOD07CAS/IsmNgGfJKUlBzrAQZnl06kCudU2SoVk9EqcZCBxTKduZZu0ODsiIXPeX1F36Gu06e/lh44aKUigWpUYxU1MWeYl0sMZJDLuj9NCjt01sN5TvYhKYEQI4rDzMJuDV10m17rs6evjbsYYnRB3HaG1xDnlCqCiKtIl44XbB1Si2zRmOV8zziYvExaNyteR3DQAG5x/HDEkVcJlPcsvtN2r8ZLb0IXHhZy2Nhis8oCcBVOM+gahbE6NSbH7kmz5icFP6cmzLSSjAIbWVEmnW4blXyS5g7FDewuL5ueIpvsYR6NNzht4yYS4k0I8eS6t8K1VAuCab4k8LqAKszJT48ZIPQh5Sk3XYbxiLw3kRoc3ZCLguwQANLY9yskHeoqJ5RU+UrhlL/Iy6fW8/WE8xf9FjugWWKxASUe9F2qbpSORCfLoB+xzHZDBmWkzI8lwhKv+2lZwV+5aFBICn7PbpgBP340bt4KZ0zVWc6YuvCuv6Aho6GqLaami5SrF1BRjAESp9Vf57G3PxClHKmoV44kcG/SGaUsPOxrxK8tabXpXzWxsUhWIWB0mhnIMsYhW0q8cm+W0LiC0ky1rP/Xo5mN3rk8mxbHMwIxNykFDMMdM6S4gJvgLvZwyjIKfusMdDLPbVHjhn1y5AUGQWjtWjK0y35nDJf/AnwhC4KJfWAhINEGRs/8gClpAL76Cr7h20vKobkT0YagNiDDMS8vyfJoFZkYvT8UM2ddcr/spIRqdOWIOdzL0om6hrJfl80rHGQ500fekIoUbJmBfch9l263CaM5w6xAoZptmdNlYnyL6jusey1vh/op0MwX6k+XTLwzipqw21x9bs6CC/PZmoeeMLX4q7zSVsl6SbdEsFDmTQl4xRW4HIQKkp42G6vxMm0BHnyc6wxZ/5avdWUNkY6BHPjt4qrCndlHXGPC7bKOmyOdQ04BGTYIBbb5gqDcvHk4cndf4HPfuTTreUMJzJNLYDNJgt/6GDUq55P0VDHJmDIzbCFYk6XShuz/yxlADKJUt9EQvKCzHFIs9UcL1kwVGETOozRp6c0VIPdYiL7p8gbNjfQg5UpMdK60zm+jpfsgIFhPkX7j4JaGvCQSEeV4xcY29PIe/7f+d6g/gPWaotD0aSYgprN6xYnnI4tmLAEY8dDbuNdnd0gYMTj0vJTr9LlyqVo8wSVxcmeA5HtiFS+0/4Z2iw8jeMXTNcGOTSED09rgAt/RBlhExbcdkmMttBX5uTR9uDaRU/4zONL/ZSYHp8h4rajd1WLtiYxbSo/XcPwYM6QHCGAJosalokysmH5/l8Jn7VQSH3n0rqZhHBBrcR92zsyaCOq3Mlvk1nv5iWimc6rPyXZZoBsigHzhZV+PKZekcULBqVadd+RtNXXbgWHyxHRQ6JAJBdKdajMlIVtBUeM7+glUscKFXrWvLilquqt6VulE3YqudCVBTWEQMFq6TrLJ6B2zyFYaGD/DntqReNOe8iRqOTZp7FmjKxKqHwHEhLQWZR6mvfv42EniIOilXGnF3ZWV8M5KNGGS/rf97eFyMDVCVPmXxW6XaUhYwsqoNp00mkB7Jlj7AZWmiePv4mahXlYMGZwHaF4rRoHWsfH3LL7LcLPv5Qy1Ig0sfuHIkrOqUgWQc3IImZsR5mU8uPPpMnU9V6jE7N0AvyeVoxEaE+bdvfjf7yV9/vEB7NJTMQNosnEQIqKkaZwbkzVVo2+Ou5e6MkOosQ3ZyTce50hnn0oSTPqohSQtw1CisfJkwDejUYl4f8IQeoT5z3MA0XGkr0gboJlQWEMDglO5UmXY+/tmz5s3LdULQOwu8HjMRIGjdaYs64j9ZVAIyL3XKE820xKAA4r7jOx7mPPgiKCTI5RiqNJE41Y0OF0ORc7PCPhFYFdgBsYRd/bOkWQNFRiUSDFTH82EBYUXmNhu5U/eIhSKK648P9TxvT6KkI5o/YVKkV5iUlGtVh586qoMIA1urKjJZKtr3eYYmpxesQ0C/PIodnUvERykW1a7wGSXQb75jbIAn6cerldM0f8fnkScjU+W2ZEP+Zc4emv0dy20EL8sQFVmUo5dyXWxL15w+EVX3Ju62TFy4Ij6Yl9JuyIXa2bOOH6YwdzSdMnwDonxk6aClTwfSzEK7l5w47wpmMZxMfTJXg35ziuwK8L65FbPCXmDM0hjqVNf/cpZu/5wSkhNz3Edxd5cLYh1CLMQlSqQM/Fe5sE5Jk+mEgHmTaTJKeynZS+ey6Ekaa1b9/2z2lRVnM/SrvzrDOvYuyAcn6OhSIOYRaSgD7+k4z4soNRHEMAxx7YMoEIAZG3t6/+UQyLc6nlz9q6zieFNnThZKiX8DtrZo3UodptF4nSPzRAqk2t0aZ/mSsah6TlNmwmpB8QchQgq3wKpm2Jf2QKRkWN63/KnqdTDPTXk7qzoPVIAAAidGAWdOHf83rR6e5BRU5gTH/IUyzTznJHcW7FGWhHg+MAyHiMkEiQ84RiQk87HJuXUZGQMZF3BgB25/3rCSinuDJlCRblmxuZ+x8buAl4rSALW9pqmz3uKhWajkVzrmVfcLDydfxJskws5wYnvQC7SCUtvNjS5XjoCKht1+zJTEJJyc8nbtAcjR67BwELNlIgyhuzLZo3diPlJCOJ6gyK+KHqrSc9U/bs9C0TUBJiCN1GIp/I7y/sT2r8p1rTxr5uj3cGxOk/J7Xva4TZcFbDxSCWeOGeR9kfgqqK9ymvuhOYo5PZYWtAcuZbA8u2zP1hJ/GEGvpzUdGYYTMLGJSky03/KYeAR75gUTq1VqvLLnQmN4BoMeBV4F60Y/cLEOwjembjhVslj8gHRUCU6KjRV0ockGW0/OFfZa99OnPc6U0e3CYeEZFJwT6xGxIZ5s3CtX8XRJ9TKm3iuyZ23L6/hZ1+MNsXm2hDue7EmBfYC1QsKfOPD3gcpyyyzY32DBUVkglZjgTXMzCzlmjZiih5BGY+OKwH2cIE+X2iy37X9YY9X7BZ5JrE8kwFvkXd2BiuH292DMaihJ2fV6YkAjAycrjxOo005HEXrcrN0WYLLNZU/OBf++CbdO75t0ZQy/EgyPERvUcQbVeTjxHSBBWIcjpx5eofI+sHqzcSh1qQjtOPUlUykWnm5D+28mfcQFBLfCO3oApSjpQV+VqLHLmi//DbBUdBO3cISvovrAAsQfu31yPtiVqIdbNGMG82gl6D9w71mijDFsaKVTYtV0zPaNz1dtxT2XqWcOAkkm7YpHJz/Hn5L1hdtuCOe8kXyV6GEQ4rflYKvNbk8a0Yp0qT222E+hFprU4BM1BydMcrYZUu8LX8UAIKkMjfrca1dPNDgXIfes+Pe682KXOq06MdTY+UaJ0eSwl48RX8mCxIKrNbCY46tA/fAeQSSrOL70ApIjin+yBRiWJbfi1zZ/Xb2CTqtZkskj6gUbOhsgILKdDsac0jbQKkMIgJtnplFAa5RrEVY7mrjib/EP9fbeC4BMuBHyz+h8XNF1fObQwQ2YJlsBuw0jExKrQkivE97QU2PEHn3RVIcuwd6d5MZjGSnVxDMLV/uB8VyARxNXR+rhHP+kn3RYkaiilkXklDKAGjZE60DIHtoBhcuaCo4DIkA4ZrHir9Qi5CFzpu+fd9H0b5AYwYmbc3btjAQv4lFYG3fbwmjSxAkZjBepgYd/24YXe9D5WPYYnjpfclJF4RchAUzRXDDcKKSsgnbRdq2iDShwy5P5SSrcXpIrsv3UAPAz0+odQBqy1frgzjbMH0q62n7KuWWBihD7b9Twp6CKyzDg1GqhFAFlGHF0M7eLXWsdZglshLlS/WlqbPRMnqqjRkyrnrAwICnMgOc430sT501XZ7jkRhxeSUsPxug5OMk4/xCT7+j1/yomfLUfZOqe3OgRnp0hUczU6UTGjj/z+EXx/yeswKSAashidUBpAvVrE2MmJECTI21kG3WaF9FV6AbURxW8cWgaNKpW7c8JJEaxu0/VxydSQpa29TQMOjpaJy/CFFi80rBS9mkNJDmGOFXzSwwfZ+udLpWkQHeoIFMYpAWXh8jqvSKJrNtNyOYGERlvnHTRhTlLFdoMdQDqC97cZ/tuVzJq4bEXUuloEb23WU05EJ5xpwaCA6VP2jLebkeCYUO6i6Ns0J9dDlFWoZTuCtxLPEgtZWarP3TUpIpKFT7HU0vBA8sg2M/tpqf6W+6TB23iZxoavqA4dw4fLqLsNHxs9F3WFfU/5l1OkZ6EtrGBkuTOxz2I0ldegs1ep+H8ELLpV/M8QZ2LFYbmByo1qR5sE7kR17AbZhVE1kcEGOTSeyLw7TSH7QxUu6gZIPUwFJE7nBBdZitfsipG+e2GRxRjN2vosRpSfGchQUXOWiZprvkZPUGNdGlVWLIfZvM64KXMZBRB2y3iOCVUr5RWrH4ZJsIvSvmiHX2ShF8Nq/5QHjL2fjQ4bwXkffsSr5OEtJGcS8hzWySCkGR+RtJKNbMluajjHGaIEwCaLfMTLKH17BG87XSdW7sCJwqtwQMB/oVJ1wwrYioQs6FI2nKdBbuYaHghorFS/BvsvTEhB5elvC3DZlf43LKGztkyK2HyPGNyyh9Jf1JE6iEAbSYFpvYimKYqdFLE6TJMj4B9eQcSdW6bViKif6DAvF1pmBjzCl8j0hXYGA4KL8MfMUxwIJcMVeqse+jCydXI2neGqZfeGJW3syL34KgsrDw5AxhNPYBJZY8xX/w9CL22SAwuBf9G0lDhiCPN7SiY+6+iv/Zn0Co6aINDlDlE/m18K53jdWAttw688ef7Boay56x6tZdZer191Kw+UNYgO+r73aAAAGHT3Zoj8I0gsphXtHFhCG4Ti1ml3pbG/WfcqMcB927/e2obo6Dp9tSaVhRYOUvaGJwCBTKIMiTvel2RAjQ3INvZ02xDkQaRmiKdAI/3TtwdJlqvlXO0yXM4jDm5z7ZOfdPSfa9JRATzTUBIkvtTYXipxM7V3vVGccrwQd4n0sdq3DgwrxUAX6KlOPfC4Qr/6KcA7eCpYWB24Basa2jR+8OEwd87og+AA4DOBH79rPKZi+bIn+8Bm3SyxGz1gwlfVhHXj5wrZmn4i2Hnzqi+K/JUhzGvwE7b/rhUfZLrSI/x5a4CEen/XU8qktxpQr3rCGB4OennhoetNMF0GKHH7emMEkRJ1TEezBkV8vI2W0UC4VRnVdWRzD7H7OhLvI+oe06KqiNYB3IBnrnZraZSF2hBGmTbHHft5DLOqfV+qQ6Flr8sSOo0Zff4tNd0reUFet3DXHlIX5ETIIYb4D0eTuKkPla4ZMuwYudZwLMv4wwUzMrFQoFCyUDsrMIN8TNLtu+TP+StqWj6lq2A1EbA2yoqpIugZJYQ7MleU+LOt/wjUPQDXwAL9lCd8Wsha9hGxKDEJ1K+FRk5OwrshmKSVwkwBZHoYqHzDDja/lgbWmgMnkGxxrDRzsCoxUSR8mEYd8C2Sgh3GQ1R+jGdIYjpCT9reHQlSxofkjh5K5sVCxh6SGhqdDVLgZpbQ4CT53qN7N0s/e1BTZkltAT0EEHCtUewTqGR1wzmrsix1ndNb0LZER1aHN6vmZKkcTV1m8j6g5AWIT/bHN10uc09Nyn3v9DwkbXxFCjMRupL/k8rHhunGFty+vBnEJQBlAvF0ev3odV1LwRTTOXSD9Ft6R3cX5eNjGeZRo1Dn8qQfZ7Qw8FY89EsUGKq3QpYBSh5RAs/iH42RxGJAKCNwT/vMa/J1gKWDf3qkt6GAXVf8r8MikJ7XxGVF7EdyFB0ID5NrKqSIAX/VKvbeqFIjj2sKwYf9raF3w5YyPvLIrSH5uATRW5K2pTKyQTY+xQpWue7S/3DnqK7iz4+og9hSpadKrO3VMbxTUZeDPUcc7h6/aDmG4nbk58pl0kc6zrfDhMJs0zH3pRZEB6G3SGbzKnajIls65Do0hFfr0OphNzF9cIeTNW93SCtyYOcDAoGqgxWDOEzmHwQ1ZZxQqUeZna5fFYavBTrKTDPnNlD7jvb88qUJ4MTNB/zTL+iuXTPXQpV3GlHXzkkrAvmRKTZXbQxwqB1zP+5JoJKXzNKd3Hc7emG3UbZ304GJ1AXViyzpfvEiw7zkOl/uDv/Rx7I6d/e4x1AJs3ge2LkCc7CnHYa6FYaC2A6Gs4pDGqRDIv8O0g8CyEnpbfbet63zTCMohLjUEAobrbWSbjnEJPJDjiy9jAM3h6S8CIl2tOXdHTpfdY4wrSQEHib329iaeuw1knK3RJHR5bBbE0H+bTR0cmwpLLTPJLORuCKJZ+iF7WINYYyvIAriKFDz/purD/B34y+htC26K1s0jlFrvLnJVYKcVk3KVq+5jmJPYajT6RgpatERUJGCjTc34rzEW2X/Z9dJR7izF6/BoJnoLxr7+hCH73k1tHzjlthGvkQg6OM0Ej8FonQETIZCrv/6ftxQ9oowxxg5ElMuU5OeY4D5wPqs3IZy2aLgfVxi/9B2YbvVJ/dCiasL55oCNsgXp0oyYYFTgwrJ+arbB1jVwD+NlGJgk7/29V9Wyo9lDHJmDIzRDYdE7lB89SBLbG14TP3scRk6NKvTsPlh8yh0UNwC6arazozLs0SYfOcbIN/kn9YXOwj6mORo/qmkL/9pOZ6lt5rcM2bvKU/1geByJ6FMQJ055ypsoRE0XMCdEyiE9PSdcFyVZMWXI+5ehosfQOOfYFOiiNK3olOWCio0dibJuNJpODmEyTkD4Qg0xLa0uHSPeSJLK/vGH9rFdmuaakW51wUUs0j2e6l7BQWUIigWSGAAAPm6yhKqi/SNICCG876EqF7CaRqNZ/g29LTTfLuh1IswmAHp02McsJ1dsCDF2+OWMGx+cLCWjed0ev3rrNBBNPLLdHFpESjlrFQMLJdSD11al4myWNKe4U+egyysD28XEnBPifOFCdu3Q//xG0llRA7Bb8vaZ1BoDQ5LYCizifR5zWHtilYqKan4g8NgDDkZ+FwimMpQr7UH4aDaSmXTDUeSo2qCreL6QTeyq28J4oTOFyPQdlFFmHhHroM36zXGoAMDRAIuXFgs5NK9jRluahckqADavkR4tfM902qfR2sHIRo5jucm0ZamD0j1oPcZNlk9gS37C4H2bzOuClx4vwj5qZLxnv8yrtYhkb3KFWk6p4YJFh0qscjHuM9h88Uv1CYJS/o8gPEYFQxJOehJs/WkFcKBWpIbX7nBymTJPs4UE2X1PfshU+PY3PlaZRjCufZKkMDqFhg2s6H4bbQdVXM+1nHknAbzo5ILfKYUuNIY3YsbbAjUW/yOkEJomO4lyJFQfNp2Q7gyrzX6j2s1g7Tkzx2JI8P7IGn0h6yt9r0XkGIcxHXyWCTuTnw81wzRd6ypYyo4AeLxcTgIoAHn8gJq6DJhY8tJnPM7osFECM7ZYkxz8ex+LSz9hsn/emkOkxyr3VFZqYcOzjMITnX3eHi9eoZgTAccLYPSjkhOPVzIiH8LNwgPhDyh2YnRRPB8C1lBtb7//C8g4URam8nMTkIAoGqfEVjglf62mpAeQRRX4O6Uk+xZq3nI9bwFCdHKCeVbULtScd5DWe0ytcybDF/mZccu4psKF8TZciW9jFrIyq7T7Enphq1Ur8yUyPaFhRLc1cvWmnjahysQl/ipUg0fV0Ib21SVhb1QohVl11kutybtAQh360mTetC0XlaTaSp3OFuVmzvl/PMKiG/NC59qc9HQexlVTSLwo/LFifJNocmxqChDsO/o+0WL1HkBVZTQbHIz+uz3Cc/+d+vJbwk+beLfqox6t76QAX0JUCO04Xuo0pjfvSJtAgXkGNQiySxoUYUb4CNQl4wB7TviLjVgmNU6XDBGKCkx4bE/Ta2B96DvsGKVzij/DGXG3EOItGL/SJYO79B/9bwJBRt3SvFcmfRMw2HbFy4u4QlvHnE5CQuwgIkfuEhwtLnzLULyUusp23MNuZJJP/6RL9LurO+XJqeTEmT7E4RwNZP7wB/LL4b6KQK57o5SCiAU9wgyfdhyru9MPmZP2PPMLvMyoazaFnVjmRCKUjZkKTWTsMQ0Z3yM1bpCAsRlgNRE5JUgL8WBezciAWIYY88SAA/ij5cSmcgne0KcU/jfUat6lbQ0gwylP83oIL1X7ubZ9KwqSEewPqF1lX3zRiRvWWYKfUywmp2t5yAAojUnnP9fIxwva93yLbAOamPLzHzLQhD2tGgfPinx6nrx7ifOoxy6G9oTVu7tMHhQANZg9wnBQE4c3qIHrJGQWlFtosJtcu14EQXHWSvY3p3iqzZ5ZoY2Sl6zA8opJb4XxRZNY+TuTYtg9pxcR+ZXDpFnkrWgHam1gOs+pIyiFyD6PkNma13EfndlyxqttkB+OAAABr9VqtxuYeM6OUns79YziRPxLKu5WhI3tZCebUSiuOS/mk7oxuNvhoSL46mA5eMdHcHpbZ+75kEcQNL+XI7ttc2SacUXTxg83hHOF5e7OmaWUvo3Zt9Fj5vJY9hY900xL+Nytw5wfgo9KtUeUI5egBdsQk8P13BaqGG6dklG1TjaHKyGcdMiVJ+0eD7o3AywkOmkuzRUPSgKAzeHpdEXzRuZd8z47x0lF1RA0u7r9ODtYwUEp52YgV7fEtTAgEJJf5C4wJ171hrJqJTmq1qrcHgJpd17hGc5BZijWRddDRuQGQ+ZaaJ9W2pVlp5IuL2qx4iXNpgM9DpLr0fPWy69mhsbQqYkqO78bwji0m8fGs1cdsV04hFw9sw3nocLBSk5lrEgYItrsN0sgSfL+mrvA0UGQO8TcwRVrksEzPKULGlgu6M52wb0ae6ktnH8HJx2fMFQtMG6ax8toBt7h4Qmti8doOxDwGkHuan9wpC6OpKseHlSrmEmg55TqnHH6hcYqwVh3zkTN8tHyC3EPV2mqgvM/bKTsjsDl09WNj59xlXqhSusgwn68yGlSdYau9FsL3KoYQXUNFLWqw0cxwjfUArlgKA1J5z/XyMcL7DbtMAsLdB3Uyu2CkHkaVFoXCKyRq+AK8iFwqnzLv18IDOChofhKHlblBkV8UPVWlZ0doTRAFdc0K44zQFBJ8d6d5MZjGSncH2nufqALcMNras5CpnDPDQzJIhl1jnpc00W6nRlcpby0O5yhs2av+5D63JnWqsM6QtQngNSeT8XhLTokYrObP/iFsAkZdXOhHlSLTXsqQejtfuiR5h53ml6OaUhTqGqBKf62zlaoV2QvMCbom1pSGxPK3+8J9kj+VGJPPAq7dT9iczXorA37MVhSr+fzDgrM1VEsl/Y56NSeE3wmjoe9kXo5Nzw1cVhw+FkYKPEN85RVgC92ZyAZTlLg5VXFaAP7Ext85MQBGArbVc2o4LjnDo4ja6XW6sXPJTnpUvYfJU/1Hf1DPe0YG09NVF6DZhrOtDwAjdfxPdwHHZ4xGc2RKSiAefhnFwh5II9jrPP7bYxeWHdk+HqSFtLEzK8L4ot8db3oiHxRMOLJKztd6dnNLqCWkhblQNjUagreV3xrlPmjGErzfTyOwqwegIscAAAB6HYDN42uE43K2mQghqKGS5ucsvljZFjUJbv2ZETQdh16ES8sZcklaVL6kdFXffz4SmWu6IpHOICWF2PUzqTJnXYtw+VIb0rA8WZhKAECJI3Sc2RMtJUodDS3VUke0vHEYBoeH2Uodbn2FGR2FN0wfI6lk11O6FO/CwAhQ1CLCSt+EEPK06GNNGBbFTSTcFTJQqRDTSWCXTVkzFWgwvGGYRN4fQ7jwP1eZPCc1RYeJ9xqRo4O6JyHsxgENsHFlT9BHwIqVRP48QbOatfGHoKuDz9XjL4v3csFWx7yp1jHe3Er5FsmtwWxlBtZWbiPawbKYGSp0T2DidDSh+QlprDtXTzQ4FyH3s22qAhWNhRIc2Qqy+mZWgs6GboEElzrqNVV1vR5mIrEZwK2XK6in7IFSY+GRd3WBpmR4N77jhN27cawhQSpue2RQdo0aMCvN5A3eOTKe+/vNyFaASrLRg7+f6uw/smq2yZ8RO8yaiX2DdHRvntPX/v8e5KuN1VhA4RYEYY3T5J/CsIhUJHRyXVNMNm8fziVYl6fc/QqaTi2OwChqnXPeJmP+7pR95cQ+NITu4SVsRjwk+nAwuuMzJzSKjMIG5NYQP8+okDOqJUHTwuxUjJsAjR05zGJVTaSmCNITfG5zB9g83qL4r2ujBuuOTyFPtv3FJfmg0bc5N4LSowmEXxg5gpjXRvvJjzPQuW+4+cRC18nPk/xFgRmIGD3bzsdoRrpdbFuNPQ2OIFYYFMzggAFf8WJiAxONoBOTnCajrQSoEF/W8tQV1rsX3wB+a0HfvMr7tHRILR1IljzobDN+tmPYo/3HbtV7kthE9eB/8e5P56ZdQHxmdx/it9B9X4jTB0P798Y88kv/RAVyemCKVrrun3l88Qk9xVoLDMrHVK0ZpROIBMHVfj9K76gW9o1CVjkA63n6RXPS58HF9ftvUBewhokVgCj/ItH/jGv+cD1fww/uH1/l4eazkmqke3sxVeVlERCKtxEziofd8qGO+F9Wg0enNAFGDlL2TixnjIuneSwzil0j3oSo6MzcycoNQ4hgBzSw92bldLwHbQHBZFa81FL/XLGaMPkPl1UEckg+Sy5nRdvH9xZYnmID/DyAAAB8oVqE4jcKHUvysHclEdQ8yKeKIDyN82t7fPqlRbWHgjoeD3/6zaWINhQc0BXeMzRE454Zo3ZVZkaf9oMtuKuqbU/OB3SAWEfF3QmDAZ66P5+plyRr3BTCiXh+F9kg8pIzrpS/jvdeEAyD4ANSmi69WX8iqT3hUFSLYa8UCAtCJR8kKXPzOYhpcnQFSkxYAbixJhTevhAfc/eY3fmkzLLqdrkEP24vcPHlzyGOPXiTRUluo7+pCN7mERvgG5vP2MhRbB0YcEwlyrOdZNXwiTruvSaelIs9hAzPLynkSaI89xkfVcgDJHHL5/gcHL3qp9qc7NjbLx9dU4Q7VumcP2CvGJy7L/sZIpjwPokN/N3G9k7ksPVhVhLtqgt2eqsAjza6GGB6n1TndHiMMMj7kgQ+yT2BDHUzC4QCSQaSomkxcqLNm+VuhtBlRXOVa+tlmZtPNDYHlcJf5b6ihCKxVwOevwsO1y1zslCA9eoQ98zWeP5JUnvRcT/iE7h8blh3A3NxD89ziMN+EpQkW0PbFuVv3C0m/sipSaBmmzlz8dkdfrb/iplBIB0ukIHAmB5rUpeUh+QqVKuyp9EPb4A9NedfrcGF1F+a/v5Towkv0yAERoAn4I0272xLQtBXBYYzTH72cqHUX2LBDtI+LnH9V4ArIqzI7VuRjq4wVdAaHaWamGrItoNaDTzyfw2gUTZyqfZimWMnnV0GA+h+/3Pv1RAlJRinOxIUq/NtFeyk3pjm1URdjvbj3I01IIt7LgLyDam7J3VAQAABy0DEf5bZCY7+5FfD9/IZNdV8es2D+GqNhhFg8Y/FBfgTI3OMZFHIzNTNCRJZl79WPpOAmTHIbcLJpa+g9BFPYEmOd0rJtAoy/qxksQlk418/6xDfiesX+j0Ro04wvQ2SJGg0XZlCWyy4Q24VTEd2cB/jj12WIHvJKHJ+e/wQoUv7hxRdW1TIK55eSozlo4YirB8RYyLpgUJzr7tgEZLtMj+1V5zBSXe3Hg2czO40SFMy7asUVLdtRCS6tS0uFPidNKGbtAkHd+OtHoRwLv1GD+ulxj/vXpny22vBXvQ9JnJFC1ARXLx3qPAgSohu98yPw+dDhYKUnMtYrpbJG9VC9JMnwvNDaAzzkaJrJPEE2iTybQJnIz0Tim7T0uFnjMdV/3pMYS5FXaYEWa/qCmOFj6ZGnXFPfikoRK1lmjMcr5nlnBkY9xWrHaf4CYXxMfD+ABZxUvkrF3na6Tp0V/7Or+LL+wRKdQXzQ4z1xGIC1cG1flUCnOyNAUFvLUChPyrXJcKhxuWHwEtpQNilduAPSb1/VL7vBoS3jhzMKjHwkOobMAmrvB8QMrF6NXzLOM9XH63CEI6ijA+wY8aQwC4/W4QhHUUYH2DHjSFh+6e838qlRmlX3oKYaqIpnzIkBh98Dqh+ls5nZUUhnxEYfyAhz/aLGYuQcK1cqrMePL/TjrdTTnKpRe8RMMpTYybiLzQYrBPH/ennImt8veLAAAAAz9lulEKWS49SS1oLJPpbWC1GM+7eYp4E0IXrJaY4JJgUGmqj1RcCyGQRKNgm8LPWv9ymLRz6diuBXYOvoZYdUmNcFVU72KZEmKMJouHsoXojpVMLGxNf5jh8mvm+1yCFsmvLsSxxmRoHlChzVvaWb2hW9GB45zH4tms465vic3usuDl1AXlJLzh4tJ+qnXcWlkEeP/MWkL23fxrr+G7xVmSSGCtdArsE9jwzbMwh/HUd4pwQ0K/YBFNdF4JUU+GVhVIiZmxJR3NCC2UIVHUQzLDLMmMDI4z5T7S6Jid839Xp99h7hHgq9FY+E3710oU/W4XetBU2us7zCc6L33JgjUBUB7k/CF4WkGDsTaVa8k6+Lu4wi5//biIOilXGl6iFayoT2aAEyVnT91JWg+MmYovVnsuzFP4iS2KkhVZexy1w8qeMYxEpytah88Jn3SEBzmQKaKpWtD6uGVhi4K2qnzHfjUz4E9Rz6Cf0JupGkHFXLiACAszeBXrD0mrsK3jXc7bjFyoMJz77exRO5xbQIbgzo0s0Xs+s7CYI72wWg27eVa2Rlg9KsMn/7UWHGA93R2MMsOx4Jb/GErayP2MeQfchIIJv6/hAEGQe6XVVlpTLartObfaUTjHUOjn8fyQjY+BvOq7u77F76FCVYJSFPO+D5g84ZrcELqogcp4AAAA/ZFlRe/UWh+xplzWg+9qFj5p+R1tUB7MJceldgJM/9UvF0UCcKm63rFCBceEyzfEgXReK7OjJiC4CZRm2RgVn6qsI70Eih+qBrZjp3NI+dmO02n0qHzNkZYU0VZvgIipuHZVPzrPgRVcOVv6blQvi05LlXeJKg/zWU6igpKG6CSRbu/6aqfozFGOZQrzXYbzz6JgDV64q8pwyJThYsOTpRxrwqmG9sgtBnEzeRQMTPIOl2DTBL9+avPf09aNxUwITtDye7o9qRl2xZYBVACNW3iY8ampfuliUqhE/H2kmArPY1ggdpgiR97Wx9gTfzQHlqcJRJQKpDr6vB6VekVP+Bc0BCnOXbfTAiBkRlYd2c6kbNchQfRysZfnIUrjlMaQAAACLZ9jHkut3/FPP31f6lr6ykYC7Yjum1Dc77r9TmPB44K09jXTbu4aA6NWs8V+t+RkNZAg0ED1W0v8jO0VZn7jefNcZmNAtkTTj8kscz/Iy7u1w5vt702OPC3dHyHE3ZoU1OAzZ5AUdx3RbTPKMCek7P75wbSybLX+NDU6vybONI3w+6B2mVBl7xrZFWTOczPIzgZyWwVUpzbJyLzUDg2alU5dGdYw2JcYrQGP3tUvHVsG+4cS92O/cWplh1tZtuullGZYp8CGxwydoMp5UkvYz/+3BxNOtywOtJLS+IdSemcen27JNpoIqP3LeqXuvDiLGERs2vjdkYVKJijzkuMZmqhDEzBAbT1snx1wbv6Q1oa4jFZZJJwgAAAAKxC6Z2FF9Yl9crEOUleWyqfjb7gRy0REkRqCFism8iWPOYmbZiQaHm7K9fbSBTP/7avL27vFSQ2G3DoQedPPm7kyGKlw7Yu6zlxMufQtI46helIRvhyYwzALZG5vB8NxYy36DxyizbVk/F813HjJ9qtHDj4tYwkQZHU4Yva+94JCS3IEbFL7yDpPmlFNchwgKVbMwOQPhAhyeaBuJWgw8Y7AMvpog5cyUir4ff/FpmP0J98HFKzAWB92HOKmRIN8YcwWiGcyPsbV3MlYP6yuGoDZ6BPVnyqL2AAAAAAAB5dwxjVajvK1oz56g8SGx8by6VAikll/Ar6wB6aYG4+yBwI+fBtfBR3n56Qj/Y3AAAh7AZConsAJ74AQCrBn5jmmfrd7FdQJ3MYvFQ6pTxriDvFjXFxJwCtowhDEQ4a6Jjv2qiin5Ohy3keLufBtTpmO/pTRDrgcCT3PNRjbvMxoQeIE4wj+MR0r8UhP1hz+1llHCidQzLTT4pj44hApmIewdAXgdWld3sMsp1pX3LvqGUPYzgbDlSZ642FQzDShky52kkVPgAgdMefMslGH/KN896dyiT71graQJSAcnmMYejG+wFbOI5Rc3ZtgAQLiYBFvQE9yWwgkjlcHCN+0xVOLOPPHOF9sZ+ABXTKovQACxSSkWPp6PfgjEyW6PrV/YKBDBcKqCk9ZdZg2AF3h/7o9miZBPFV1Yq2FmIgs8K10hwZzLZPFsfyxUXU2Qo9ukdc3Kj8clFvJTbkw5QyTaTtZlaBX7T0lrO7NI9VyCKcCwV06WB5MoZd1mMhItMPpQBUr2t3b1iUdjxBOy2XlarN1NSdCz1RcoYSRGUb2Llg/blMGfjU+4XXjLWneK4L9dxd51dYR9IlYPuYsSmbw6nlCi2L4rbdhcvxaIikTu9+xCL4O5++zyzsC2JpB+BE7ZqGHH2OVXvRrw3DTrHDGXb/codRUqKDKZOfIteafnRd6ig4k24/S5spClevyfrSc0rOUfN+rsBp8sIOnS5zs1yXX3tp4I7PvB0XBhKFaCgocRa+5glN+rT4tQA3JCmyHIjJurHt65YHofxukDjRRv9evj5uqltQRheazPGcE1DtY0eOt+hMtxI16AATEoh1AEob0E7zPBQmDBAqVtd2rSO86gJNfuZfT6FYnM43boyuK9l0C8K+fuOf70KoHCOViEBU+p2PmLOyP+Z1GeMEH5RZHzAumj2R/FLX/xdpJb7zCzFcdxkVSWXOICH09Et5Ak1NBfyXz96iezoq6mke2UMo9gqFiTuVEW3KxEP5tesu1i5v/o8aqZ3j/YgQvJvYq9/E8wpuK5GG+fk4gNLb8XsX+Y9n9t8HuQrlIQHmEYmSP5UbWAagbe3aNeNfyJvKkr1EwPIuCpKhaGKtBR2ELqODFCPZvdFOpGphSTericNhIWDfsPuHTKsYjsGl88zagoNjosbp6L9bXelI+fMNeAH3j9+ggTnUGRbcuh/TeS/VcxJbu1UL/E4aoWBGsxWD2y3tShA8k5Qd1EoClmRfMrewSMz3Iy20ojjoERT7HS9gB2RZHYTwHKvHi09y4yZ4WlZXAELp+yH4ICjoSZcJRURIjRh5e3DVYg8OWMMFa04sG4BaKDBqAzXvht8Btwi39zL6fQrE5nG7dGVxW1sDMveaTiBnoBYO9sB9Dfew+X2qH8l5b9BB8EI+1GdrF6+Os5Z/5zzepbKSGl8LO9vxnDbdEuoOHgy/nsXWfpQYanoTWpyOFnE9aYIwM4eB3hPxvgUvLcveQSSMfGltS9DuexHuNuG3dRQgR7URqeTL5zZXQMOUMTJ4rRXHUMLEfgY5+or0sh0pH/cDfaite25qO0sHESdyvzgX/XDhku1wf8qwzQTMrE8NCVGu08gzECByR/KjQ0kBT89fm8qAACVwtx+FU5cdScDYa3uBE+uwCJYKCMziCmdhjBHw8H+O7vu0XXx+eCWjMEBU72n7hh6weI3BpmShuV/gjN9W8QrP1/6j9qtLIUoh8nDPc2vQ0imabuaf8XLYrqBqK7DrRnwdzdCsT37mX0+hWJzON26MrjiIb5CqT7hTYMmiJCj4+kFPrr8h9qkpyuCIg0C+kp019RIN2GvOIjUyEMAMqd52MOvGReB6cX1XuSTAoz+8eSMD4VPFiVxLvbPBckKhJhgQR8isVZPjLWRdoYqd1qYG2yI+KgJI+1Gdrwbij6y2f74zCnAAbnQG90HI5MlijujklS4J9gcTVsBUAN3RlkxjSEemfX8QMWryjwDUr3Nq3iK0drxuAxrt4XaGqjI21bExLccKbYgFDXjvTvJjMYyU5SMug7fBwqg+ljOuh691q4+02WifbMZzWc1FHNYnxafjsmg7mVXKKCkUZXNWAxxMn0U1oLQHVFB4bg9+aXwxOVz321tpRW9yehkLF9jT79F8lljfN3HSED9SBLzYYsk+1bLFpJTNfeVg7TXFXalcQYYKoykELzuaZL/D+5Yr7vi3lYLwpu6qYtnznMp+3P2aixhXihOFIz5miirnXQiSeOOtZZZtlhePmy4zCpjsoKOdCwYGKFDK7WhkKsaatyPXiyZpUX1fXw8zFdrqQw9JjZfwHyA8yZ/K69YSymB5CUM3CWGiV6bnKjqbsaCFARMfdROFI9fTU+KPsfKEM5D12RC05IJVf16tqXw+qev1FL8lUImgTZaB7ONbZIFFFen0LApoT52gEsqghv8lurEVoiCvyVRR9Gl6ZhLxWUrW3XBH+qF+mEhVUZP3eOsJYFmeX6DmtCDv65lXLGxX1wL6Mr0SaCPLGVBZdgRZH8sGKLzzFlTWRbV7SDtkplx1aaeTY2xbDQJK5cTMyLwrRyFC2oj3wPnnttIlzHIF/miY1/EIbOA5Q6PKER7d7dSNBAQy6hSRhhvlOu46Rs6UiDUGm/h/KsbVxX9ALZPHlVGEveIHI7CYAzZ4rtjoY5NDH+zCzRagnWmJDOCqHU6cYPHDrEqcgdpI2xB0lnPcKxYUZmC653RqqILoASrbYkwOPF4+C5pBqgDh9k6Prn0XoDLEUfScEHiqAVg8+NAuaKtfKrZNx0VRSTP2itX/kWeiCE3QvjrBjVXwr66Ogaih0+bmyws7VJxrkEl2SSWymFikLPg0mVLFK8G8Y3TG3Fyh4tylHT1TG5RxUeJ6If6htrpdYXBlfnt604ojE6t6nB8Ag3xZVl+opZwn/CWrLoqZ7bpJ9sEw9QM1hrAWwlZmCP3lFTA21vcX/V0KyIKFpSgquIr5icz9fyCtf8fAh5tFRyKIQk5AQmQG89wU8pj1TTv9nS4vi3Wg7C3B9LfIAvxyNmdL198+6w169wyDTRSC9sYfKrjW0rToWqGmIPh+DAh6VPJs+YK3bT+jUKwTTF0IIFtXUNBDaThG0q2lF+PylgOBQcrGbN//oh9tbvG66tL1WNgeQ3WXdiwVh0ujGqYkfKgKQs1BZKVSdYeQzAVBCGAQmhlAUGURwUwF4h8xD5h2gwnSe8mgLFXO0cIAROhWGh2O5aR3K6CRag0LyD6YGe2ONWvczaFvpQKAAh6gl3qH089FziAh9PQZ0SqyM5B15A6/5u6zVujD8bvswbs+pxgem9NBjU0eGYUEmFjBhQSecnvkK9PI8zIPYd3JugnSIqpyGzM9wEkpui6Ws4cLUtWt30ZbdBfi+vjZgYs/6mYtBo7bKulzObFzOshTgmOpCA80RhNoQF4vc0VvQiYIpSwY8aNpXeyGhjXLR0fH5k3nVN9Obaoq5AnWcY8eXNJJ2sAvcPdtBwHTJY0wPIMaZT45KdZp/fk66OyXkocsk4x3j9GNs9QzJ3g8Bs6gBTD/qzdRtNr/63qO+h2iumiSwsmlT5GmyR+R2yPJBLlQUz0uIrpRC7XN+X5Lu6jCdYDX2zSC1VRaCN3zOzGSsZVXMtzJw8m740kH8IYfY3a68+u1KKI9QQcAk2dCcRDshn/JeDL4yRArxJz1YgIhoVLt4dG6s0mmb5MAG0fql+/JY+Zh7ZAw/v1JoRZBIse4WrZBBUQtPOmfuryhxfJ+DQBbc9QH+ffhQm0Zvc4iEbYGZbdEGzOnqzkSjLUKpwGvGD6FpGQ5kSHAyCByFrMdyzegHdiSwUvm0IY2rwnQ/LHy629qBF/MRUYufXEhE8tdLXDyLqtafg5sADaEZBEzLnMbJpUpdUh5/hDXXoaxUlkUmBve4BvVzCE0u96FtbThz69jpuwGQ3s0b4qYI/govGJYbittD/BEJRwaseMba2lb2XVOUAm69vMrhQjS1vDcM30Uku/Bc9clo8cAiBbYZ5js5cUpsRM/qLYlUIiPnsWeijjuRYiCsse7jjqy7JKndv+VCX26eI6BqGSoLZUo1IZ0ujydA8YLiXoNrViF5Po0p7lWNhTrL7V8QrUej6YauIAr/B5xvImyQSiux627tIqBZKkwlEcO7gnQ7vakW3LlFrt4Q5iB7bweOPJLOyDuOhmzSrUEn8ZHn7GPw4kbjfwhmT4FtQPKVG/PtHg1o+0rWhXP14KvIxZdQTSwS7s+vGIRJLuNHf6rvExh6bv60Nqu8B/L3TGHhGfICk7N324ZEORAJdWTMo09S+mL61FVnvB7FNRh+Mn+Onh9vZlRcPKxku5WzkBqpkrPzGw8W6NR0fIzbAZ0Ao1eI7tx9XNtCFUVgigaTwFtlpPuJwY4uEkpoNZ1zX3VkN1tqpC1Hi3Oz4ZPuU59nJRfq1xRkRK5o3ZQBETdG4SeK9gWiM0m3jVyn63k9fo3meaYEnRZxcLdGyVGzD3eIs3ZmOOdG8B6Ptyh4E7W/y5mJ3SdQkNWnyec2B1H1YiySFmVMz+/OFLEMSZM1SCGbAIbnEh/XFpytiEzzeZPxL3X3BG/wgIdsKE6nV6dgw23WX223zICcL62xAITBJTAQEHSmAppcLkgR8V6nhINraHKVSJEpWmjjwUh01g8fuCOxonsBCP387yW4SJz1tdum5PaWKp5ERs+V3Ol9XTy2h4wIHPM4OQMmkwxx+yGUnH8kqtXFso3gmQ1FnI6mx3wArf/3EAdecDP/mdD31uMFaaBWBMlWZMSeJ2qQuIwzSXwHNu2SZcrFTgRv+8saVu2OVMUgBSR/dUdnP6k8nU0TAs81Lr7V03eyHuvntDl6Jy7xgtoiYHbpGdEgwieKbMtOIMCMEMqR4B/IpIpIXpA0Y2pgPE3Xjejq6Q8/mwf5DmtpS7aByyD08a2l5eqonbUG59zK1IUdG/XGLyd7ccBiicDDwEHsfWuV2cOBfqD+DwR0Gt7mQJ6EWB8Un1iZb2iZHl46PYiJJ+vDaSxn/NZKmie7OoWoJoAq7srXtT8ulH1Jao90s55MUolrCcdpZ5cbnZ+yICH6pW4wWrRQZ+n/GQrFxnws2lsMAa3MhJvT0QP+NynM3BlGWOzOKBP76Yjmvq7TCPLxB7SkEDC7TTK3rreS94q8dSxcnrD5g/KgB6MKlA2ey6YyZeAOqrPKX/g1PWDzQyO1AD4fktQAVjQ/zACdlb/8kKsgi6NMW2IK6W2h0Jd1SxtDoS7C5UAXIwl1l6eNYNx2Dar3aVGjc5S2OCR0oqGjFIu7fBsC3R4IjtyRr8v9TuR6kGfpWu917mnn2RIvOeZl1Ur41gkJncE9pQZpeMaKQ5WNrOd+IYzthFmP0TZXFGEP50UFoO6akxypRQI9Dcnqkj+lnAfbZUpk7wooEMQiUnzhBkvBZO5+lyMFgASv48599y6w0YvSNhwGC4A+aAIaglVsqUBDFfDcCLEuMaBxJSPSoz2VsnzXY4BuWDOjFkh94Orh8UNyKLkM+jllB5+D5AeptT9ARGmY74mIOFREKSRXWw7BpgLviW5voTdGHjp6HIV9bYhHml2csFVAjKGaultyuqWNXP0L3jR5FHpy1HgUb564KhVorLIAknAknRTc69BDfxSvV124/G8RuZ6KW1q55mt9x5LUe5yCdXz5wjo1a0twZXPvkG5CJwaWoZk4cZk7SztvubkPAj39mCJWF4hOeHM9hxAFRESrQR2GX+GOaG1P1kcxpjr7f58j7z6nhOjP4uEcqc7M2GX11JY/TzenDjVkbPJcxmAca8GB6drtwbMF0+0ZBZxpE+XKImFvwP1kmJDuVBhmkkHV7ymw0l++YckKyT8IOku9HFJeMbSdDMDLdIy/8lfe5tzSH4EE5d3sZpYdYQQ9s9LvYrPzaChfAJPTqI6+YsFQ6ZvXnapvEiXu9VYp9sHBHEAXSxjilhLRin2hon29t7dmjN3K2K1VK1lbhL/mfsC8Hw9r6aFSs8ru9JSnt8Fi3/HPm9NLxJwC0V6OG3PEJ7WgYzJmNlIIbK6aJd78KWV885ugcRbAqHQTrcGhd5lP/rgq1RCGW+s+vLqljk2GesAIx8GtA+mkfjujqkpCIsOs5QEMbRKlqgInU9bt6xG08ISyMqjlD1Q1fzhaEs1ABCA7YVTkFRPbg35Hb3v9P+kcBTZ27j9at5q1znQA3E4hogrBDD0Ks5IYSLhbCpdqzdKPsDFbyupytyPZLtXss9o+7pGZQqZmn8RKzC1H4kbt8FXKKtb2KDXgQaDjbgtxb+8nH6iTtIKwOXDm+6ux2428tl1cC6uA049JSgLneFDuEF5BzFusTyleW08KNCrJARyVmre/aFMdxdyMXVt/4np0u6WnfuR/8eRyhwDtJlSx/JdTX0xV807c8oFJ6FolQL13tBMR/7C6dHIfVMz7APVFuB40oBQVxJmyXfHfto5AYgFTsBI34GH4kSCsvF5BIewfXwGTjt9q3dHX7qxUjyXnCm/A/V8U3cQUSRKHbI96N2kJuxJxLr5++cKkwXmqis+d2LVXN0Qe3DwE2AFyK1fhik/Bp/WDx+VbF0/hCQipHsJYngBq+yf09tGe4B1A3Os+XFVsb8M96JW9jTc3Fx5d7Sy4TfSvouARwpOrBB/+15QEyyLkzvuq5v9QV1Y9YxO8FS55iIvbb79t1K9HfYlgxl4+VNi4qIjb1d4oFLy9JLG/OCsXtv9DQ68x/4XWn4ABKhJjwsg7ANvLruMP/629P3ex5PbsiLqEsJEeH5i9rMzQzLWRtrXZTJ2iBw/e5doq/wnTTvG58xcYXkQ6/YaD7apNQ/DSJEpe7BhiF2R45qfqlXMEvAifrrMArs76UF1rwiPbcY9H7iTG68nX9jTu8Xh3pSvv9GenbtIfIfhUnXfzQiy8taMHWOi0eoU2OdhxYJko9TWTec5SWuaPAkPzxW13Yta8mZ5oMCqX56TRa5IKaXQuDIip/ehj36VCeNLvg6tDmw1VFurL4L+Z4zQ6KdNuYPRxjDyUIV2GR1cDItwmIU0BCfV4sLOHsCKc1OuUACB74f8vcdBebIE1zxaAjDH8jEwtUOcif2Dh07O5LogH8OBzcVbBAso7WikO18gFsBvQ390IBCHBcfu0J5kq71O8kq22nCUxAEY8XjLicCtNeHieB8A6EnlXYsP7TUBGRALaKKLgt4dxxiEIuOK3IEayKcpFxthOcpiPd9E7uyRcGna4AkNSuIWAcQOz1RIC27sfePU/k0JCtqvwQN4qsaZCCCKZwabV+0O2SiNAXTKqPixDIQ2ABss1b4ymH21H9lqpFQwZW4TmLzkTQO9KLJdVlXvadG0XAbYTffcO06z1H7C62y8l5oqg/Lvr0BGDFqx0NTf9CtojFxF5UJIFKO63MK2E2LU2RfufQTaImYYRZEqjcauUzY0KN43cseD6NS6T/42J8X4qLpli2nzh4Fj1PRsk6kOSQdA7pFkDRUYk5X0+JpIyi0qJjYvECkQwDEtjhgLi1yI0JMmgG0w441svCBD2hYjBd3odg9+Wb99wwyMMh/9/qzWAr8I/hL/bbPfqT4Q3tX9N9VLzB3nageeUpuQ4vdlZ7XI0Fr8xoBlhhDEn72Sh80spxW4B46z+rSHyaS1I/w18c3Go4PUwec6WGN+41QHDe2pmKt00FGCT8iADCP9ACVba35k4IPFUADG57A+faeSQOG+cWvXxGmeUXUp/f9YoXm3cxym0ZJkkCIwu5Xs03mkHbOHi+ypIzDNqZybDsvwkEqljhQAm0F6l+9njnmiIdJxc4Jkwr7k8nG7SzmiVBHTHjAxeNcHVczaiLBcyXaTgzeVr26/xV9kDfejvZU6VBUKylt+rw0TjcCZRmZe8m89Hg+yk9lGwlVWttr9/oyH4AzQS3E3LkPi4AzVCGsrygzma9wx9QW9zbS4ETSye4hEyzfIA/DXwzCvq8XHl3cGiUlUZlrglYFTQn0O6Ls7eRwdw5ecC973kb7/H4qiB6vyXczaRkpB8tPLcui+Z71Qvd7Vgh4dEoNiw0tcyB/QNP0I8mW9473qYJ+vDaSxoFKT+HOXtKT6jGQBkVyrZ+Idf0u3iFRGBatJJGVZLQEfHtz947/43fKPzAiUOP+pGkBciNCTJvJrhhbDjhs8gcUwIJCvK4VMqS85bW/xTx1Y3W2IvAl33odXonzHIpBz68iOpKJn7ZmvChZEFv+LCCkHciJNqGy5i77YzB3g0mtmETlLrRrHRf+iCMhljDNvfSdL55X9gCbBoPav66tlkN0aEbo8iQ1IfGbp9Fuyx+oeS44RAFkNmXdgynRIfkxpkwjHtO0XOmsk+8Bn7Vc+GBtZ+935qnHbwJOy3Q3y7YLBm0VrZUOQCYRI1WJ9vKy3AQvGihwws/pV+snoIBceDQKXxqqkhiJs4Yqk/bZvek0n8UpXiQAwAuvJnWo5zrAezHQy9H8e6uULhvqwzYPKOtZtVTLiIOPirSVWgGRSzVIZMBFn7VAMikO8iZs6fLfHjS3AJorBzNGALJrPJoIY5mQBc2o4CiIv2lTJ8nJ7P6p3p8jG+a1H/NZyyz6fzNpXok4QfxDnQwsbj0dDQLilcGEjcGsDLMQDaA1xZNC9g0DA2Vf9pfPj6b5PIb1E0j3Dk35QaeeLUVASjyiHD/yJeWhAlkShDVvWTwvslE6MP8ZuKxIxhp/FMCg0KyPrOSfrgR36cqrAdCPrP/43qU+1bShnrDOzuaPOrh1UrbbwLDDyF6iglk3DxjbdOBOQSDeFhPNyoCNOprzgjzQEgBdEPn5+THo2uBWKXb664RGBh9C73bTuMotmocT6vIgIvRyGJHaH0bHL81OatAkix3nR5X/C6so0RN5JJbVSiwE9SWIlQmuzSki2642kwtKD8TQFK5o7p5gyUAAAAD8z7CPMcH48DFHj/IC9K3nZDkE/s0XkoFJxRVlUKv82zUImrE9Cc2tmgOP9XpURNBbsk3YlmjmxGOMWgAAAAAAAAAAAAAAAAAAAAAAAAAAA;" vertex="1" parent="1">
          <mxGeometry x="1070" y="180" width="53.34" height="40" as="geometry" />
        </mxCell>
        <mxCell id="_2FKwMDi1mKpQeEEdjGX-49" value="SQL Database" style="shape=datastore;whiteSpace=wrap;html=1;strokeWidth=4;" vertex="1" parent="1">
          <mxGeometry x="1680" y="40" width="80" height="80" as="geometry" />
        </mxCell>
        <mxCell id="_2FKwMDi1mKpQeEEdjGX-50" value="" style="shape=image;verticalLabelPosition=bottom;labelBackgroundColor=default;verticalAlign=top;aspect=fixed;imageAspect=0;image=data:image/jpeg,/9j/4AAQSkZJRgABAQEAAAAAAAD/4QAuRXhpZgAATU0AKgAAAAgAAkAAAAMAAAABACkAAEABAAEAAAABAAAAAAAAAAD/2wBDAAoHBwkHBgoJCAkLCwoMDxkQDw4ODx4WFxIZJCAmJSMgIyIoLTkwKCo2KyIjMkQyNjs9QEBAJjBGS0U+Sjk/QD3/2wBDAQsLCw8NDx0QEB09KSMpPT09PT09PT09PT09PT09PT09PT09PT09PT09PT09PT09PT09PT09PT09PT09PT09PT3/wAARCAGwAdoDASIAAhEBAxEB/8QAHwAAAQUBAQEBAQEAAAAAAAAAAAECAwQFBgcICQoL/8QAtRAAAgEDAwIEAwUFBAQAAAF9AQIDAAQRBRIhMUEGE1FhByJxFDKBkaEII0KxwRVS0fAkM2JyggkKFhcYGRolJicoKSo0NTY3ODk6Q0RFRkdISUpTVFVWV1hZWmNkZWZnaGlqc3R1dnd4eXqDhIWGh4iJipKTlJWWl5iZmqKjpKWmp6ipqrKztLW2t7i5usLDxMXGx8jJytLT1NXW19jZ2uHi4+Tl5ufo6erx8vP09fb3+Pn6/8QAHwEAAwEBAQEBAQEBAQAAAAAAAAECAwQFBgcICQoL/8QAtREAAgECBAQDBAcFBAQAAQJ3AAECAxEEBSExBhJBUQdhcRMiMoEIFEKRobHBCSMzUvAVYnLRChYkNOEl8RcYGRomJygpKjU2Nzg5OkNERUZHSElKU1RVVldYWVpjZGVmZ2hpanN0dXZ3eHl6goOEhYaHiImKkpOUlZaXmJmaoqOkpaanqKmqsrO0tba3uLm6wsPExcbHyMnK0tPU1dbX2Nna4uPk5ebn6Onq8vP09fb3+Pn6/9oADAMBAAIRAxEAPwD2WiiigAooooAKKKKACiiigAooooAKKKKACiiigAooooAKKKKACiiigAooooAKKKKACiiigA7Udqr3d3BZW7T3MqxRr1ZjgCuD17x3NdFoNJ3QxdDMR8zfT0/n9K2pUJ1XaKOeviqdBXk9ex02t+KrLRVKMfNue0KHp9T2/n7Vwc/irUptVS/3xpJHlUUICoU9R759f5VjFmYszElmOSSck0nTrXr0cHCmtdWz57EZhVrPR2S2PTtB8ZWmrbYbnFtdHgKT8r/Q/wBP510ucivDK6fQfGt1ppWG93XNsOMk5dPoe/0P51y18Db3qf3Hdhc0TtGt956ZS1T07U7XVLcTWkqyIfTqPYjsauCvNaadmezGSkrp3QUUUUigooooAKKKKACiiigAooooAKKKKACiiigAooooAKKKKACiiigAooooAKKKKACiiigAooooAKKKKACiiigAooooAKKKKACiiigAooooAKKKKACiiigAooooAKKKKACkpaqX+oW2nW7TXcyxRjuT/L1PsKaTbshSkkrtlonFc9r3jCz0gNDERcXX/PNTwv8AvHt9Otcvr3je5vy0On7ra3PG/OHf/wCJH05965Ue9ejQwLetT7jxsVmiV40vvL2qaveaxP5t5KWwflQcKv0H9etUaKfDDJcTLDDG0kjfdVRkmvUjGMI2WiR4kpSqSu9WxnXmrC2N1JaNdJbStAnDSBflrs9C8BKu241chj1Fup4H+8e/0H5mu0SGOOIRoiqgGAoGAB9K4K2PjF2grnqYfKpzjeo7djxCivRdd8CwXm6fTdtvOeTGfuN/8T+HHtXBXlnc6fctBdQtFIP4WHX6HuPcV00cRCqtHr2OLEYOpQfvLTuLYX91plwJ7OZopB1I6H2I7iu/0HxxbX+2C/229yeAxPyP9D2Psa83xRxRXw0Kq1WvceHxlTDv3Xddj3Me1GeK8t0LxheaPthmzc2o42MfmX6H+h/SvRNM1ez1eDzbOYMP4lP3lPoR2rx62GnReu3c+hw2Np4haOz7F+iiiuc7AooooAKKKKACiiigAooooAKKKKACiiigAooooAKKKKACiiigAooooAKKKKACiiigAooooAKKKKACiiigAooooAKKKKACiiigAooooAKKKKACiiigBBmjNU9R1S00m2M15Ksa9h3b2A7155r3jO71XdDa5tbY8YB+d/qe30H5mt6OHnVem3c5MRjKeHXvO77HUa940tdL3QWmLm6HBAPyJ9T3+g/SvPtQ1K61S4M15M0j9gei+wHaqlHXrXsUcNCktNX3PnsTjamIersuwfWiprW2nvZ1gtomllboqj/PHvXeaD4Eit9txqu2aUciEfcX6/3j+n1qq2IhSV5PXsRh8JUru0Vp3OX0Pwtfa0RIF8m2zzMw6/7o7/y969G0jQbLRYdtrH+8I+aRuWb8f6VpKoQAKAAOwFOrxq+KnV30XY+iw2Bp0Ffd9wooornO0SqOpaTaavbmG8iVx2Pdfoe1X6KabTuiZRUlaSujy7XvB13pJaW33XNqOcgfMn1Hp7j9K5wV7mRkc1y+veCLXUt09li2uTycD5H+o7H3H616dDHfZqfeeLisr3lR+48078VPa3VxY3Cz20rRSr0ZT/nI9qff6dd6XcGC8haJ+2eje4Peqv1r0U4zjpqmeM1KnLXRo9D0Hx3Dc7bfVMQyngS/wN9fQ/pXXhgygryPavDa3ND8VXuilYwxmtf+eTHp/unt/L2rz6+B+1T+49fC5o1aNb7z1iisvSNds9Zh32svzqPmjbhl+o/qOK1K8txcXZqzPchOM0pRd0FFFFIoKKKM+4oAKKM+4oz7igAooz7ijPuKACijPuKM+4oAKKM+4oz7igAooz7ijPuKACijI9RR1oAKKKKACiiigAooooAKKKKACiiigAooooAKKKKACiiigAooooAKKKKACikrO1XW7PRoPNu5QpP3UHLN9B/kU1FydkTKSgrydkaJYKMnpXJa745t7LdBpu24n6GT+BT/AFP04965jXfFl7rJaNSbe1PHlqeW/wB49/p0+tYAr06GB+1U+48TFZpvGj95YvL251C5M91M0sh7sen0HYewqv35o78VZsrG51G4EFpC0sh7AcD3J7D616Xuwj2SPH96pLu2VjXQaF4QvNY2zS5trU/8tGHLf7o/qePrXT6D4GtrDbPqG25uByFx8iH6dz7musAx0rza+O+zT+89jC5XtKt9xQ0vR7PR4PKtIgufvMeWb6mr9LRXmNuTu9z24xUVaKsgooopFBRRRQAUUUUAFFFFAFS/0621O2MN5CsqHse30Pb8K8/17wTc6fumsN1zbjkpjLp/iPp+Vel0VtSxE6T916djlxGEp117y17nhdHNeoa94PtNX3TQ4t7s871HDH/aH9eteeanpF5pE/lXkJXP3WHKt9DXs0MVCqrbPsfPYnBVMO9Vddyvbzy20yzQSNHIv3WU4NdxoPjxX22+sYRuguFGAf8AeHb6jj6VwVFVWw8Kq95fMzw+LqUHeL07HuMcqyoGjZWU8hlOQafXkWi+JL7RHAgfzLcn5oXPy/h6H6fka9F0XxHZa5F+4fZOB80LnDD/ABHuK8evhZ0td13PocLjqdfTZ9izrbtHol86MVZYHIYHkHaa8l/tTUP+f66/7/N/jXrOvf8AIBv/APrg/wD6Ca8brry+MZRd0efm05RnGzsW/wC1L/8A5/rv/v8AN/jR/al//wA/13/3+b/GqlFej7OPZHke1n3Zb/tS/wD+f67/AO/zf40f2pf/APP9d/8Af5v8aqUUezj2Qe1n3f3lv+1L/wD5/rv/AL/N/jR/al//AM/13/3+b/GqlFHs49kHtZ9395b/ALUv/wDn+u/+/wA3+NH9qX//AD/Xf/f5v8aqUUezj2Qe1n3f3lv+1L//AJ/rv/v83+NH9qX/APz/AF3/AN/m/wAaqUUezj2Qe0n3Zb/tTUP+f66/7/N/jXefD+5mudMujcTSSsJsAuxbHyj1rzivQ/hx/wAgu7/67/8AsorkxsIqk2l2PQyycpV0m+h2NFFFeKfShRRRQAUUUUAFFFFABRRRQAUUUUAFFFFABRRRQAUUUUAJmmu6opZiFUckk8Cs3WfEFlokO65kzKR8sS8s3+A9zXnWt+J77W3KO3k22eIUPB+p7n9PaumhhZ1fJdzixWOp0Fbd9jpte8eRwFrfSdssnQzkZQfT1+vT61wtzcTXU7T3ErSyN1Zjz9PpUNFexRw8KStFa9z53EYupXd5PTsH0oq5p2mXeqXAhsoWkb+Jv4V+p7V6FoPgy00rbPdYubocgkfKn0H9T+lTWxMKW+r7F4bBVMQ9FZdzltB8F3WplZrzda2x55Hzv9B2+p/KvQ9O0y00q3ENpCsad8dWPqT3q3iivHrYidV6vTsfRYfCU8OvdWvcWiiisDqCiiigAooooAKKKKACiiigAooooAKKKKACoLuzgvoGhuYlljbqrDIqeihNp6CaTVmeda94FmtS1xpe6eEdYj99fp/e/n9a5EghiCCCDggjBFe5c1ha54Us9aBkP7m5xxKg6/Udx+vvXo0Mc4+7U1R4+KytSvKlo+x5SackjxSLJE7JIpyrKcEVf1fRL3RZtl3F8hOFkX7rfj6+xrOr1IuM43TumeHKE6UrSVmjq7fxtNNpFzY6kpdnhZEmUckkEfMP6j8q5TtQaKmnRjTb5Va5dWvOqlzu9h0a75UU8BmAOK9AHw5sv+fy5/8AHf8ACuBg/wCPmL/fH869vHQVx46rOm1yux6OV0KdVS51e1jj/wDhXFl/z+XP/jv+FH/CuLL/AJ/Ln/x3/CuwwaMGuD61W/mPW+oYf+U4/wD4VxZf8/lz/wCO/wCFH/CuLL/n8uf/AB3/AArsMGjBo+tVv5g+oYf+U4//AIVxZf8AP5c/+O/4Uf8ACuLL/n8uf/Hf8K7DBowaPrVb+YPqGH/lOO/4VzZf8/lz/wCO/wCFcl4i0mPRdVa0ikd1CK2XxnmvXq8x8ef8jM3/AFyT+tdWDr1J1LSd1Y4MxwtKlR5oKzuc1Xofw4/5Bd3/ANdv/ZRXnleh/Dj/AJBd3/12/wDZRXVj/wCE/kcWV/7wjsaKKK8M+nCiiigAooooAKKKKACiiigAooooAKKKKAEpaKxNc8TWWiKVlbzbgj5YUPJ+voPrVRg5u0VdkVKkaa5pOyNeaaOCNpJnVEUZLMcACuJ17x7gtb6OMnoZ2H/oI/qfyrmdY8QX2uSZuJNsIPywoflHp9T7n9Ky69TD4FR96pq+x4WKzRyvGlou4+WaSeVpZpGkkblmc5Jpgoq/pWjXusz+XZxEqDhpDwq/U/0613ylGEbvRI8qMZVJWWrZQOSQF5JPAHeus0HwNcX22fUt1vAeRGOHb/4kfr9K6fQfCNno4WV1Fxdf89HH3f8AdHb69a6DpXmV8c3pT+89zC5WlaVXfsVrGwttPtxDawrFGvQKP5+v1q1SUtec227s9iMVFWSCiiikMKKKKACiiigAooooAKKKKACiiigAooooAKKKKACiiigAooooAiuLeK6haKeNZI2GCrDINcLr3gN4y1xpGXXqbdjyP909/ofz7V31GOOta0q06TvFnPXw1OurSXzPDpI2idkkVkdThlYYIpteua14bstcjJmTy5wPlmQYb8fUexrzjWfDt9okh89N8BPyzIPlP19D7H9a9ihi4VdNmfPYrAVKGq1RnQf8fMX++P517eOg+leIQf8AHzF/vr/Ovbx0H0rlzLePzO7Jtp/IWiiivMPbCiiigAooooAK8w8ef8jM3/XJP616fXmHjz/kZm/65J/Wu3AfxfkeZmv8D5nNV6H8OP8AkF3f/Xb/ANlFeeV6H8OP+QXd/wDXb/2UV3Y/+E/keXlf+8L0OxooorxD6cKKKKACiiigAooooAKKKKACiiigBCenFRXFxFawtLcSLHGoyWc4ArG1zxZZ6KGjB8+6xxEh6f7x7fz9q861bW7zWpt93LlQcrEvCr9B6+55rroYSdXXZHn4rMIUbpas6PXvHbzFrfScxx9DOw+Y/wC6O31PP0rjXZpHZ3ZmdjksTkmg8mk+levSowpK0UfP18TUru838gxSopdwqqWZjgADJNaWj6Bfa3Li2j2xDhpW+6v+J9hXo2ieGLLQ1DxqZbgj5pnHP4egrKvioUtN32NsLgKlfXZdzmNB8CSXBWfVt0UXUQA/Mfqew9uv0ru7a1htIFht4ljjXgKowBU9FePWrzqu8mfRUMLToK0Vr3CiiisjoCiiigAooooAKKKKACiiigAooooAKKKKACiiigAooooAKKKKACiiigAooooAKKKKACmSRJNGySorowwVYZBp9FAbnE6v4FUzC50ghCGDNbseOv8ACe30P6V2gGAM0tHOOtaTqymkpO9jGnQhSbcFa4tFFFZmwUUUUAFFFFABXmHjz/kZm/65J/WvT68w8ef8jM3/AFyT+tduA/i/I8zNf93+ZzVeh/Dj/kF3f/Xb/wBlFeeV6H8OP+QXd/8AXb/2UV3Y/wDhP5Hl5X/vC9DsaKKK8Q+nCiiigAooooAKKKKACjNFc1r/AIxtdK3Q2+Li6HBVT8qfU/0HP0q4U5Tdoq5nUqwpLmm7G5eXtvYW7T3UyxRr1Zjj/wDX9K4LXvHM93ug0zdbw9DKeHb6f3R+v0rndS1W71a4828lLkfdUfdX6DtVPpXrUMDGGtTV/geBisznUvGnohSSSSSSScknvSUVsaJ4avtbcNEvlW2fmmccfh6/55rsnOMFeTsjzqdOdWXLFXZkxRSTSrHCjPIxwqqMk122g+AidtxrH1Fup/8AQj/QfnXTaN4dsdDTFvHulYfNK3LH/AewrWryq+Ocvdp6Lue7hcsjC0qur7dCOGGO3jWOJFjRRhVUYAqSiivP3PWStogooooGFFFFABRRRQAUUUUAFFFFABRRRQAUUUUAFFFFABRRRQAUUUUAFFFFABRRRQAUUUUAFFFFABRRRQAUUUUAFFFFABRRRQAUUUUAFeYePP8AkZm/65J/WvT68w8ef8jM3/XJP6124D+L8jzM1/3f5nNV6H8OP+QXd/8AXb/2UV55Xofw4/5Bd3/12/8AZRXdjv4T+R5eV/7wvQ7GiiivEPpwooooAKKKCcUAJzVS/wBTttLtzPeSrGg6Z6n2A71ga943ttP3QWO24uBwSD8ifU9/oK8/v9QutSuTPeTNLIemeAvsB2FdtDByqay0R5mKzKFK8Yas3te8a3WpboLHdbW/TIOHf6nt9B+dcxRRXr0qUaatFWPn61epWlzTYVLBbS3M6wwRNLI3RVGTWxofhS91tlkINva9TKw5b/dHf69K9E0nQ7LRoPLtIgGI+aRuWb6n+nSuavjIU9I6s7MLl063vS0Rzmg+A0h2z6viR+0CnKj6nv8ATp9a7NESNAiKFVRgADAFOoGfWvIqVZ1XeTPoKOHp0VaCFooorM3CiiigAooooAKKKKACiiigAoooz7igAopjzRx/fdV+pqtJqtjEcPeW6n3lUf1pqLfQlziupc5ozWY/iPSI/vaja/hIDULeLdFTrqEX4ZP8hVKnN7JkOvTX2l95s0YrCbxnoa/8vwP0jY/0ph8caGP+Xpj9Im/wqlQqP7L+4l4qivtL7zoM0ZrnP+E70X/ntL/36ak/4TzRf+e0v/fpqf1er/KxfWqH86OkzRmub/4TzRf+e0v/AH6al/4TvRf+e0v/AH6al9Xq/wArD61Q/nR0eKK58eONEP8Ay9OPrE3+FPXxpoTf8v2PrG3+FHsKi+y/uGsVRf2195u5oyaxl8W6I/TUIvxyP5ipk8SaRJ93UrX8ZAP51LpTW6ZSr039pfeadFU49VsZThLy3YnsJVP9aspNHJ9yRW+hqXFroWpxfUfRRn3FFIoKKKKACiiigAooooAKKKKACiiigAooooAK8w8ef8jM3/XJP616fXmHjz/kZm/65J/Wu3AfxfkeZmv8D5nNCvQPhzIv9n3abhv83O3PONorz/pUtvdTWc6z20rRSL0ZT/nivUxFL2tNxTseHhK6oVVNo9uo/CuM0Hx5HPtt9WxFJ0E44Rvr6H9PpXYo6uoZSCp5BHQ14VSlOk7SR9RRr06y5oMfRRRWZuUtT1O20izNzdvsjBwMDJY+g968517xhe6vuhhzbWp/hU/M31P9B+tdR8Qh/wAU/H/13X+RrzavUwNCEo87V3c8LM8TUjP2cXZWCiiui0Hwdd6vtmnzbWvXcR8z/Qenuf1r0KlWNNXk7I8mlRnWlywVzDtLK4v7lYLSFpZT0VR0+voPc132g+BoLTbcantuJxyIh9xf/ij+ntXRabpFppFuIbOIIv8AEf4m+p71dx715FfGyqaR0R7+Fy2FK0qmrBVCgAAADsKWiiuI9QKKKKACiiigAoorC1nxXYaMzRu5muAP9VHyR9T2qoQlN2irkVKkaa5pOyNymSSJChaR1RR1LHArzTUPHmqXZK2+y0jPTYNzfmf6AVgXN3Pdvvup5Zm9ZGJ/nXbTy+b+LQ8yrm1OPwK56rdeLNHtMh76N2HaPL/yrJufiNYR5FvbTynsThQa86pc+1dUcvpre7OGebVn8KSOyuPiNdnP2exhQdi7lv5YrOm8da1L92aKIHskY4/PNc7RW8cLRj9n9TmljsRLeTNSXxLrE/3tRnH+6dv8qqS6jeTf667uH/3pGNVqM+1aqnFbJL5GDrVJbyYpJc5Ykn1JzTcD0paKqxndhRRRTAKKKKBBRRRQAUUUUAFFFFABRRRQMTA9KcCU5UkH1BxSUUrBdliK/u4f9Td3Cf7shFW4vEusQ/d1K4P+827+dZmfaipdOL3SfyNFWqR2b+86GHx1rcWN00UoHZ4xz+WK0YPiNeLj7RYwuO5Riv8APNcbRWUsLRl9n9DeOOrx2kz0S3+I1hJgT2txF7rhhWva+LdGu8BL6NGPaQFP515Ln2pKwll9J/DdHTDNqy3SZ7hFNHMgeORXU9CpyKkrxGC6ntHD208kLjvGxH8q3tP8dapZ4WcpdRjqHGG/Mf1zXNUy+a1i7ndSzam9Jqx6hmisDRvF1hrDCJWMNwekUnBP0Pf+ftW/XDOEoO0lZnpU6kKi5ou6CiiipNAooooAK5zxF4Sh1xjcROYbsLtDHlWA7Ef1H610dFVCcoPmi7MzqUoVY8sloeL6jpd3pdyYb2Ext/C3Zvoe9U69qvbC31G3aC6hWWNuzDp9PT61wOveBrmx3TabuuIByYzy6/8AxQ/X2NevQx0Z6T0f4HgYrLZ07yp6o5MVtaJ4nvtEcJG3nW2eYXPA+h7H9PasXkZB4IOCD2orsnCNRWkro86nVnSlzRdmewaNrdrrluZLYkMmPMRhgoT/AJ6itSuG+Gv+r1D/AHk/rXcV8/iKap1HGPQ+rwlV1aSnLqct8Q/+Rfj/AOvhf5GvNa9K+If/ACL8f/Xwv8jXmtergP4XzPCzX+P8jc8HQxT+JrVJo1kT5mwwyMhSRXq4GM15X4I/5Gq1/wB1/wD0E16r3rjzD+L8j0coX7lvzCiiiuE9UKKKKACiiigAooooAzPEFxcWuhXk1oP3yRkgjt7/AIDmvHyS7FmJZmOSxOc17JrF+umaZLdum9Iyu4D0LAH9DXKX/g601eL7doM8aiT5vLJ+Q/T+79P5V6GCrRpJ8y0fU8fMsPOtJcju10OFNHJq/f6LqGmE/a7SRFH8YGV/McVQr1ozjJXi7o8KVOUHaSsFFFFUZhRRRQAUUUUAFFFFABRRRQAUUUUAFFFFABRRRQAUUUUAFFFFABRRRQAUUUUAFFFFABRRRQAUUVesNH1DUiBZ2srgn72ML/30eKmUoxV5OyLhCU3aKuUgSGBBIIOQQcEV674aubi78P2c13kysnJPVhng/iMH8a5rT/BVtpkZvddnjZYxuMYOEH1Pf6fzrrNHv01TTUuoU2ROWCAjsGIH8s15ONrRqpKK0XU97LcPOjJub1a2L9FFFeeewFFFFABRRRQAUUUUAeafECGOHXImjRVLw7nIGNxyeTXLV1vxF/5Ddv8A9cP/AGY1yVfQYTWjE+SxySrysd38Nf8AV6h9U/rXcVw/w1/1eofVP613FeRjP4z/AK6H0GXf7tH+upy3xD/5F+P/AK+F/ka81r0r4if8i/H/ANd1/ka81r0cB/C+Z42a/wAf5G/4I/5Gq1/3X/8AQTXqteVeCP8AkarX/df/ANBNeq1x5h/F+R6WUfwH6hRRRXCeoFFFFABRRRQAUUUUAYfjH/kVb3/dX/0IV5np+qXuly+ZZXDREnlR91vqO9em+Mf+RVvvov8A6EK8m7V6+AipUmmrq58/ms5QrxcXZ2O5sPiJwE1Kz+rwnI/I/wCNXvM8Ja7y32ZJG9f3TZ/TNecUVq8HDeDafkc8cxqWtUSkvM9Bn+HlhMN9ndyxg9M4cVl3Hw81GPJgubeUds5Q/wBa5i3u7i0Oba4mhP8AsOV/lWrb+MNbtsAXhkA7SKG/+vU+yxEfhkn6l+2wc/jg0/IS48Ia3b9bJnHrGwb+tZ82l31vnz7O5jx3aI4ro4PiJqC4E9tby+u3K/41ow/EeBsefp8q/wC44b+eKPaYmO8U/QPY4Oe02vU4E/IcHg+h4or0geN9CucC4hlGf+ekIP8ALNH9p+D7v762YJ/vwbf1xR9bqLeDF9Rpv4aqPN6K9HFh4OuM7Wsgfafb/Wl/4RPw1Of3Ug5/uXOf60fXo9U0H9mTfwyT+Z5vRXo58AaQ/wDq57gfSRT/AEqNvhzYn7l5cj6lT/SqWOpdbieWV+ln8zzyiu+Pw2t/4dRlH1QU0/DZO2pt/wB+h/jT+u0e/wCDJ/s3EdvxRwdFdyfhqeNup/nD/wDZU0/DV+2pL+MP/wBlT+u0e4v7OxP8v4nEUV24+Gr99SX8If8A7KnD4anndqf5Q/8A2VH12j3D+zsR/KcNRXeD4bJ31Nv+/Q/xpw+G1v8AxajKfogpfXaPf8GP+zcR2/FHA0V6Gnw5sR9+9uT9No/pUg8AaQn+snuD9ZFH9KTx1LpcpZZX62XzPOKK9Ibwl4agP76QfR7nH9aDp/g63xuazJ95939an69Homx/2ZNfFJL5nm9A5OByfQc16R/aXg+0+6tkSP7sG7+lB8baDa5+zwyHH/POEL/PFL63N/DBh9Rpr4qqOBh0y+uMeRZ3Emf7sRxWhb+EdbuOliyD1kYL/Wukm+I9uufI0+Vj/tuF/lms+f4iX7ZEFrbx/wC8S3+FP2mJltFL1H7HBw3m36Dbf4d6lJgzXFvCO4BLGtWD4d2MI3Xl7LIByduEH9a5m48Ya1cZH2sxg9o0A/XrWVc3lzdkm5uJpj/tuW/nR7PEz+KaXoHtsHT+CDb8z0LPhHQuR9meRf8Atq2f1xVG/wDiGigpptmfQPNwB+A/xFcLRVRwcd5ttkSzGpa1NKK8i7qOrXuqyB72dpMHKr0VfoBXpXgv/kVbP/gf/oRryivV/Bf/ACKtn/wP/wBDNZY+KjSSirK5vlU5Trtyd3Y3aKKK8g+hCiiigAooooAKKKKAPOPiL/yG7f8A64f+zGuSrrfiL/yG7f8A64f+zGuSr38J/BifJY7/AHiR3fw1/wBXqH1T+tdxXD/DX/V6h9U/rXcV5OM/jP8ArofQZd/u0f66nLfEP/kX4/8Ar4X+RrzWvSviH/yL8f8A18L/ACNea16OA/hfM8bNf4/yN/wR/wAjVa/7r/8AoJr1WvKvBH/I1Wv+6/8A6Ca9VrjzD+L8j0so/gP1CiiiuE9QKKKKACiiigAooooAxPGP/Iq3v+6v/oQryavWfGP/ACKt7/ur/wChCvJq9jLv4b9T53N/4y9Aooor0DyAooooAKKKKACiiigApMD0FLRRYd2KCR0JH0OKkF1cJjbcTDHTEhFRUUrJ7lKTWzLQ1K9HS9uR9JmH9akGtamv3dRux/22aqNFT7OD6IpVZrq/vND+3dU/6CN3/wB/mpf+Eg1b/oJXX/fw1nUUvZQ7L7g9tU/mf3mj/wAJBq3/AEErr/v4aT+3dU/6CN3/AN/mrPoo9lDsvuD21T+Z/eXjreptwdRuz/21aozqd6et7dH6zN/jVWin7OC6IHVm92/vJTdXL53XExz1zITUZJPUk/U5pKKqyWxLk3uxMD0FLRRTsTdhRRRQIKKKKACiiigAooooAK9W8F/8irZ/8D/9CNeU16t4L/5FWz/4H/6Ea8/Mf4a9T1so/jP0N6iiivHPowooooAKKKKACiiigDzj4i/8hu3/AOuH/sxrkq634i/8hu3/AOuH/sxrkq9/CfwYnyWO/wB4kd38Nf8AV6h9U/rXcVw/w1/1eofVP613FeTjP4z/AK6H0GXf7tH+upy3xD/5F+P/AK+F/ka81r0r4h/8i/H/ANfC/wAjXmtejgP4XzPGzX+P8jf8Ef8AI1Wv+6//AKCa9VryrwR/yNVr/uv/AOgmvVa48w/i/I9LKP4D9QooorhPUCiiigAooooAKKKKAMTxj/yKt99F/wDQhXk3evWfGAJ8LXwAydoPH+8K8mr2Mu/hv1Pnc3/ir0CiiivQPICiiigAooooAKKKKACiiigAooooAKKKKACiiigAooooAKKKKACiiigAooooAKKKKACiiigAooooAKKKKADvXq/gr/kVbP8A4H/6Ea8or1fwWCPClnkEcP1/3jXn5j/DXqetlH8Z+hu0UUV459GFFFFABRRRQAUUUUAecfEX/kN2/wD1w/8AZjXJV1vxF/5Ddv8A9cP/AGY1yVe/hP4MT5LHf7xI7v4a/wCr1D6p/Wu4rh/hr/q9Q+qf1ruK8nGfxn/XQ+gy7/do/wBdTlfiJ/yL8f8A18L/ACNebV6V8Q/+Rfj/AOvhf5GvNa9HAfwvmeNmv8f5G/4I/wCRqtf91/8A0E16rXlXgj/karX/AHX/APQTXqtceYfxfkellH8B+oUUUVwnqBRRRQAUUUUAFFFFAEcqJJGySBWRhgg9DntXBa34BmjdptJYSRnnyWOGX6E9fx/Wun8WSyQeG7qWFykke1lYdiGFZWieO7W5VYdTxbzgY8z+Bv8A4n8ePeuqh7aEXUp7dTz8V7CpNUquj6M8/ubae0k8u5hkhf0dSKir2uSK11G3AkSKeJuRkBgaw73wLpFzkxxyWzHvE3H5GuyGYx2mrHn1MplvTd0eYUV2t18OLgZNpfRuP7sqFf1GayLjwVrUGSLUSgd43B/Q811RxVKW0kcM8DXhvFmDRVufS7+2B8+yuEA7tGcfnVRuGweD6HitoyT1Tuc8oSi7NBRRRVEBRRRQAUUUUAFFFFABRRRQAUUUUAFFFFABRRRQAUUUUAFFFFABRQvJwOT6CrcGmX1zjyLK4cHusZx+dTKSjq2XGEm9FcqUVu2/gvWrjB+yeUp7yOB+nWte1+HNw2Dd30aD+7Ghb9TisZYqlHeSOiGBrz2izi6kgt5rqTyreJ5XP8KKWP6V6VZ+BNJtsGVJblh/z0fj8hW5FBaadARFHDBEBk4AUCuWeYx2grnbTyme9R2Rw2i+Ap5nSbVT5MXXyUOWb6nsPpz9K7+GFIIljhUJGgwqqMACuW1vxzZ2aNFpxFzcYxuH+rX8e/4VpeEZ5bnw3bzTOXkkLszHud5rjr+2nFVKmi6Ho4X6vTm6VLV21Zt0UUVynoBRRRQAUUUUAFFFFAHnHxF/5Ddv/wBcP/ZjXJV1vxF/5Ddv/wBcP/ZjXJV7+E/gxPksd/vEju/hr/q9Q+qf1ruK4f4a/wCr1D6p/Wu4rycZ/Gf9dD6DLv8Ado/11OW+If8AyL8f/Xwv8jXmtelfEP8A5F+P/r4X+RrzWvRwH8L5njZr/H+Rv+CP+Rqtf91//QTXqteVeCP+Rqtf91//AEE16rXHmH8X5HpZR/AfqFFFFcJ6gUUUUAFFFFABRRRQBieMf+RVvf8AdX/0IV5NXrPjH/kVb3/dX/0IV5NXr5d/DfqfO5v/ABl6Fmz1G70591ncywn0RuD+HQ10Nl4/1ODAuI4blR1JGxj+XH6VyvFFdk6FOfxJHBTxNWn8Mmei23xFsZMC5tp4T6rhhWtbeLdFucbb+JSe0mU/nXkv4UlcssvpPa6O2GbVlukz22G6t7kZhmikHqjA0TWlvcf66GKT/eUGvEgcHIJB9RxVuLVtQt/9Te3K+wlOKxll0lrGR0LN4vSUD1SXw1o8339Pt/8AgKbf5VTl8D6JKOLVk/3ZWH9a4WLxdrUOMX7tj++qt/MVbi8fazGRuNvIP9qP/A0vquIjtL8Svr2Dl8UPwOlk+HmlN9yW6T6OD/MVVk+G9sf9XfTr/vKDWfH8Rr9ceZaW7eu0sKsp8SW48zTh/wABm/8ArUcmMjs/xD2mXy3VhX+Gp/5Z6l/31F/9eoT8N7n+G/iP1jI/rVxfiTB/HYTD6ODUy/EbTz9+1ulPsFP9aObGLp+QcmXvr+Zjn4c6h2u7Y/XcP6U0/DvVB0mtD/wJv8K3h8QtKPWK6H1Qf408fEDRz1+0D6x//Xpe2xa6fgH1fAP7X4nOf8K91b/npaf99t/8TR/wr7Vv79p/323/AMTXT/8ACeaL/wA9Zf8Av01H/CeaL/z2l/79NT9vi/5fwD6rgf5vxOY/4V9q39+0/wC+2/8AiaP+Fe6t/wA9LT/vtv8A4mun/wCE80X/AJ7S/wDfpqP+E80X/nrL/wB+mo9vi/5fwD6rgf5vxOaHw71Q9ZrQf8Cb/CnD4c6h3urYfTcf6Vvn4gaOOhnP0jpp+IWlDpHcn/gA/wAaXtsW+n4B9XwC+1+JkL8N7r+K/hH0jJ/rUyfDY/8ALTUv++Yf/r1cf4jaePuWt0x9wo/rULfEi3/gsJj9XAo5sY+n5ByZeuv5ix/De2H+svpm+iAVYj+HmmL9+W6f6uB/IVnyfElufL04f8Cm/wDrVo+HvEOqa/c7ktIYbRDh5GJbPsPU/wAqmf1qMeaTsvU0pfUpyUYK7LUXgfRIuts8h/2pW/xq5D4Y0eH7mn2//Al3fzq7cXlvavEk8yRtK21AxxuPoKyvEtrqs9n5ukXckciA7olx+8Hsex/nXMqlSbScnqdkqVGmm4wTa6Lc1YrS2th+5gijx/dQCo9UvDp+mXN0I/M8lC+3OM4rz+w0fxLrBWSWe5jhzndPKy5+i9a7bxN/yLeof9cG/lVSpKM0r37kU67nTlJR5bLS5zH/AAsp/wDoGL/3/wD/ALGl/wCFlP8A9Awf9/8A/wCxrh6K9b6nR7Hhf2jif5j07w34tbXr6S3NqIdke/IfdnkD096xfiOzfarFNx2lGJXPB5FQfDr/AJDNz/1w/wDZhW34y8PXusSQT2flsYVYFGOCc46du3euK1OjirbI9Lmq4jBN7tnm9ereC/8AkVbP/gf/AKEa4nRvCN9qN+0V1DJbQxH94zDBPsvr9eg/SvRYzZaRBb2u6OCMkRxKTjJ9B61WOqxmlCOvUzyuhOnJ1J6LYv0UUV5h7gUUUUAFFFFABRRRQB5x8Rf+Q3b/APXD/wBmNclXW/EX/kN2/wD1w/8AZjXJV7+E/gxPksd/vEju/hr/AKvUPqn9a7iuH+Gv+r1D6p/Wu4rycZ/Gf9dD6DLv92j/AF1OW+If/Ivx/wDXwv8AI15rXpXxD/5F+P8A6+F/ka81r0cB/C+Z42a/x/kb/gj/AJGq1/3X/wDQTXqteVeCP+Rqtf8Adf8A9BNeq1x5h/F+R6WUfwH6hRRRXCeoFFFFABRRRQAUUUUAYnjH/kVb3/dX/wBCFeTV6z4x/wCRVvf91f8A0IV5NXr5d/DfqfO5v/GXoFFFFeieQFFFFABRRRQAUUUUAFFFFABRRRQAUUUUAFFFFABRRRQAUUUUAFFHU1p+H9Jj1jVUtpZhFH9484ZvZamUlCLk9kaU4OpJRXUs+G/Dc2vXOWzHaRn95Jjr/sj3/lXoF9fWPhjSk+VY4kG2KJerH0H+NWJfK0TSGNrbM0VunyxRDkgV5RqurXOsXjXN02SeEQdEHoP8815aUsZO70iuh7c+TL6do6yfUXVNWudYvTcXLc/wKDwg9BXY+EvF/wBoCafqbgTAYjmY/f8AY+/v3+vXgOlH1ruqYaFSHLa1tjzKOMqUqjqXvfc9M1bxzp9gWitR9rmHXYfkH1b/AAzXIap4w1TVIpIXeOGBxtMca9R7k8/yrCANH1qaWDp0+l33ZdbH1qt1ey7BRRRXUcBb03U7vSbgz2Uvluw2k4ByPxrrNM+IjghNTtgV6GWH+qn+n5VxFHSsamHp1fiWvc6qOLq0dIvTses3PirTIdLN9HcrKnRUX7zN6Y7H615pq+rXOs3hubpuf4EB4Qeg/wAao0o45NZ0MLCi292a4nHVMQknol2O98IeLvP2afqUn777sUrH7/8Asn39+/169rXhlei+CtfudSie0uVeRoF4nxwR6N7/AM8VxYzCqP7yG3Y9HLsc5tUp79GdfRRRXnHshRRRQAUUUUAecfEX/kN2/wD1w/8AZjXJV1vxF/5Ddv8A9cP/AGY1yVe/hP4MT5LHf7xI7v4a/wCr1D6p/Wu4rh/hr/q9Q+qf1ruK8nGfxn/XQ+gy7/do/wBdTlviJ/yL8f8A13X+RrzWvSfiJ/yL8f8A18L/ACNebV6OA/hfM8bNf4/yN/wR/wAjVa/7r/8AoJr1WvKvBH/I1Wv+6/8A6Ca9VrjzD+L8j0so/gP1CiiiuE9QKKKKACiiigAooooAxPGP/Iq3v+6v/oQryavYtesX1LRbq1jIDyJ8ufUHP9K8hngktpnhnjaORDgqw5Fetl0lytdbnz+bwl7RStpYjooor0jxgooooAKKKKACiiigAooooAKKKKACiiigAooooAKKKKACiiigBaVXaN1dGZXU5VgcEGm0c+hpFK+6PSvCnipdVRbS8ZVvFHB6CUeo9/b8azfF3hHG/UdNj95oVH/jw/w/GsXwdpv9oeIYmYHy7b9631H3R+fP4V1vjrVmsNKFrE2Jrolcg9EHX+g/E15Uo+yxCVLr0PdjJVsI5V1ts+p5pRRRXrHgBRVrT9PuNTvEtbRN8jdc9FHqfQV6TofhGx0lVeVBcXXUyOvAP+yO3865q+KhRVnq+x24XBTxDutF3POrXRdSvAGtrGd1PRthAP4mp5PDGsxDc2nzEf7OGP6V69jFFcDzGd9Ej1Vk9O2smeISwvBIUmjeNx/C4Kn9aj+te032m2mpQmK8t0lQ/wB4cj6Ht+Fed+JfCMmj5ubQtLZ/xZ5aP6+o9/z9a6qGOjUfLJWZw4rLZ0VzR1RzVFFFdx5ZpaHolzrl75MPyxrzLJjhB/Un0r1bTdNg0qyS2tU2ovJJ6sfUnua8x8K6u2k61EzNiCYiOUH0PQ/gefpmvWQcjrXj4+U+dJ7dD6LKoU+RyXxdRaKKK889cKKKKACiiigDzj4i/wDIbt/+uH/sxrkq634i/wDIbt/+uH/sxrkq9/CfwYnyWO/3iR3fw1/1eofVP613FcP8Nf8AV6h9U/rXcV5OM/jP+uh9Bl3+7R/rqct8Q/8AkX4/+vhf5GvNa9K+If8AyL8f/Xwv8jXmtejgP4XzPGzX+P8AI3/BH/I1Wv8Auv8A+gmvVa8q8Ef8jVa/7r/+gmvVa48w/i/I9LKP4D9QooorhPUCiiigAooooAKKKKAKmo3senWT3U3+rjK7j6AkDP65qrqGkabr1urTxpICvySp94D2Ydv0qDxiP+KWvf8AdX/0IV55pHiPUNFIW2l3Q5yYpOV/D0/Cuyhh5VIc8HZpnm4rFwpVFTqK8Wjd1D4d3EeW0+5SVeoSUbT+Y4P6Vzt5oOp2GftFjMqjqwG5fzFdtp3xCsJwFvYpLVu5A3r+Y5/SuitdTstQUG1uYZv91wT+VbfWcRS0qK5z/U8JX1pSszxeivZ7rSLC+z9ptIJSe7ICfzrJuPAmjT8pFJCT/wA83P8AXNaxzGD+JNGE8oqL4WmeXUcV3s/w3hOTb6hIvoJEDfyxVCb4d6in+pubaT/eyp/lW0cZRfU5pZdiI/ZucjRW/L4I1yLJFskgH92Rf61Tk8N6xF97Trj/AICu7+VbKvTe0kYPDVo7wZmUVZk069h/1lncp/vRMKgZGT7ysv1GKtST2Zk4SW6G0UmR6ilyKq5NmFFFFABRRRQIKKKKACiiigZ1fw9UHXpsgH/Rz/6Etd5d39jYsi3c8EDNnaJGC5/OuC+Hn/Idm/69z/6EtWviR/x+WP8AuN/MV5Nen7XE8l7HvYar7HB89rtM6wa9pA6ajaA+olX/ABrzvxfqSanr0rwyLJDEojRlOQe5wfqT+VYdFdVHBxpS5r3OHE4+deHJayCil/hq/oFqL3XrKBhlWlBYeoHP9K6ZyUYuXY4oQ55KPdnonhLRF0jS1aRR9pnAeQkcj0X8P55roKBRXzk5ucnJn2NKmqcFGPQKKKKk0CmyRrLGyOoZGGCCOop1FAHkPiXSP7G1eSBc+Q/zxf7p7fgc1k9a9C+Itqrada3QHzRy7CfZh/iorz2vfwlR1Kab3Pk8dSVGs4rbcO1ep6H4ksZNHtWu723jnEYDh5QDkcHr64ryyl4p18OqyV3axOFxcsO20r3PYR4g0osANRtSScACVf8AGtGvD4P+PqLH98fzr3AdBXk4rDKhazvc9/A4t4lO6tYWiiiuU7wooooA84+Iv/Ibt/8Arh/7Ma5Kut+Iv/Ibt/8Arh/7Ma5Kvfwn8GJ8ljv94kd38Nf9XqH1T+tdxXD/AA1/1eofVP613FeTjP4z/rofQZd/u0f66nLfET/kX4/+u6/yNea16V8Q/wDkX4/+vhf5GvNa9HAfwvmeNmv8f5G/4I/5Gq1/3X/9BNeq15V4I/5Gq1/3X/8AQTXqtceYfxfkellH8B+oUUUVwnqBRRRQAUUUUAFFFFAGJ4x/5FW9/wB1f/QhXk1es+Mf+RVvf91f/QhXk1evl38N+p87m/8AGXoFKCQQQSCOhHGKSivRPJuaNr4h1SzwIb+cAdAzbgPwNa1t8QNWi4lWCYe6EH9K5ijNYyw9Oe6R0QxVaHwyZ3cPxJX/AJeNOYe8cmf5gVow/EDSZP8AWLcxH/ajz/ImvM6KwlgKT20OmOaV1u0z1iLxhokuMXyLnsylf5irset6ZN/q7+1b2Eq141Rx61lLLo9GzZZxU6xR7ek8Mn3JI2+jA08qjdVU14aOORx9KlS6uI/uTzL9JCKl5c+kjVZuusD2d7G0k4e3hYe6A1C2jaa/3rC1P1iX/CvJl1jUkxt1C7GP+mzf41KniHV06ahc/i+f51P1Cp0kV/alF7wPT38OaQ/3tOtf+/Yph8LaM3XTrf8ABa83HirWh01CX8Qp/pUg8Ya2P+X9vxRP8KPqddbS/EX9o4V7w/BHoP8AwiWiH/mHxfr/AI0f8Ijon/QPi/M/41wI8aa4Mf6aDj1jX/Cnf8Jvrn/P2v8A36X/AAo+qYn+b8WP6/g/5PwR3n/CI6J/0D4vzP8AjR/wiWif9A+L9f8AGuD/AOE31z/n7X/v0v8AhTT401w5/wBNAz6Rr/hR9UxP834sPr+D/k/BHoA8K6KP+YdB+K1InhzSE+7p1r/37FecHxhrZ/5f2/BE/wAKjPirWj11CX8Ao/pR9TrveX4i/tHCraH4I9TttOs7Ry9rawwsRglEAP6VxXxI/wCPyx/3H/mKf4I1a+v9ZmjvLqSZRAWAY8A7hWn4u8N3muXFs9o8KiNWDeYSOuPQVlTXsMQlUZvVl9ZwrdJb9DzUUcV1P/CvdW/562v/AH23/wATXP39jLpt/LaXG3zIzg7TweM8e3NetCtTqO0XdnhVMNVpK81ZFbtWz4RkEfiixLdNzL+akCscdaktZ3tLqK4j+9E4dfwOaqpHmg13RNGfJUUn0Z7fRVeyu4760iuITlJVDKfrVivmmrM+yTTV0FFFFAwooooA5T4hSBfD6qerzKB+RP8ASvNu9df8QtSE2oQ2MbZEA3vj+8eg/Ln8a5DtXu4KDjS16ny2ZVFOu7dAzRyaK6DTvBupanYx3UL26pKMqHYg4/Kt51I01eTsclKjOq7QVzCt/wDj5i/3x/OvcB90V5vF4A1VZUZpbXCsDwzf4V6QBgYrysdVhUa5Xex72V0J0lLnVri0UUVwHrBRRRQB5x8Rf+Q3b/8AXD/2Y1yVdb8Rf+Q3b/8AXD/2Y1yVe/hP4MT5LHf7xI7v4a/6vUPqn9a7iuH+Gv8Aq9Q+qf1ruK8nGfxn/XQ+gy7/AHaP9dTlviH/AMi/H/18L/I15rXpXxD/AORfj/6+F/ka81r0cB/C+Z42a/x/kb/gj/karX/df/0E16rXlXgj/karX/df/wBBNeq1x5h/F+R6WUfwH6hRRRXCeoFFFFABRRRQAUUUUAYnjH/kVb3/AHV/9CFeTV6z4x/5FW9/3V/9CFeTV6+Xfw36nzub/wAZegUUUV6J5AUUUUAFFFFABRRRQAUUUUAFFFFABRRRQAUUUUAFFFFABRRRQBqaDrZ0G9e5WFZi8ZTBbbjkH+ldF/wsmX/oGp/3+P8AhXE0Vzzw1Oo7yV2ddLGVqUeWDsj0zw54wGt37WstssD7NyEPu3Y6jpWL8Q9NMd5BfovySr5bkdmHT8xn8qz/AAfpF3e6tFeQMYoLZ8tIR19VHqSOPYGu08Wy2SaDOl82FkGIwOWL9Rj8f0rgfLRxC9n9x6q58ThH7XRrZnlNFFFeufPnVeD/ABMNMf7Devi1dso5/wCWbHt9D+h+tejqwcBlIIPQjoa8OPFbejeKtQ0YLHGwmtx/yyk7D2Pb+XtXnYnBc756e/Y9jBZj7NKnU26M9ZorkbX4iafKo+0wTwN3wAw/P/61TyePtHjGVaeQ+ix/44rznhqqduVnsLG0GviR01YniPxHDodseVe6cHy4s/qfQVzGp/EK4nRk063EAP8Ay0kO5vwHQfrXIzTSXMzTTSNJK/LMxyTXVQwMm71NEcGKzOCTjS1fcJppLid5pXLyOxZie5NMoor10raI8Btt3ZPaWr311FbRDMkrhF9s9/w617Na2yWlrFbxjCRIEH0AxXnHgWWyi1rN022dl2wE/dyev446fU16bXkZhUbny9EfQZTSSpufVi0UUV5564UUUUAFFFFAHnHxF/5Ddv8A9cP/AGY1yVdb8Rf+Q3b/APXD/wBmNclXv4T+DE+Sx3+8SO7+Gv8Aq9Q+qf1ruK4f4a/6vUPqn9a7ivJxn8Z/10PoMu/3aP8AXU5b4if8i/H/ANd1/ka81r0r4if8i/H/ANd1/ka81r0cB/C+Z42a/wAf5G/4I/5Gq1/3X/8AQTXqteVeCP8AkarX/df/ANBNeq1x5h/F+R6WUfwH6hRRRXCeoFFFFABRRRQAUUUUAYfjH/kVb3/dX/0IV5P05r265t47u3kgmUNHIpVlPcGvN9c8FXunO0tirXNtngKPnX6jv9R+Qr0sBXhFOEna54uaYac2qkFeyOZopSChKsCGB5BHSkr1jwbWCiiigQUUUUAFFFFABRRRQAUUUUAFFFFABRRRQAUUUUAFFFFAAPetTw/pK6zqi2skwiTG5ufmYDsv+fesw80scjxSLJGzJIp3KynBBqJqUotRdma0pRjJOSuj2KTydE0dzb27NFbplYol5OP89a8p1bVrnWr03N03siA8IPQf49673wr4qTV41tbshLxR9BKPUe/t+NZfi7wjt8zUNNj46zQqP/Hl/wAPxry8M1RquNVavqe3jE8RRUqL91bo4iiitLRtFudcu/JtxtRfvykcIP6k+lerKSiuZuyPDhCU5csVqZtFaureHNR0hibiAvEP+WqDK/8A1vxxWVRCcZq8XdBOnKm7SVgoooqjMKKKlt7ae7mEdvC8r/3UGaTaSuyknJ2RFRXQ3PgvU7XSzduqs68tAnzMF9fc+wrnzyKiFWNRPld7GlSjOlbnVrhjP0r0XwV4huNTie0u0eR4R/r8ZBHo3v8Azri9E0S51y9EMA2ov+skxkIP6k+leq6ZplvpNkltaptRepPVj3J9TXDj6lO3La7/ACPUyujV5ue9o/mXaKKK8k98KKKKACiiigDzj4i/8hu3/wCuH/sxrkq634i/8hu3/wCuH/sxrkq9/CfwYnyWO/3iR3fw1/1eofVP613FcP8ADX/V6h9U/rXcV5OM/jP+uh9Bl3+7R/rqct8Q/wDkX4/+vhf5GvNa9K+If/Ivx/8AXwv8jXm2D6H8q9HAP918zx81T9v8je8Ef8jVa/7r/wDoJr1WvKvBAP8AwlVrwfuv2/2TXqtceP8A4vyPRyn+A/UKKKK4T1AooooAKKKKACiiigAooooAz77RdP1If6ZaxSH+8Rhh+I5rnb34d2cgzZ3U0H+y/wA4/wAa7GlrWFapD4XY56mGpVPiijzK68A6rDkwmCdf9l9p/Xism50DVbXPm2FwAOpVNw/MV7HSV0xzCot7M4p5TRfwto8NdWjOHVlPowwaPxr26W3hnXEsSOPRlBqhN4b0ifmTT7bPqqAH9K3jmK6xOaWTyXwyPH+KK9Sl8DaLLnbbvGT/AHJG/wAapy/DrTm/1dxdR/ip/pWqx9J73Rg8qrrazPOaK7x/hrH/AMs9Rcf70QP9RVaT4b3I/wBXqETf70ZH9a0WMovqZPLsQvsnGUV1jfDrUxnbcWp+pYf0qFvAOsr0+zN9JD/hVLFUX9ozeBxC+yzmcUYroT4F1sf8sIj9JRTD4J1wf8ugP/bVf8ar6xS/mRLwldfYZg0VuHwZrg/5cT+Eif40n/CHa5/z4N/38T/Gn7en/MvvF9WrfyP7jEorb/4Q7XP+fBv+/if40o8Ga4f+XE/jIn+NHt6f8y+8Pq1b+R/cYeKMVvDwTrh/5dAP+2q/408eBdbP/LCIfWUUvrFL+ZDWErv7DOeorpl8A6y3UWy/WQ/4VMvw71M43XFqPXlv8Kl4qivtIpYHEP7LOVjkeKRZI2ZHU7lZTgg16T4V8VJq8a2t2Ql4o69BIPUe/t+NY6fDe5b/AFuoQr/uxk1ag+HQikWT+1JFdTuVo49pB/M1y4irh6sdXqd2EoYuhO6jo91ck1zwML3UEn090hSRv3ykcD/aX/Ct2NNO8L6RjIigjGSerO39Sa0YEeOBEkkMrgYLkAbveqOo6FZavIjX0byiMfKhkIUe+B3rgdVzSjN6I9ZYeNNudNJSZR03xjpWpgI8v2aU/wDLObj9ehqHxNoGmNo95draRpPHGXV4xtOffHX8a04fDmkW5Bj0+3yOhZN386TxN/yLWof9cW/lTjOKqL2d0rkypzdJ+2s3Z7HkFFLg+h/KjB9D+Ve/dHynKzofBml2mq6rNHeReaiRbgCSOcj0+tek2tlb2MXl20EcKf3UUCuB+HYP9tXHB/1H/swr0bGa8THSbqtX0PpcspxVFStqL1FcZrvgYXuoJcae6QrI375ccD/aHv7V2YFFc1OpKm7xZ21qEKy5Zq5R0zTLfSbNLa0Tai9T1LHuSe5q7RS1Lbbu9y4xUUkloFFFFIoKKKKACiiigDzf4i/8hu3/AOuH/sxrk6634ig/23b8H/Uen+0a5PB9D+Ve/hH+5ifJ45P6xI7r4a/6vUPqn9a7iuI+Gv8Aq9Q69U/rXb15OM/jP+uh7+Xf7vH+uoEA8EA/Wk8tf7q/lTqK5rnZZCBFHIUA+wpaKKBhRRRQAUUUUAFFFFABRRRQAUUUUAFFFFABRRRQAUUUUAFFFFABRRRQAUUUUAFFFFABRRRQAUUUUAFFFFABRRRQAUUUUAFFFFABRweD0oooAb5af3V/Kjy0/uj8qdRTuLlQgUDoAPoKWiikMKKKKACiiigAooooAKKKKACiiigBpRT1AP1FHlp/dX8qdRRcXKhAAOgA+gpaKKBnmH/Ce6z623/fv/69H/Ce6z623/fs/wCNc5GMyID0LAGvUF8D6IQD9mf/AL+t/jXs11h6NuaO585hnisRdwnsc/ZfEO7jkAvraKWPPLRZVh+fB/Su4sb6DUbRLm1cSROMgj/PFcD4p8Hx6Va/bLB3aAECRGOSue4P1/nT/h9qjQ6nJYMx8qdS6A9mHX9M/kK561GlUpupS6bnXh8RWpVlRru99meiVS1a+Gm6Vc3ZxmJCyg9z2H54q7XHfEO/8rTreyU8zPuYf7K//XI/KuOjD2k1E9HE1fZUpT7GGPH2sAgn7OQDyPLP+NekWs63VtFPGcpIgdT7EV4sYJFgScqfJdiit7jBP8xXpHgO/wDteg+Q5y9s5T8DyP54/Cu3G0IRgpQVrbnl5bipyqOFR3vqiHxj4jvtEuraOzMW2RCzb0z0P1rnf+E91j1tv+/Z/wAa7vVPD9hrEkb3kTO0YIUhyuM/Q1g6/wCEtJ0/RLu5t7dlmjTcpMjHH5mooVKFlGUbs1xVHFc0pwlZLoYf/Cfax623/fs/40h8f6zg823/AH7P+NUvDFhBqeuQ2t2peJlYlQSOgz2ruv8AhB9E/wCfZ/8Av63+NdFaWHpPlcdTkw0cXXjzxnpc27V2mtYpGxudFJx6kVyni3xVd6TqMdrY+Vwm6Quu7Gen6CuujRYIVReERQB9K8g1W5fWNenljBZribZGPUfdX9MVyYOkqlRuWyO/MK8qVJKL1Z2fhHxTdavfzWt95e4JujKLjOOv8xXX4rx3Rrt9J163nkyvlS7ZB6A8H8ufyr2IHIz60sZSUJpxWjHltd1abU3qhaguzItnM0GPNCEpkfxY4/Wp6D0rkW56DV0ec6d451ObUbWO4MHlSSKr4TBwTj1r0XORxXjGqQmw1i7iXgwztt/A5H9K9htp1ns4pwRtdA/5jNd2MpxioygrJnmZdWnJzjUd2mcV4j8YX9hrk9pZmHyoto+dMnOMnv71qeD/ABDc62buO8MfmRbSuxcZBz/UfrXnt7M2oanczqCzSys4AHbOf0FbfgK68nxGI88TxMn4j5v6GuirhoKhotUjjoYypLFK791ux6Fq12bDSrq6XG6KJmGemccfriuM0Lxdq+qa1a2khg2SN8+2M9AMnv7VueOrnyPDUq95nWMfnk/oDXNfD2283XJZyOIYT+BY4/kDXPRpx9hKclr0OvE1p/WoU4Oy6npB7157q/jjULfVrmGzMHkROUUsmSccHv65rtdYvRp2kXV0esaEj3Pb9cV4/FBLdGUopdkQyOfQDqaeCoxneU1oiczxE4csKbs2en+E9bk1vTXe52faI3KvtGBjqDj/AD0rerzXwDf/AGbXHt2OEukwP95eR+ma9KrDFU1TqNLbodeBrOtRTb1W5zfjHXLzRLa2ks/L3SOVbeue31rlv+E91j1tv+/Z/wAa2fiP/wAeNl6+af5Vl+C9DsdajuzfRFzEV24crjOfT6CuujGlGh7SauefiZ15Yr2VOViL/hPtY9bb/v2f8a0tK+ITtOkeqQoEY482LPy+5B7fT8q2W8C6IVIFvIM9xK3+NcDr+lDRtWltFYvGAGRj12n1/UVdNYfENxirMio8XhUpzldXPXwwYZHIIyK891Xxrqtnq93bRGDy4pWVcpzgH610/g65e58M2jSHLIDHk/7JIH6YrzjxD/yMGof9d3/nWGEoxdSUZq9jpx+ImqMJwdrmt/wn2sett/37P+NH/Cfax62//fs/4109p4K0aW0hke2csyKxPmt3H1qb/hBtE/59n/7+t/jWjr4VO3J+BksLjWr8/wCJV8HeIL3WprpbwxYiVSuxcdc+/tUPi7xNf6NqcMFmYtjxbzvTPOSP6VvaVoNhozytYxFDIAGy5bp9frXF/EX/AJDdv/17/wDsxrKj7OriNFp2N8Q6tHCe9L3l1Ot8Lapcavoy3N1t80uy/KMDANbPrXN+Av8AkWk/66v/ADrpDXLWSjUaW1ztw8nKjGTerR5xqHjjVrfULqGM2+yKVkXMZ6A4HevRIW3xKx6kA143q3/IZvv+viT/ANCNewrIsNmrucKqbiT6AV1YulGEY8q3ODL605znzu6Rm6/4jt9CgBkHmTyZ2RA8n3PoPeuFuvHGszuTHNHbp/djQH9TmszVNQl1nVZblgzNK2I0HYdAB/nrXc6L4Gsre1R9Sj+0XDDJG47U9gB1+prVU6OGgnUV2zB1cRjKjVF2ijm7TxzrFs6mWSO4TusiAfqP/r13WheIbbXbdmhykqffiY8r/iPesjWvA1lcWrvpkf2e4UZVdx2v7EHp9RXEaTqMujatFcruUxttkX1XuP8APcUOnRxEG6as0ONXEYOoo1neL6nrl7K8FjPLHjdHGzLn1AzXC6P4z1W+1e0t5jB5csgVsJg4P412uoOJNHuXXBVoGII/3a8r8Nn/AIqPTv8ArstZYWnGVObktUb42tONWmouyZ7DWD4u1i50bS457PZ5jShDuGRjBP8ASt6uU+In/IBh/wCvhf5NXNh0pVUmtLnZi5OFGUovVITwd4ivtbubmO8MW2NFZdi465rf1XU7fSLKS6uWIROgHJY9gPeuM+G//H7ff9c0/mak+I9wxlsbcE7cNIR6ngD8ufzrpqUIyxPItEcdLEzjg/at3Zm33jzVrmU/ZjHax54VVDHHuT/TFQweNtbhcM1ykw/uyRj+mK1vBXh7T9RspLu8jE7iQoI2PyrjHbuee9afiLwlYPpk01jbrBcRKXXy+A2OxH0rd1MNCfs3H5nKqWLnD2yn52uX/DniSDXoGAXyrmP/AFkZP6j1H8qseJNQm0vQri7ttvmx7du4ZHLAf1rz3wobq18Q2kqwTCN2MbtsOMNxyfTOD+Fdx41/5FS8/wCAf+hCuarRjCuorZs7aGJnUw0pS0aTOQ/4T7WPW2/79n/Gj/hPdY9bf/v2f8aqeFNOttV1oW14heMxs2AxXkY9K7j/AIQfRP8An2f/AL+t/jXVWlh6UuWUdTgw8MZXhzxnocj/AMJ9rPrbf9+z/jU//Ccav62//fs/410//CDaJ/z7P/39b/Gn/wDCF6N/z7v/AN/W/wAaz9vhf5PwN/quO/n/ABPK4v8AXJ/vD+de4r90V4dF/rk/3h/OvcV+6KeZbx+Ysm2n8ijrkIn0S9jYZDQv/KvLPDkxi8RaewPWZV/Pj+terau4j0e8c9Fhc/8AjprybQELa/p6jr56H8jSwf8ACmug8x0r02tz2Q85z0ryrxnf/bfEc4BzHABEv4df1J/KvS9Ru1sNOnun+7Ehf8hXjsEiSX0cl4x8tpQ0pAySM5P4nmpwEPec+xWa1NI077nZ6loflfD2Abf30AFw3Hcn5vyDfpWZ4Cv/ALLrptmOEuUx/wACHI/TNdBceN9EubaSB/tGyRChHldiMV59a3LWV5DcREloZAynpnB/rW9KE505xmrX1ObETp0q1OpTaaSSdj26sfxZ/wAixf8A/XP+tadvMlzbxyxnKSKGU+x5rM8Wf8ixf/8AXP8ArXmUtKi9Ue3WadGTXZnB+B/+Rpt/9x//AEE16nXlngf/AJGm3/3H/wDQTXqddOP/AIq9Dhyn+A/UyPFN/wD2f4eupFOJHXy0+rcfoMn8K4LwVY/bfEcJIyluDKfw4H6kH8K2PiPf5ltLFT0Bmcfov9aoeENd0/Q47l7syedKQBtTOFH/ANcn8q2owlHDNxWrOfEVIzxijN2USl4vsfsPiO5AGEm/er+PX9c16D4X1D+0fD9rKTmRV8t/qvH69fxriPF+tafrhtpbMyebHlW3JjKnn9D/ADrS+HV9tmurFjwwEqD9D/SnXg54ZOSs0LDVI08W4xd1I72iiivLPdPLfHNt5HiaVgMCZFk/TH/stdNZal5fw7+07vnS3aIexHyj+lZ/xHtsSWN0B13Rk/qP61hJqOPBL2e7lrwcf7ON38xXrKPtaMPJnz8p/V8RU807EvgmzF3r67lykUTsc+42/wDs1UdOZtK8SQb8gwXOxvpu2n9M11Pw3tcR3t0R95ljU/Tk/wAxXPeMLX7L4mutvAkIkX8Rz+ua0U+evOn0sYypOnh4Vet7nRfEi5xBY24P3maQj6DH9TU3w4ttun3dyRzJKEB9lH+LGub8Waj/AGje2jg5AtIyfYtyf5iu68IW32XwzaAjDSKZD77jn+WK5qq9nhVF9WdlBqtjZT6JGT8RL/ytPt7JT80z72H+yv8A9cj8qpeANMS4gv7iZcq6/Z19weW/pWR4yv8A7d4jnAOUgAiX8Ov6k/lW14d8VaTo+iwW0hm80ZaQiPqxOT+XT8Kv2c44ZKK1ZmqsKmMcpuyWiOTQy6Nq2efNtJuffaefzx+texwSpcQRyxnKSKGU+x5ryXxHeWuoa1Ld2W7y5QCwZduG6H+QP413fga/+2eHkiY5e2Yxn6dR+hx+FLGwcqcajVn1Ky2ooVp0k7p7Gf8AEj/jysv+up/lWN4Q8Q2ehLd/a/MzKV27Fz0z/jWz8SP+PGx/66n+VczoPhubX1naCeOLySAQyk5zn/CroqDw1puy/wCCRiXUWNvTV3b9DsW+IOkgZC3LHsBH/wDXrhdb1RtZ1WS68sqGwqJ1IHb8T1/Gm6tpN1ot19nu1XLDKup+Vh7V1Hgaz0e4/fBGe/i5KykEL/tKPT68iqUKWHj7WF2ZyqV8XNUajSszqPDVg+m6Ba28oxIF3OD2JOcfhnH4V5h4h/5GDUP+u7/zr2OvHfEP/Iwah/13f+dYYGTlUk31OrNIclGEV0Z0tv8AEXyII4v7OzsULnzvQf7tP/4WV/1DP/I3/wBjTrf4d289tHKb6YF0DYCDuKl/4Vvb/wDP/N/3wKbeDvqvzJiswsrP8je8O63/AG9p7XXk+TtkKbd27oAf61xvxE/5Dlv/ANcP/ZjXaaBoqaFYNbRytKGcvuYYPOP8K4v4if8AIct/+uH/ALMazwvL9Y9zY2x3P9U9/fS5HoHjIaHpgtDZmbDFtwkx19sVpf8ACyRjH9mn/v8Af/WrO8P+DY9c0tbtrt4iWK7QgI4rU/4VtDj/AJCEn/fsf41vU+q875t7+Zy0vr3s1ybdNjh72f7Vdz3G3b5sjPtznGTn+tereIZjD4TunU4PkbfzGP615VewC1vbi3DFhFIyBiOuDivUvEqGTwhdAdRAD+WD/Sni7OVO21xYC6hVvvY8+8J24ufE1ijDIDl8f7oJH6gV64K8m8HyiLxTZluAxZfxKnFetVhmF/aL0OvKLeyfe4mOMV5F4ptxbeJr5FGAX3/99AE/zr16vJPF0ol8U3pHQMF/JQKMvv7R+gs3t7Jd7neadKZvA8bscn7GQT9FI/pXnnhz/kYtP/67LXoOlRmPwJGpHJtGP5gn+tefeHP+Ri0//rsta4faqYYq7lQv5foexdq5P4i/8gKH/r4X/wBBaus7VyXxFP8AxI4B63C/+gtXFhv4sfU9LG/7vL0Mv4b/APH9ff8AXNf5mtTx7pMl7p8V3ApaS1JLKBklD1P4YB+mazPhuP8ATb8/9M0/ma75iMfNjFb4mo6eIcl0ObB0lVwag+p4zp2rXulzGSznMZb7w6hvqO9dVp/xFlUhdRtAw7vCcH/vk/41s6l4J0zUSZYN1tK3JMRyp/4D0/LFcpqngfUbBHlhZbqJeTs4bH+73/Cun2mHr/ErM4vY4vC/A7o9B03VrPV7fzrOUSAfeHQqfQjtVDxr/wAipd/8A/8AQhXn3h3Un0vWreZGIjdhHIvqpOP06/hXoHjTnwnd/wDAP/QhXLOh7GtFLZvQ7aeK+sYabas0tTzzQdX/ALD1MXfk+dhCm3dt6/8A6q6f/hZP/UM/8jf/AGNc14e0hNb1QWskrRqYy25een/666v/AIVxbf8AP/N/3wK7MQ8Pz/vFr8zz8IsW6f7l6fIji+I/mTIn9m43MFz53r/wGu2zmuPj+HVvHKji+mJRg2No7V2PSvPrujdeyPXwixNn7Z/keHxn9+n+8K9pF/a4H+kRf99ivF2hkjdkZcMDgjPSk8o/3RXp4nDqvZ3tY8PCYt4a65b3PQfGPiS0Gly2NpMk08w2t5ZyEXvkj8se9YXgSwa715ZyP3dqpYn/AGjwP6n8KztK8O6hqz4to1WP+KRnGF/DrXpWhaLBodgLeE5Y/NI5HLt6/wD1q5qsoYek6UXds7aEKmLrqtNWS2Mf4g3/AJGjxWin57mTkf7K8n9cVxui+HrvXhMbVo0WLAYyEjOfTA9q0PHF0934ieIA7LZBGPqeSf1A/Cus8D2P2Tw5G5A33DGQ/wAh+gFNTeHw6a3YnBYvFtS2RzH/AAr3Venn2n/fTf4Vja1odzoU8cV0Y2Mi7laMnHp37/417F0rlPiDYfadGjuVHzW8gz/unj+eKihjakqijPZmmKy6lCk5QWqJvAt/9r0BIWOXtWMZ+nUfocfhV3xZ/wAizf8A/XOuP8AXb22tvbsDsuUPf+Jef5ZrsfFY3eGL8Dr5dZVYcmJXa9zfD1PaYNvqk0cH4H/5Gm3/ANx//QTXqZ4zXlvghWHim3JHGx/5V6B4gvWsNCu7hM71Qhcep4H6kVeOXNWSXVIzy2XJh3J9GzzDxDf/ANo69d3AO5S+xMf3V4H54z+NayfD/VHVW822XcM4LNx+lZfhzTzfa9ZwsuU372yey8/rjH416/7Vtia8qHLTp9jmweFjiuapU6s80k8AapGjN5ts20E4DNk/pWRoF/8A2Zrlrck4UPtf/dPB/LOfwr2LtgV5D4j042GvXkCqNhfeuPRuf0zj8KMNXlXvCfYMZhY4blqU+jPXs5FLWT4bvWv9BtJpM79mxs9yvB/lmtTOK8yS5W0e5CanFSXU5vx9b+f4caQDJhkV/wD2X+teY84x2617LrlsLzRbyHu8LAfXHH6144InfaAvLcDmvUy+fuNdmeDm1P8AeqS6o9S8E2v2bwzbkjDTFpD+J4/QCuf+JFttu7O6A++jRk/Q5H8zXcWVutpZQW69Io1QfgMVgePbT7T4eMgGWhlVh+Py/wDs1clGr/tCl3Z6GJo/7JydkeaBWlZUBJZiFGefavYriWPR9EeQ42W0PHvgcV5j4cs2ufENjGV+UShzk/3fm/pXZfEC7aHRo7aPObiTnH90c/zxXVi/3lWFM4MA/ZUalV/I4G0tp9V1FIIyDPcOfmb1PJJ/U1v/APCvdV/57Wn/AH03+FS/D+xMusTXTjiCPC8927/kD+dei0sVi5058kNkXgsBCtT56m7PK9U8HahpVi93O8Dxx43CMnPJx3HvVv4fX/2bWpLRj8lynA/2l5/lmvQNQtFv7C4tn+7KhTn3FeP2kk2majFMB89vKGIB64PI/HkVVGo8RSlCW5GIorB1oThsdt8Sf+PGy/66t/Ko/hr/AKvUP95P6074hnztN0905UuT+a034bKVi1DI/iT/ANmrL/mDa/rc33zBPy/Q3PFWijWNJdUUG4i+eI+/p+I4/KvMtMv5dJ1KG6izujb5l/vDuPyr2jrXmXjbRf7P1b7RCoEN1l8A9GH3vzyD+JowVVO9KWzHmVBxtXhutz0i1uY7y1iuIW3RyKGU+oNeReIf+Q/qP/Xd/wCddd8PtSeSCXTZs/uv3kZ/2SeR+Z/WuT8QRsfEF+cf8t37+9XhKfs60ovsZY6squHhNdz1KxvbYWMAaeIERrxvHpU/261/5+If++xXivlN/dFHlN/dFDy9N35hRzeSSXIe2R3MMrFYpUcjsrA1578Rf+Q3b/8AXD/2Y0fDyMrrlwSMf6Of/Qlp3xEQnWrfA/5Yf+zGs6NL2WJ5b3NcTXdfBudrHQ+Af+RaT/ro/wDOukPSuc8Bgjw0gP8Az0f+ddGelctf+LL1PQwn8CPoeMav/wAhm+/6+JP/AEI1688C3WmtC/3ZYth+hGK8i1eNv7YvuP8Al4k7/wC0a9jg/wBRH/uiuzHP3INHnZYrzqJni7JPpeolT8s9tJwf9pT/AC716rofiC01m1R4pFWbHzxE/Mp/qPesvxX4U/tYi8siFu1GGB4Eg/oR6153NDJa3DRTKUkQ4Iz0/KteWGMgtbNGHNUy+o9LxZ6vrmv2ui2rvJIrTY+SEH5mP9B715bFFPq2pLGMvPdS8n3J5P0HJqK3t5bu4WKFS8jnAG4DP516L4U8Kf2Pm7vCHu2GAB0jH9SfX8KXLDBwet2x81TMKi0tFHQC0RNP+yp90ReWPpjFePWc7adqMM5UlreUFl9dp5H6V7Uelef+L/CkyXM2o2IDRP8APLHkAqe5Getc+CqpScJvc68xoScYzgtYna2Oo22o26zWsyyRsM8Hp9fSuM+IOq29wLexgkWR43Mkm05C8EAfXk1xYJGdpIzwcHGauaZpV1q10Le0RSx5JYgBR6//AKs11QwcaU/aSeiOKrmE8RD2SjqzrvhtCVjv5iOCUQH6ZJ/mKzvH8MsOuI+5/KmiBAycZHB/p+ddvoelRaJpkdrH8xGWd8febuf89qi8R6FHr2n+VuCzId0TkdD6H2rkjiEsQ5vZnfLCS+qKkt1qZHgbW4JdMTT5XVLiEkKGP31JyMevXFdFqOo2umWrz3UiqgHTPJ9gO5ryK/0+4026a3u0CSr2BB/lVf5pMAks3QZOa6p4GNSXPF6PU4oZlOlD2co6rQlt1a71GNY1w0sw2gdstXp3jT/kU7v/AIB/6EKxfCHhSWC4TUb8AMBmGMEHGf4iR/KtvxmCfCt4B/sf+hisa9WM60FHZM3w1CdPDVJSWrTOL8DSJF4iDSOqL5Lcscelek/bbX/n5h/77FeLeWx/h/Wjyj/dFdNfCKtLmvY4sLj3h4cijc9r+3Wv/PzD/wB9ij7da/8APxD/AN9ivFPKP90VMum3DqGEYwRnqKw/s+P851LN5P7B/9k=;" vertex="1" parent="1">
          <mxGeometry x="1680" y="160" width="87.78" height="80" as="geometry" />
        </mxCell>
        <mxCell id="_2FKwMDi1mKpQeEEdjGX-51" value="APIs" style="shape=image;html=1;verticalAlign=top;verticalLabelPosition=bottom;labelBackgroundColor=#ffffff;imageAspect=0;aspect=fixed;image=https://cdn3.iconfinder.com/data/icons/essential-pack/32/33-Web_Browser-128.png" vertex="1" parent="1">
          <mxGeometry x="1680" y="280" width="80" height="80" as="geometry" />
        </mxCell>
        <mxCell id="_2FKwMDi1mKpQeEEdjGX-54" style="edgeStyle=orthogonalEdgeStyle;rounded=0;orthogonalLoop=1;jettySize=auto;html=1;entryX=0;entryY=0.5;entryDx=0;entryDy=0;" edge="1" parent="1" source="_2FKwMDi1mKpQeEEdjGX-52" target="_2FKwMDi1mKpQeEEdjGX-50">
          <mxGeometry relative="1" as="geometry" />
        </mxCell>
        <mxCell id="_2FKwMDi1mKpQeEEdjGX-55" style="edgeStyle=orthogonalEdgeStyle;rounded=0;orthogonalLoop=1;jettySize=auto;html=1;entryX=0;entryY=0.5;entryDx=0;entryDy=0;" edge="1" parent="1" source="_2FKwMDi1mKpQeEEdjGX-52" target="_2FKwMDi1mKpQeEEdjGX-49">
          <mxGeometry relative="1" as="geometry" />
        </mxCell>
        <mxCell id="_2FKwMDi1mKpQeEEdjGX-56" style="edgeStyle=orthogonalEdgeStyle;rounded=0;orthogonalLoop=1;jettySize=auto;html=1;entryX=0;entryY=0.5;entryDx=0;entryDy=0;" edge="1" parent="1" source="_2FKwMDi1mKpQeEEdjGX-52" target="_2FKwMDi1mKpQeEEdjGX-51">
          <mxGeometry relative="1" as="geometry" />
        </mxCell>
        <mxCell id="_2FKwMDi1mKpQeEEdjGX-58" style="edgeStyle=orthogonalEdgeStyle;rounded=0;orthogonalLoop=1;jettySize=auto;html=1;entryX=0.5;entryY=0;entryDx=0;entryDy=0;entryPerimeter=0;" edge="1" parent="1" source="_2FKwMDi1mKpQeEEdjGX-52" target="_2FKwMDi1mKpQeEEdjGX-57">
          <mxGeometry relative="1" as="geometry" />
        </mxCell>
        <mxCell id="_2FKwMDi1mKpQeEEdjGX-52" value="AWS Athena&lt;br&gt;&amp;lt;source&amp;gt;_full&lt;br&gt;&amp;lt;source&amp;gt;_backup&lt;br&gt;&amp;lt;source&amp;gt;_metadata" style="outlineConnect=0;dashed=0;verticalLabelPosition=bottom;verticalAlign=top;align=center;html=1;shape=mxgraph.aws3.athena;fillColor=#F58534;gradientColor=none;strokeWidth=4;" vertex="1" parent="1">
          <mxGeometry x="1450" y="161.75" width="76.5" height="76.5" as="geometry" />
        </mxCell>
        <mxCell id="_2FKwMDi1mKpQeEEdjGX-60" style="edgeStyle=orthogonalEdgeStyle;rounded=0;orthogonalLoop=1;jettySize=auto;html=1;" edge="1" parent="1" source="_2FKwMDi1mKpQeEEdjGX-57" target="_2FKwMDi1mKpQeEEdjGX-59">
          <mxGeometry relative="1" as="geometry" />
        </mxCell>
        <mxCell id="_2FKwMDi1mKpQeEEdjGX-57" value="Analytics" style="sketch=0;pointerEvents=1;shadow=0;dashed=0;html=1;strokeColor=none;labelPosition=center;verticalLabelPosition=bottom;verticalAlign=top;align=center;fillColor=#505050;shape=mxgraph.mscae.intune.dashboard;strokeWidth=4;" vertex="1" parent="1">
          <mxGeometry x="1433.25" y="400" width="110" height="80" as="geometry" />
        </mxCell>
        <mxCell id="_2FKwMDi1mKpQeEEdjGX-59" value="AWS S3 &lt;br&gt;&lt;b&gt;etl-bucket/&amp;lt;source&amp;gt;/loaded&lt;/b&gt;" style="sketch=0;outlineConnect=0;fontColor=#232F3E;gradientColor=none;fillColor=#33001A;strokeColor=none;dashed=0;verticalLabelPosition=bottom;verticalAlign=top;align=center;html=1;fontSize=12;fontStyle=0;aspect=fixed;pointerEvents=1;shape=mxgraph.aws4.bucket;strokeWidth=4;" vertex="1" parent="1">
          <mxGeometry x="1180" y="400" width="76.92" height="80" as="geometry" />
        </mxCell>
        <mxCell id="_2FKwMDi1mKpQeEEdjGX-61" value="color-company-it" style="text;html=1;align=center;verticalAlign=middle;resizable=0;points=[];autosize=1;strokeColor=none;fillColor=none;" vertex="1" parent="1">
          <mxGeometry x="10" y="10" width="110" height="30" as="geometry" />
        </mxCell>
      </root>
    </mxGraphModel>
  </diagram>
</mxfile>
